#Box032.obj

v -139.3186 8.267822 0
v -139.3186 -8.267822 0
v 139.3186 8.267822 0
v 139.3186 -8.267822 0
v 139.3186 8.267822 287.244
v -139.3186 -8.267822 287.244
v -139.3186 8.267822 287.244
v 139.3186 -8.267822 287.244
v 139.3186 -8.267822 287.244
v -139.3186 -8.267822 0
v -139.3186 -8.267822 287.244
v 139.3186 -8.267822 0
v 139.3186 -8.267822 287.244
v 139.3186 8.267822 287.244
v 139.3186 -8.267822 0
v 139.3186 8.267822 0
v -139.3186 8.267822 287.244
v 139.3186 8.267822 0
v 139.3186 8.267822 287.244
v -139.3186 8.267822 0
v -139.3186 8.267822 287.244
v -139.3186 -8.267822 287.244
v -139.3186 8.267822 0
v -139.3186 -8.267822 0

vn 0 0 -1
vn 0 0 -1
vn 0 0 -1
vn 0 0 -1
vn 0 0 1
vn 0 0 1
vn 0 0 1
vn 0 0 1
vn 0 -1 0
vn 0 -1 0
vn 0 -1 0
vn 0 -1 0
vn 1 0 0
vn 1 0 0
vn 1 0 0
vn 1 0 0
vn 0 1 0
vn 0 1 0
vn 0 1 0
vn 0 1 0
vn -1 0 0
vn -1 0 0
vn -1 0 0
vn -1 0 0

vt 1 -15.53564
vt 1 1
vt -277.6373 -15.53564
vt -277.6373 1
vt 278.6373 -15.53564
vt 0 1
vt 0 -15.53564
vt 278.6373 1
vt 278.6373 -286.244
vt 0 1
vt 0 -286.244
vt 278.6373 1
vt 0 -286.244
vt 16.53564 -286.244
vt 0 1
vt 16.53564 1
vt 278.6373 -286.244
vt 0 1
vt 0 -286.244
vt 278.6373 1
vt 0 -286.244
vt 16.53564 -286.244
vt 0 1
vt 16.53564 1

g Box032.obj
usemtl Box032
usemap Box032
f 1/1/1 3/3/3 2/2/2
f 4/4/4 2/2/2 3/3/3
f 5/5/5 7/7/7 6/6/6
f 5/5/5 6/6/6 8/8/8
f 9/9/9 11/11/11 10/10/10
f 9/9/9 10/10/10 12/12/12
f 13/13/13 15/15/15 14/14/14
f 14/14/14 15/15/15 16/16/16
f 17/17/17 19/19/19 18/18/18
f 17/17/17 18/18/18 20/20/20
f 21/21/21 23/23/23 22/22/22
f 22/22/22 23/23/23 24/24/24
