#Box173.obj

v -2.210861 -1.970618 0
v 2.210861 1.970618 0
v -2.210861 1.970618 0
v 2.210861 -1.970618 0
v -2.210861 -1.970618 65.53724
v 2.210861 1.970618 65.53724
v 2.210861 -1.970618 65.53724
v -2.210861 1.970618 65.53724
v -2.210861 -1.970618 0
v 2.210861 -1.970618 65.53724
v 2.210861 -1.970618 0
v -2.210861 -1.970618 65.53724
v 2.210861 -1.970618 0
v 2.210861 1.970618 65.53724
v 2.210861 1.970618 0
v 2.210861 -1.970618 65.53724
v 2.210861 1.970618 0
v -2.210861 1.970618 65.53724
v -2.210861 1.970618 0
v 2.210861 1.970618 65.53724
v -2.210861 1.970618 0
v -2.210861 -1.970618 65.53724
v -2.210861 -1.970618 0
v -2.210861 1.970618 65.53724

vn 0 0 -1
vn 0 0 -1
vn 0 0 -1
vn 0 0 -1
vn 0 0 1
vn 0 0 1
vn 0 0 1
vn 0 0 1
vn 0 -1 0
vn 0 -1 0
vn 0 -1 0
vn 0 -1 0
vn 1 0 0
vn 1 0 0
vn 1 0 0
vn 1 0 0
vn 0 1 0
vn 0 1 0
vn 0 1 0
vn 0 1 0
vn -1 0 0
vn -1 0 0
vn -1 0 0
vn -1 0 0

vt 1 1
vt -2.684769 -2.284363
vt 1 -2.284363
vt -2.684769 1
vt 0 1
vt 3.684769 -2.284363
vt 3.684769 1
vt 0 -2.284363
vt 0 1
vt 3.684769 -53.61436
vt 3.684769 1
vt 0 -53.61436
vt 0 1
vt 3.284363 -53.61436
vt 3.284363 1
vt 0 -53.61436
vt 0 1
vt 3.684769 -53.61436
vt 3.684769 1
vt 0 -53.61436
vt 0 1
vt 3.284363 -53.61436
vt 3.284363 1
vt 0 -53.61436

g Box173.obj
usemtl Box173
usemap Box173
f 1/1/1 3/3/3 2/2/2
f 1/1/1 2/2/2 4/4/4
f 5/5/5 7/7/7 6/6/6
f 5/5/5 6/6/6 8/8/8
f 9/9/9 11/11/11 10/10/10
f 9/9/9 10/10/10 12/12/12
f 13/13/13 15/15/15 14/14/14
f 13/13/13 14/14/14 16/16/16
f 17/17/17 19/19/19 18/18/18
f 17/17/17 18/18/18 20/20/20
f 21/21/21 23/23/23 22/22/22
f 21/21/21 22/22/22 24/24/24
