#Chair Sit001.obj

v 27.53012 27.53012 10.30009
v 38.93348 0 0
v 38.93348 0 10.30009
v 27.53012 27.53012 0
v -1.701836E-06 38.93348 10.30009
v -1.701836E-06 38.93348 0
v 27.53012 -27.53013 0
v 27.53012 -27.53013 10.30009
v 4.642771E-07 -38.93348 0
v 4.642771E-07 -38.93348 10.30009
v -27.53012 -27.53013 0
v -27.53012 -27.53013 10.30009
v -38.93348 -3.403673E-06 0
v -38.93348 -3.403673E-06 10.30009
v -27.53012 27.53012 0
v -27.53012 27.53012 10.30009
v -1.701836E-06 38.93348 0
v -1.701836E-06 38.93348 10.30009
v -27.53012 -27.53013 0
v 4.642771E-07 -38.93348 0
v 27.53012 27.53012 0
v -27.53012 27.53012 0
v -38.93348 -3.403673E-06 0
v -1.701836E-06 38.93348 0
v 38.93348 0 0
v 27.53012 -27.53013 0
v -27.53012 27.53012 10.30009
v -1.701836E-06 38.93348 10.30009
v 27.53012 27.53012 10.30009
v -27.53012 -27.53013 10.30009
v 4.642771E-07 -38.93348 10.30009
v -38.93348 -3.403673E-06 10.30009
v 38.93348 0 10.30009
v 27.53012 -27.53013 10.30009
v -36.02064 34.90286 68.98956
v -36.02064 31.64075 68.59152
v 30.88144 34.90286 68.98956
v 30.88144 31.64075 68.59152
v 37.63372 40.372 112.1209
v -42.44052 37.10989 111.7229
v -42.44052 40.372 112.1209
v 37.63372 37.10989 111.7229
v -42.44052 37.10989 111.7229
v 37.63372 37.10989 111.7229
v 30.88144 31.64075 68.59152
v -36.02064 31.64075 68.59152
v -42.44052 40.372 112.1209
v 30.88144 34.90286 68.98956
v 37.63372 40.372 112.1209
v -36.02064 34.90286 68.98956

vn 0.7071067 0.7071068 0
vn 1 0 0
vn 1 0 0
vn 0.7071067 0.7071068 0
vn 0 1 0
vn 0 1 0
vn 0.7071068 -0.7071068 0
vn 0.7071068 -0.7071068 0
vn 0 -1 0
vn 0 -1 0
vn -0.7071067 -0.7071068 0
vn -0.7071067 -0.7071068 0
vn -1 0 0
vn -1 0 0
vn -0.7071068 0.7071068 0
vn -0.7071068 0.7071068 0
vn 0 1 0
vn 0 1 0
vn 0 0 -1
vn 0 0 -1
vn 0 0 -1
vn 0 0 -1
vn 0 0 -1
vn 0 0 -1
vn 0 0 -1
vn 0 0 -1
vn 0 0 1
vn 0 0 1
vn 0 0 1
vn 0 0 1
vn 0 0 1
vn 0 0 1
vn 0 0 1
vn 0 0 1
vn 0 0.1211198 -0.9926379
vn 0 0.1211198 -0.9926379
vn 0 0.1211198 -0.9926379
vn 0 0.1211198 -0.9926379
vn 0 -0.1211164 0.9926383
vn 0 -0.1211164 0.9926383
vn 0 -0.1211164 0.9926383
vn 0 -0.1211164 0.9926383
vn 0 -0.9920563 0.1257945
vn 0 -0.9920563 0.1257945
vn 0 -0.9920563 0.1257945
vn 0 -0.9920563 0.1257945
vn 0 0.9920563 -0.1257945
vn 0 0.9920563 -0.1257945
vn 0 0.9920563 -0.1257945
vn 0 0.9920563 -0.1257945

vt 142.6987 -5.866729
vt 122.3131 1
vt 122.3131 -5.866729
vt 142.6987 1
vt 163.0842 -5.866729
vt 163.0842 1
vt 101.9276 1
vt 101.9276 -5.866729
vt 81.54209 1
vt 81.54209 -5.866729
vt 61.15658 1
vt 61.15658 -5.866729
vt 40.77105 1
vt 40.77105 -5.866729
vt 20.38552 1
vt 20.38552 -5.866729
vt 6.18831E-06 1
vt 6.18831E-06 -5.866729
vt 61.15658 1
vt 81.54209 1
vt -20.38552 1
vt 20.38552 1
vt 40.77105 1
vt 6.18831E-06 1
vt -40.77105 1
vt -61.15657 1
vt 183.4697 -5.866729
vt 163.0842 -5.866729
vt 142.6987 -5.866729
vt 224.2408 -5.866729
vt 244.6263 -5.866729
vt 203.8552 -5.866729
vt 285.3973 -5.866729
vt 265.0118 -5.866729
vt 1 -0.5643826
vt 1 1
vt -9.621208 -0.5643826
vt -9.621208 1
vt 10.62121 -0.5643826
vt 0 1
vt 0 -0.5643826
vt 10.62121 1
vt 0 -9.26909
vt 10.62121 -9.26909
vt 10.62121 1
vt 0 1
vt 10.62121 -9.26909
vt 0 1
vt 0 -9.26909
vt 10.62121 1

g Chair Sit001.obj
usemtl Chair Sit001
usemap Chair Sit001
f 1/1/1 3/3/3 2/2/2
f 1/1/1 2/2/2 4/4/4
f 5/5/5 1/1/1 4/4/4
f 5/5/5 4/4/4 6/6/6
f 3/3/3 7/7/7 2/2/2
f 3/3/3 8/8/8 7/7/7
f 8/8/8 9/9/9 7/7/7
f 8/8/8 10/10/10 9/9/9
f 10/10/10 11/11/11 9/9/9
f 10/10/10 12/12/12 11/11/11
f 12/12/12 13/13/13 11/11/11
f 12/12/12 14/14/14 13/13/13
f 14/14/14 15/15/15 13/13/13
f 14/14/14 16/16/16 15/15/15
f 16/16/16 17/17/17 15/15/15
f 16/16/16 18/18/18 17/17/17
f 19/19/19 21/21/21 20/20/20
f 21/21/21 19/19/19 22/22/22
f 22/22/22 19/19/19 23/23/23
f 21/21/21 22/22/22 24/24/24
f 25/25/25 20/20/20 21/21/21
f 20/20/20 25/25/25 26/26/26
f 27/27/27 29/29/29 28/28/28
f 29/29/29 27/27/27 30/30/30
f 31/31/31 29/29/29 30/30/30
f 30/30/30 27/27/27 32/32/32
f 29/29/29 31/31/31 33/33/33
f 33/33/33 31/31/31 34/34/34
f 35/35/35 37/37/37 36/36/36
f 38/38/38 36/36/36 37/37/37
f 39/39/39 41/41/41 40/40/40
f 39/39/39 40/40/40 42/42/42
f 43/43/43 45/45/45 44/44/44
f 45/45/45 43/43/43 46/46/46
f 47/47/47 49/49/49 48/48/48
f 47/47/47 48/48/48 50/50/50
