#Cinamon.obj

v 0.8455607 0 0.3046536
v 0.684073 0.4970081 12.98013
v 0.684073 0.4970081 0
v 0.8455607 0 12.598
v 0.2612926 0.804176 12.98013
v 0.2612926 0.804176 0.1172094
v -0.2612927 0.804176 13.12931
v -0.2612927 0.804176 -0.1916914
v 0.6840732 -0.4970079 -0.1272621
v 0.6840732 -0.4970079 12.98013
v 0.2612928 -0.804176 0
v 0.2612928 -0.804176 12.83543
v -0.3120797 -0.804176 0.2363982
v -0.2612927 -0.804176 12.98013
v -0.684073 -0.4970082 0
v -0.684073 -0.4970082 12.85047
v -0.8455607 -7.392126E-08 0.2901759
v -0.8455607 -7.392126E-08 13.10727
v -0.684073 0.4970081 0
v -0.684073 0.4970081 12.98013
v -0.2612927 0.804176 -0.1916914
v -0.2612927 0.804176 13.12931
v 0.684073 0.4970081 0
v 0.6904908 -1.94371E-08 0.3046536
v 0.8455607 0 0.3046536
v 0.5586188 0.4058602 0
v 0.8455607 0 0.3046536
v 0.558619 -0.4058601 -0.1272621
v 0.6840732 -0.4970079 -0.1272621
v 0.6904908 -1.94371E-08 0.3046536
v 0.6840732 -0.4970079 -0.1272621
v 0.2133735 -0.6566957 0
v 0.2612928 -0.804176 0
v 0.558619 -0.4058601 -0.1272621
v 0.2612928 -0.804176 0
v -0.2641605 -0.6566957 0.2363982
v -0.3120797 -0.804176 0.2363982
v 0.2133735 -0.6566957 0
v -0.3120797 -0.804176 0.2363982
v -0.5586187 -0.4058604 0
v -0.684073 -0.4970082 0
v -0.2641605 -0.6566957 0.2363982
v -0.684073 -0.4970082 0
v -0.6904907 -7.149163E-08 0.2901759
v -0.8455607 -7.392126E-08 0.2901759
v -0.5586187 -0.4058604 0
v -0.8455607 -7.392126E-08 0.2901759
v -0.5586188 0.4058602 0
v -0.684073 0.4970081 0
v -0.6904907 -7.149163E-08 0.2901759
v -0.684073 0.4970081 0
v -0.2133734 0.6566957 -0.1916914
v -0.2612927 0.804176 -0.1916914
v -0.5586188 0.4058602 0
v -0.2612927 0.804176 -0.1916914
v 0.2133733 0.6566957 0.1172094
v 0.2612926 0.804176 0.1172094
v -0.2133734 0.6566957 -0.1916914
v 0.2612926 0.804176 0.1172094
v 0.5586188 0.4058602 0
v 0.684073 0.4970081 0
v 0.2133733 0.6566957 0.1172094
v 0.8455607 0 12.598
v 0.5586188 0.4058603 12.98013
v 0.684073 0.4970081 12.98013
v 0.6904908 -1.457783E-08 12.598
v 0.684073 0.4970081 12.98013
v 0.2133733 0.6566957 12.98013
v 0.2612926 0.804176 12.98013
v 0.5586188 0.4058603 12.98013
v 0.2612926 0.804176 12.98013
v -0.2133734 0.6566957 13.12931
v -0.2612927 0.804176 13.12931
v 0.2133733 0.6566957 12.98013
v -0.2612927 0.804176 13.12931
v -0.5586188 0.4058602 12.98013
v -0.684073 0.4970081 12.98013
v -0.2133734 0.6566957 13.12931
v -0.684073 0.4970081 12.98013
v -0.6904908 -6.906199E-08 13.10727
v -0.8455607 -7.392126E-08 13.10727
v -0.5586188 0.4058602 12.98013
v -0.8455607 -7.392126E-08 13.10727
v -0.5586187 -0.4058604 12.85047
v -0.684073 -0.4970082 12.85047
v -0.6904908 -6.906199E-08 13.10727
v -0.684073 -0.4970082 12.85047
v -0.2133735 -0.6566957 12.98013
v -0.2612927 -0.804176 12.98013
v -0.5586187 -0.4058604 12.85047
v -0.2612927 -0.804176 12.98013
v 0.2133735 -0.6566957 12.83543
v 0.2612928 -0.804176 12.83543
v -0.2133735 -0.6566957 12.98013
v 0.2612928 -0.804176 12.83543
v 0.558619 -0.4058601 12.98013
v 0.6840732 -0.4970079 12.98013
v 0.2133735 -0.6566957 12.83543
v 0.6840732 -0.4970079 12.98013
v 0.6904908 -1.457783E-08 12.598
v 0.8455607 0 12.598
v 0.558619 -0.4058601 12.98013
v -0.2641605 -0.6566957 0.2363982
v -0.5586187 -0.4058604 12.85047
v -0.5586187 -0.4058604 0
v -0.2133735 -0.6566957 12.98013
v -0.6904908 -6.906199E-08 13.10727
v -0.6904907 -7.149163E-08 0.2901759
v -0.5586188 0.4058602 12.98013
v -0.5586188 0.4058602 0
v -0.2133734 0.6566957 13.12931
v -0.2133734 0.6566957 -0.1916914
v 0.2133733 0.6566957 12.98013
v 0.2133733 0.6566957 0.1172094
v 0.5586188 0.4058603 12.98013
v 0.5586188 0.4058602 0
v 0.2133735 -0.6566957 0
v 0.2133735 -0.6566957 12.83543
v 0.6904908 -1.457783E-08 12.598
v 0.6904908 -1.94371E-08 0.3046536
v 0.558619 -0.4058601 12.98013
v 0.558619 -0.4058601 -0.1272621
v 0.5586188 0.4058602 0
v 0.5586188 0.4058603 12.98013
v 0.6904908 -1.457783E-08 12.598
v 0.558619 -0.4058601 -0.1272621
v 0.2133735 -0.6566957 12.83543
v 0.2133735 -0.6566957 0

vn 0.9999263 -0.01213735 0
vn 0.7584511 0.6517299 0
vn 0.7838222 0.6209853 0
vn 1 0 0
vn 0.2837905 0.9588863 0
vn 0.2840775 0.9588014 0
vn -0.309017 0.9510565 0
vn -0.3338676 0.94262 0
vn 0.7683179 -0.6400685 0
vn 0.7771517 -0.6293133 0
vn 0.37326 -0.9277268 0
vn 0.3090171 -0.9510565 0
vn -0.3291272 -0.9442853 0.0006530922
vn -0.3257482 -0.9454564 0.0006463872
vn -0.8135952 -0.5814314 0.0006502447
vn -0.8275319 -0.5614184 0.0005999167
vn -1 0 0
vn -0.9995807 0.02895751 0
vn -0.7508478 0.6604751 0
vn -0.8069546 0.5906136 0
vn -0.3338676 0.94262 0
vn -0.309017 0.9510565 0
vn 0.1669138 -0.5137076 -0.8415724
vn 0.1669139 -0.5137076 -0.8415724
vn 0.1669138 -0.5137076 -0.8415724
vn 0.1669138 -0.5137076 -0.8415724
vn 0.2079731 0.6400756 -0.7396286
vn 0.2079731 0.6400756 -0.7396287
vn 0.2079731 0.6400756 -0.7396286
vn 0.2079731 0.6400756 -0.7396287
vn -0.2095053 -0.1522145 -0.9658874
vn -0.2095053 -0.1522145 -0.9658874
vn -0.2095053 -0.1522145 -0.9658874
vn -0.2095053 -0.1522145 -0.9658874
vn -0.4102843 0 -0.9119577
vn -0.4102843 0 -0.9119577
vn -0.4102843 0 -0.9119577
vn -0.4102843 0 -0.9119577
vn 0.3872744 -0.2813714 -0.8779799
vn 0.3872744 -0.2813714 -0.8779799
vn 0.3872744 -0.2813714 -0.8779799
vn 0.3872744 -0.2813714 -0.8779799
vn -0.1611782 0.4960557 -0.8532
vn -0.1611782 0.4960557 -0.8532
vn -0.1611782 0.4960557 -0.8532
vn -0.1611782 0.4960557 -0.8532
vn -0.1611782 -0.4960557 -0.8532
vn -0.1611782 -0.4960557 -0.8532
vn -0.1611782 -0.4960557 -0.8532
vn -0.1611782 -0.4960557 -0.8532
vn -0.3029461 -0.2201032 -0.9272423
vn -0.3029461 -0.2201032 -0.9272423
vn -0.3029461 -0.2201032 -0.9272423
vn -0.3029461 -0.2201032 -0.9272423
vn 0.545445 0 -0.8381466
vn 0.545445 0 -0.8381466
vn 0.545445 0 -0.8381466
vn 0.5454451 0 -0.8381466
vn -0.1939454 0.1409096 -0.9708397
vn -0.1939454 0.1409096 -0.9708397
vn -0.1939454 0.1409096 -0.9708397
vn -0.1939454 0.1409096 -0.9708397
vn 0.1937826 -0.5964012 0.7789441
vn 0.1937826 -0.5964012 0.7789441
vn 0.1937825 -0.5964012 0.7789441
vn 0.1937826 -0.5964012 0.7789441
vn 0 0 1
vn 0 0 1
vn 0 0 1
vn 0 0 1
vn 0.2998225 0 0.953995
vn 0.2998225 0 0.953995
vn 0.2998225 0 0.953995
vn 0.2998225 0 0.953995
vn -0.2425614 -0.1762313 0.953995
vn -0.2425614 -0.1762313 0.953995
vn -0.2425614 -0.1762313 0.953995
vn -0.2425614 -0.1762312 0.953995
vn 0.07995231 0.2460679 0.9659493
vn 0.0799523 0.2460679 0.9659493
vn 0.07995231 0.2460679 0.9659493
vn 0.0799523 0.2460679 0.9659493
vn 0.1470444 -0.4525561 0.8795288
vn 0.1470444 -0.4525561 0.8795288
vn 0.1470444 -0.4525561 0.8795288
vn 0.1470444 -0.4525561 0.8795288
vn -0.2131894 0.1548912 0.9646549
vn -0.2131894 0.1548912 0.9646549
vn -0.2131894 0.1548912 0.9646549
vn -0.2131894 0.1548912 0.9646549
vn 0.2916047 0 0.9565389
vn 0.2916047 0 0.9565389
vn 0.2916047 0 0.9565389
vn 0.2916047 0 0.9565389
vn -0.2359131 -0.171401 0.9565389
vn -0.2359131 -0.1714009 0.9565389
vn -0.2359131 -0.1714009 0.9565389
vn -0.2359131 -0.171401 0.9565389
vn 0.1937825 0.5964015 0.7789439
vn 0.1937825 0.5964015 0.7789439
vn 0.1937825 0.5964015 0.778944
vn 0.1937825 0.5964015 0.778944
vn 0.334232 0.9424906 -0.0006632224
vn 0.8304957 0.5570247 -0.0006006204
vn 0.8155662 0.5786632 -0.0006560215
vn 0.3298932 0.9440181 -0.0006546128
vn 0.9993717 -0.03544226 0
vn 1 0 0
vn 0.8066412 -0.5910414 0
vn 0.7388046 -0.6739197 0
vn 0.3090171 -0.9510565 0
vn 0.3390227 -0.9407782 0
vn -0.278999 -0.9602914 0
vn -0.281452 -0.9595753 0
vn -0.7475638 -0.66419 0
vn -0.7781894 -0.6280298 0
vn -0.3856603 0.9226409 0
vn -0.3090171 0.9510565 0
vn -1 0 0
vn -0.9999253 0.01223252 0
vn -0.7705353 0.6373975 0
vn -0.7601472 0.6497509 0
vn -0.7781894 -0.6280298 0
vn -0.7475638 -0.66419 0
vn -1 0 0
vn -0.7601472 0.6497509 0
vn -0.3090171 0.9510565 0
vn -0.3856603 0.9226409 0

vt 3.984611 1
vt 4.515893 -11.98013
vt 4.515893 1
vt 3.984611 -11.98013
vt 5.047174 -11.98013
vt 5.047174 1
vt 5.578456 -11.98013
vt 5.578456 1
vt 3.45333 1
vt 3.45333 -11.98013
vt 2.922048 1
vt 2.922048 -11.98013
vt 2.390767 1
vt 2.390767 -11.98013
vt 1.859485 1
vt 1.859485 -11.98013
vt 1.328204 1
vt 1.328204 -11.98013
vt 0.7969225 1
vt 0.7969225 -11.98013
vt 0.2656408 1
vt 0.2656408 -11.98013
vt 4.515893 1
vt -1.328204 1
vt 3.984611 1
vt -0.7969221 1
vt 3.984611 1
vt -1.859485 1
vt 3.45333 1
vt -1.328204 1
vt 3.45333 1
vt 2.922048 1
vt 2.922048 1
vt -1.859485 1
vt 2.922048 1
vt 2.390767 1
vt 2.390767 1
vt 2.922048 1
vt 2.390767 1
vt 1.859485 1
vt 1.859485 1
vt 2.390767 1
vt 1.859485 1
vt 1.328204 1
vt 1.328204 1
vt 1.859485 1
vt 1.328204 1
vt 0.7969225 1
vt 0.7969225 1
vt 1.328204 1
vt 0.7969225 1
vt 0.2656408 1
vt 0.2656408 1
vt 0.7969225 1
vt 5.578456 1
vt -0.2656408 1
vt 5.047174 1
vt 0.2656408 1
vt 5.047174 1
vt -0.7969221 1
vt 4.515893 1
vt -0.2656408 1
vt 3.984611 -11.98013
vt 4.515893 -11.98013
vt 4.515893 -11.98013
vt 9.297426 -11.98013
vt 4.515893 -11.98013
vt 5.047174 -11.98013
vt 5.047174 -11.98013
vt 4.515893 -11.98013
vt 5.047174 -11.98013
vt 5.578456 -11.98013
vt 5.578456 -11.98013
vt 5.047174 -11.98013
vt 0.2656408 -11.98013
vt 6.109737 -11.98013
vt 0.7969225 -11.98013
vt 5.578456 -11.98013
vt 0.7969225 -11.98013
vt 6.641018 -11.98013
vt 1.328204 -11.98013
vt 6.109737 -11.98013
vt 1.328204 -11.98013
vt 7.1723 -11.98013
vt 1.859485 -11.98013
vt 6.641018 -11.98013
vt 1.859485 -11.98013
vt 7.703582 -11.98013
vt 2.390767 -11.98013
vt 7.1723 -11.98013
vt 2.390767 -11.98013
vt 8.234862 -11.98013
vt 2.922048 -11.98013
vt 7.703582 -11.98013
vt 2.922048 -11.98013
vt 8.766145 -11.98013
vt 3.45333 -11.98013
vt 8.234862 -11.98013
vt 3.45333 -11.98013
vt 9.297426 -11.98013
vt 3.984611 -11.98013
vt 8.766145 -11.98013
vt 2.390767 1
vt 7.1723 -11.98013
vt 1.859485 1
vt 7.703582 -11.98013
vt 6.641018 -11.98013
vt 1.328204 1
vt 6.109737 -11.98013
vt 0.7969225 1
vt 5.578456 -11.98013
vt 0.2656408 1
vt 5.047174 -11.98013
vt -0.2656408 1
vt 4.515893 -11.98013
vt -0.7969221 1
vt 2.922048 1
vt 8.234862 -11.98013
vt 9.297426 -11.98013
vt -1.328204 1
vt 8.766145 -11.98013
vt -1.859485 1
vt -0.7969221 1
vt 4.515893 -11.98013
vt 9.297426 -11.98013
vt -1.859485 1
vt 8.234862 -11.98013
vt 2.922048 1

g Cinamon.obj
usemtl Cinamon
usemap Cinamon
f 1/1/1 3/3/3 2/2/2
f 1/1/1 2/2/2 4/4/4
f 3/3/3 5/5/5 2/2/2
f 3/3/3 6/6/6 5/5/5
f 6/6/6 7/7/7 5/5/5
f 6/6/6 8/8/8 7/7/7
f 9/9/9 1/1/1 4/4/4
f 9/9/9 4/4/4 10/10/10
f 11/11/11 9/9/9 10/10/10
f 11/11/11 10/10/10 12/12/12
f 13/13/13 11/11/11 12/12/12
f 13/13/13 12/12/12 14/14/14
f 15/15/15 13/13/13 14/14/14
f 15/15/15 14/14/14 16/16/16
f 17/17/17 15/15/15 16/16/16
f 17/17/17 16/16/16 18/18/18
f 19/19/19 17/17/17 18/18/18
f 19/19/19 18/18/18 20/20/20
f 21/21/21 19/19/19 20/20/20
f 21/21/21 20/20/20 22/22/22
f 23/23/23 25/25/25 24/24/24
f 23/23/23 24/24/24 26/26/26
f 27/27/27 29/29/29 28/28/28
f 27/27/27 28/28/28 30/30/30
f 31/31/31 33/33/33 32/32/32
f 31/31/31 32/32/32 34/34/34
f 35/35/35 37/37/37 36/36/36
f 35/35/35 36/36/36 38/38/38
f 39/39/39 41/41/41 40/40/40
f 39/39/39 40/40/40 42/42/42
f 43/43/43 45/45/45 44/44/44
f 43/43/43 44/44/44 46/46/46
f 47/47/47 49/49/49 48/48/48
f 47/47/47 48/48/48 50/50/50
f 51/51/51 53/53/53 52/52/52
f 51/51/51 52/52/52 54/54/54
f 55/55/55 57/57/57 56/56/56
f 55/55/55 56/56/56 58/58/58
f 59/59/59 61/61/61 60/60/60
f 59/59/59 60/60/60 62/62/62
f 63/63/63 65/65/65 64/64/64
f 63/63/63 64/64/64 66/66/66
f 67/67/67 69/69/69 68/68/68
f 67/67/67 68/68/68 70/70/70
f 71/71/71 73/73/73 72/72/72
f 71/71/71 72/72/72 74/74/74
f 75/75/75 77/77/77 76/76/76
f 75/75/75 76/76/76 78/78/78
f 79/79/79 81/81/81 80/80/80
f 79/79/79 80/80/80 82/82/82
f 83/83/83 85/85/85 84/84/84
f 83/83/83 84/84/84 86/86/86
f 87/87/87 89/89/89 88/88/88
f 87/87/87 88/88/88 90/90/90
f 91/91/91 93/93/93 92/92/92
f 91/91/91 92/92/92 94/94/94
f 95/95/95 97/97/97 96/96/96
f 95/95/95 96/96/96 98/98/98
f 99/99/99 101/101/101 100/100/100
f 99/99/99 100/100/100 102/102/102
f 103/103/103 105/105/105 104/104/104
f 103/103/103 104/104/104 106/106/106
f 105/105/105 107/107/107 104/104/104
f 105/105/105 108/108/108 107/107/107
f 108/108/108 109/109/109 107/107/107
f 108/108/108 110/110/110 109/109/109
f 110/110/110 111/111/111 109/109/109
f 110/110/110 112/112/112 111/111/111
f 112/112/112 113/113/113 111/111/111
f 112/112/112 114/114/114 113/113/113
f 114/114/114 115/115/115 113/113/113
f 114/114/114 116/116/116 115/115/115
f 117/117/117 103/103/103 106/106/106
f 117/117/117 106/106/106 118/118/118
f 116/116/116 120/120/120 119/119/119
f 120/120/120 121/121/121 119/119/119
f 120/120/120 122/122/122 121/121/121
f 122/122/122 118/118/118 121/121/121
f 123/123/123 125/125/125 124/124/124
f 126/126/126 128/128/128 127/127/127
