#Complaints Black Thingie.obj

v 0.8718071 6.056736 5.574185
v 0.8718071 -6.056736 0
v 0.8718071 -6.056736 5.574185
v 0.8718071 6.056736 0
v 0.8718069 4.651748 9.155219
v 0.8718069 -4.651748 9.155219
v 0.8718069 2.24187 10.37504
v 0.8718069 -2.24187 10.37504

vn 1 0 0
vn 1 0 0
vn 1 0 0
vn 1 0 0
vn 1 0 0
vn 1 0 0
vn 1 0 0
vn 1 0 0

vt 12.11347 -4.574185
vt 0 1
vt 0 -4.574185
vt 12.11347 1
vt 12.11347 -4.574185
vt 0 -4.574185
vt 12.11347 -4.574185
vt 0 -4.574185

g Complaints Black Thingie.obj
usemtl Complaints Black Thingie
usemap Complaints Black Thingie
f 1/1/1 3/3/3 2/2/2
f 1/1/1 2/2/2 4/4/4
f 3/3/3 1/1/1 5/5/5
f 3/3/3 5/5/5 6/6/6
f 6/6/6 5/5/5 7/7/7
f 6/6/6 7/7/7 8/8/8
