#Cylinder001.obj

v 125.6925 0 124.7079
v 114.8258 51.12376 124.7079
v 125.6925 0 0
v 114.8258 51.12376 0
v 84.10471 93.40776 124.7079
v 84.10471 93.40776 0
v 38.84113 119.5407 124.7079
v 38.84113 119.5407 0
v -13.13845 125.004 124.7079
v -13.13845 125.004 0
v 114.8259 -51.12374 0
v 114.8259 -51.12374 124.7079
v 84.10474 -93.40775 0
v 84.10474 -93.40775 124.7079
v 38.84114 -119.5407 0
v 38.84114 -119.5407 124.7079
v -13.13843 -125.004 0
v -13.13843 -125.004 124.7079
v -62.84626 -108.8529 0
v -62.84626 -108.8529 124.7079
v -101.6874 -73.88023 0
v -101.6874 -73.88023 124.7079
v -122.9458 -26.13296 0
v -122.9458 -26.13296 124.7079
v -122.9459 26.13294 0
v -122.9459 26.13294 124.7079
v -101.6874 73.88021 0
v -101.6874 73.88021 124.7079
v -62.84628 108.8529 0
v -62.84628 108.8529 124.7079
v -13.13845 125.004 0
v -13.13845 125.004 124.7079
v -122.9458 -26.13296 124.7079
v 84.10471 93.40776 124.7079
v 84.10474 -93.40775 124.7079
v 125.6925 0 124.7079
v 114.8258 51.12376 124.7079
v -122.9459 26.13294 124.7079
v -62.84628 108.8529 124.7079
v -13.13845 125.004 124.7079
v 38.84113 119.5407 124.7079
v -101.6874 73.88021 124.7079
v -62.84626 -108.8529 124.7079
v -101.6874 -73.88023 124.7079
v -13.13843 -125.004 124.7079
v 38.84114 -119.5407 124.7079
v 114.8259 -51.12374 124.7079
v 351.255 -216.7271 142.5282
v 340.3883 -165.6033 142.5282
v 351.255 -216.7271 17.82031
v 340.3883 -165.6033 17.82031
v 309.6672 -123.3193 142.5282
v 309.6672 -123.3193 17.82031
v 264.4036 -97.18634 142.5282
v 264.4036 -97.18634 17.82031
v 212.424 -91.72307 142.5282
v 212.424 -91.72307 17.82031
v 340.3884 -267.8508 17.82031
v 340.3884 -267.8508 142.5282
v 309.6672 -310.1348 17.82031
v 309.6672 -310.1348 142.5282
v 264.4037 -336.2678 17.82031
v 264.4037 -336.2678 142.5282
v 212.4241 -341.731 17.82031
v 212.4241 -341.731 142.5282
v 162.7162 -325.58 17.82031
v 162.7162 -325.58 142.5282
v 123.8751 -290.6073 17.82031
v 123.8751 -290.6073 142.5282
v 102.6167 -242.86 17.82031
v 102.6167 -242.86 142.5282
v 102.6166 -190.5941 17.82031
v 102.6166 -190.5941 142.5282
v 123.8751 -142.8468 17.82031
v 123.8751 -142.8468 142.5282
v 162.7162 -107.8741 17.82031
v 162.7162 -107.8741 142.5282
v 212.424 -91.72307 17.82031
v 212.424 -91.72307 142.5282
v 212.4241 -341.731 142.5282
v 102.6167 -242.86 142.5282
v 102.6166 -190.5941 142.5282
v 309.6672 -123.3193 142.5282
v 340.3883 -165.6033 142.5282
v 212.424 -91.72307 142.5282
v 162.7162 -107.8741 142.5282
v 264.4036 -97.18634 142.5282
v 123.8751 -142.8468 142.5282
v 162.7162 -325.58 142.5282
v 123.8751 -290.6073 142.5282
v 309.6672 -310.1348 142.5282
v 351.255 -216.7271 142.5282
v 264.4037 -336.2678 142.5282
v 340.3884 -267.8508 142.5282
v 574.047 -440.0845 160.9149
v 563.1804 -388.9607 160.9149
v 574.047 -440.0845 36.20703
v 563.1804 -388.9607 36.20703
v 532.4592 -346.6767 160.9149
v 532.4592 -346.6767 36.20703
v 487.1956 -320.5438 160.9149
v 487.1956 -320.5438 36.20703
v 435.216 -315.0805 160.9149
v 435.216 -315.0805 36.20703
v 563.1804 -491.2082 36.20703
v 563.1804 -491.2082 160.9149
v 532.4592 -533.4922 36.20703
v 532.4592 -533.4922 160.9149
v 487.1956 -559.6252 36.20703
v 487.1956 -559.6252 160.9149
v 435.2161 -565.0884 36.20703
v 435.2161 -565.0884 160.9149
v 385.5082 -548.9374 36.20703
v 385.5082 -548.9374 160.9149
v 346.6671 -513.9647 36.20703
v 346.6671 -513.9647 160.9149
v 325.4086 -466.2174 36.20703
v 325.4086 -466.2174 160.9149
v 325.4086 -413.9515 36.20703
v 325.4086 -413.9515 160.9149
v 346.6671 -366.2043 36.20703
v 346.6671 -366.2043 160.9149
v 385.5082 -331.2315 36.20703
v 385.5082 -331.2315 160.9149
v 435.216 -315.0805 36.20703
v 435.216 -315.0805 160.9149
v 435.216 -315.0805 160.9149
v 385.5082 -548.9374 160.9149
v 325.4086 -413.9515 160.9149
v 574.047 -440.0845 160.9149
v 487.1956 -320.5438 160.9149
v 532.4592 -346.6767 160.9149
v 563.1804 -388.9607 160.9149
v 346.6671 -366.2043 160.9149
v 385.5082 -331.2315 160.9149
v 325.4086 -466.2174 160.9149
v 346.6671 -513.9647 160.9149
v 532.4592 -533.4922 160.9149
v 435.2161 -565.0884 160.9149
v 487.1956 -559.6252 160.9149
v 563.1804 -491.2082 160.9149
v 818.9025 -658.7749 178.8563
v 808.0358 -607.6511 178.8563
v 818.9025 -658.7749 54.14844
v 808.0358 -607.6511 54.14844
v 777.3147 -565.3671 178.8563
v 777.3147 -565.3671 54.14844
v 732.0511 -539.2342 178.8563
v 732.0511 -539.2342 54.14844
v 680.0715 -533.7709 178.8563
v 680.0715 -533.7709 54.14844
v 808.0358 -709.8986 54.14844
v 808.0358 -709.8986 178.8563
v 777.3147 -752.1826 54.14844
v 777.3147 -752.1826 178.8563
v 732.0511 -778.3156 54.14844
v 732.0511 -778.3156 178.8563
v 680.0715 -783.7789 54.14844
v 680.0715 -783.7789 178.8563
v 630.3637 -767.6278 54.14844
v 630.3637 -767.6278 178.8563
v 591.5226 -732.6552 54.14844
v 591.5226 -732.6552 178.8563
v 570.2641 -684.9078 54.14844
v 570.2641 -684.9078 178.8563
v 570.2641 -632.642 54.14844
v 570.2641 -632.642 178.8563
v 591.5226 -584.8947 54.14844
v 591.5226 -584.8947 178.8563
v 630.3637 -549.922 54.14844
v 630.3637 -549.922 178.8563
v 680.0715 -533.7709 54.14844
v 680.0715 -533.7709 178.8563
v 818.9025 -658.7749 178.8563
v 630.3637 -767.6278 178.8563
v 591.5226 -584.8947 178.8563
v 630.3637 -549.922 178.8563
v 680.0715 -533.7709 178.8563
v 732.0511 -539.2342 178.8563
v 777.3147 -565.3671 178.8563
v 808.0358 -607.6511 178.8563
v 570.2641 -684.9078 178.8563
v 570.2641 -632.642 178.8563
v 591.5226 -732.6552 178.8563
v 777.3147 -752.1826 178.8563
v 680.0715 -783.7789 178.8563
v 732.0511 -778.3156 178.8563
v 808.0358 -709.8986 178.8563

vn 1 0 0
vn 0.9135454 0.4067367 0
vn 1 0 0
vn 0.9135454 0.4067367 0
vn 0.6691306 0.7431448 0
vn 0.6691306 0.7431448 0
vn 0.3090171 0.9510565 0
vn 0.3090171 0.9510565 0
vn -0.1045285 0.9945219 0
vn -0.1045285 0.9945219 0
vn 0.9135455 -0.4067365 0
vn 0.9135455 -0.4067365 0
vn 0.6691307 -0.7431448 0
vn 0.6691307 -0.7431448 0
vn 0.3090172 -0.9510565 0
vn 0.3090172 -0.9510565 0
vn -0.1045284 -0.9945219 0
vn -0.1045284 -0.9945219 0
vn -0.5 -0.8660254 0
vn -0.5 -0.8660254 0
vn -0.809017 -0.5877853 0
vn -0.809017 -0.5877853 0
vn -0.9781476 -0.2079117 0
vn -0.9781476 -0.2079117 0
vn -0.9781477 0.2079115 0
vn -0.9781477 0.2079115 0
vn -0.8090171 0.5877851 0
vn -0.8090171 0.5877851 0
vn -0.5000001 0.8660253 0
vn -0.5000001 0.8660253 0
vn -0.1045285 0.9945219 0
vn -0.1045285 0.9945219 0
vn 0 0 1
vn 0 0 1
vn 0 0 1
vn 0 0 1
vn 0 0 1
vn 0 0 1
vn 0 0 1
vn 0 0 1
vn 0 0 1
vn 0 0 1
vn 0 0 1
vn 0 0 1
vn 0 0 1
vn 0 0 1
vn 0 0 1
vn 1 0 0
vn 0.9135454 0.4067368 0
vn 1 0 0
vn 0.9135454 0.4067368 0
vn 0.6691306 0.7431448 0
vn 0.6691306 0.7431448 0
vn 0.3090171 0.9510565 0
vn 0.3090171 0.9510565 0
vn -0.1045285 0.9945219 0
vn -0.1045285 0.9945219 0
vn 0.9135455 -0.4067365 0
vn 0.9135455 -0.4067365 0
vn 0.6691307 -0.7431448 0
vn 0.6691307 -0.7431448 0
vn 0.3090171 -0.9510565 0
vn 0.3090171 -0.9510565 0
vn -0.1045284 -0.9945219 0
vn -0.1045284 -0.9945219 0
vn -0.4999996 -0.8660256 0
vn -0.4999996 -0.8660256 0
vn -0.8090169 -0.5877854 0
vn -0.8090169 -0.5877854 0
vn -0.9781476 -0.2079117 0
vn -0.9781476 -0.2079117 0
vn -0.9781477 0.2079115 0
vn -0.9781477 0.2079115 0
vn -0.8090171 0.5877851 0
vn -0.8090171 0.5877851 0
vn -0.5000001 0.8660253 0
vn -0.5000001 0.8660253 0
vn -0.1045285 0.9945219 0
vn -0.1045285 0.9945219 0
vn 0 0 1
vn 0 0 1
vn 0 0 1
vn 0 0 1
vn 0 0 1
vn 0 0 1
vn 0 0 1
vn 0 0 1
vn 0 0 1
vn 0 0 1
vn 0 0 1
vn 0 0 1
vn 0 0 1
vn 0 0 1
vn 0 0 1
vn 1 0 0
vn 0.9135457 0.4067362 0
vn 1 0 0
vn 0.9135457 0.4067362 0
vn 0.6691306 0.7431449 0
vn 0.6691306 0.7431449 0
vn 0.3090166 0.9510565 0
vn 0.3090166 0.9510565 0
vn -0.1045284 0.9945219 0
vn -0.1045284 0.9945219 0
vn 0.9135455 -0.4067365 0
vn 0.9135455 -0.4067365 0
vn 0.6691308 -0.7431448 0
vn 0.6691308 -0.7431448 0
vn 0.3090173 -0.9510565 0
vn 0.3090173 -0.9510565 0
vn -0.1045287 -0.9945219 0
vn -0.1045287 -0.9945219 0
vn -0.4999999 -0.8660255 0
vn -0.4999999 -0.8660255 0
vn -0.8090166 -0.5877857 0
vn -0.8090166 -0.5877857 0
vn -0.9781476 -0.2079119 0
vn -0.9781476 -0.2079119 0
vn -0.9781476 0.2079116 0
vn -0.9781476 0.2079116 0
vn -0.8090171 0.5877852 0
vn -0.8090171 0.5877852 0
vn -0.5 0.8660254 0
vn -0.5 0.8660254 0
vn -0.1045284 0.9945219 0
vn -0.1045284 0.9945219 0
vn 0 0 1
vn 0 0 1
vn 0 0 1
vn 0 0 1
vn 0 0 1
vn 0 0 1
vn 0 0 1
vn 0 0 1
vn 0 0 1
vn 0 0 1
vn 0 0 1
vn 0 0 1
vn 0 0 1
vn 0 0 1
vn 0 0 1
vn 1 0 0
vn 0.9135456 0.4067362 0
vn 1 0 0
vn 0.9135456 0.4067362 0
vn 0.6691304 0.743145 0
vn 0.6691304 0.743145 0
vn 0.3090167 0.9510565 0
vn 0.3090167 0.9510565 0
vn -0.1045287 0.9945219 0
vn -0.1045287 0.9945219 0
vn 0.9135456 -0.4067363 0
vn 0.9135456 -0.4067363 0
vn 0.6691307 -0.7431446 0
vn 0.6691307 -0.7431446 0
vn 0.3090172 -0.9510565 0
vn 0.3090172 -0.9510565 0
vn -0.1045287 -0.9945219 0
vn -0.1045287 -0.9945219 0
vn -0.4999999 -0.8660255 0
vn -0.4999999 -0.8660255 0
vn -0.8090168 -0.5877855 0
vn -0.8090168 -0.5877855 0
vn -0.9781476 -0.2079118 0
vn -0.9781476 -0.2079118 0
vn -0.9781476 0.207912 0
vn -0.9781476 0.207912 0
vn -0.8090169 0.5877854 0
vn -0.8090169 0.5877854 0
vn -0.5000002 0.8660253 0
vn -0.5000002 0.8660253 0
vn -0.1045287 0.9945219 0
vn -0.1045287 0.9945219 0
vn 0 0 1
vn 0 0 1
vn 0 0 1
vn 0 0 1
vn 0 0 1
vn 0 0 1
vn 0 0 1
vn 0 0 1
vn 0 0 1
vn 0 0 1
vn 0 0 1
vn 0 0 1
vn 0 0 1
vn 0 0 1
vn 0 0 1

vt 592.3121 -123.7079
vt 644.9621 -123.7079
vt 592.3121 1
vt 644.9621 1
vt 697.6121 -123.7079
vt 697.6121 1
vt 750.2621 -123.7079
vt 750.2621 1
vt 802.912 -123.7079
vt 802.912 1
vt 539.6622 1
vt 539.6622 -123.7079
vt 487.0122 1
vt 487.0122 -123.7079
vt 434.3622 1
vt 434.3622 -123.7079
vt 381.7123 1
vt 381.7123 -123.7079
vt 329.0623 1
vt 329.0623 -123.7079
vt 276.4124 1
vt 276.4124 -123.7079
vt 223.7624 1
vt 223.7624 -123.7079
vt 171.1124 1
vt 171.1124 -123.7079
vt 118.4624 1
vt 118.4624 -123.7079
vt 65.81247 1
vt 65.81247 -123.7079
vt 13.16251 1
vt 13.16251 -123.7079
vt 1013.512 -123.7079
vt 697.6121 -123.7079
vt 1276.762 -123.7079
vt 1382.062 -123.7079
vt 644.9621 -123.7079
vt 960.8619 -123.7079
vt 855.562 -123.7079
vt 802.912 -123.7079
vt 750.2621 -123.7079
vt 908.2119 -123.7079
vt 1118.812 -123.7079
vt 1066.162 -123.7079
vt 1171.462 -123.7079
vt 1224.112 -123.7079
vt 1329.412 -123.7079
vt 592.3121 -123.7079
vt 644.9621 -123.7079
vt 592.3121 1
vt 644.9621 1
vt 697.6121 -123.7079
vt 697.6121 1
vt 750.2621 -123.7079
vt 750.2621 1
vt 802.912 -123.7079
vt 802.912 1
vt 539.6622 1
vt 539.6622 -123.7079
vt 487.0122 1
vt 487.0122 -123.7079
vt 434.3622 1
vt 434.3622 -123.7079
vt 381.7123 1
vt 381.7123 -123.7079
vt 329.0623 1
vt 329.0623 -123.7079
vt 276.4124 1
vt 276.4124 -123.7079
vt 223.7624 1
vt 223.7624 -123.7079
vt 171.1124 1
vt 171.1124 -123.7079
vt 118.4624 1
vt 118.4624 -123.7079
vt 65.81247 1
vt 65.81247 -123.7079
vt 13.16251 1
vt 13.16251 -123.7079
vt 1171.462 -123.7079
vt 1013.512 -123.7079
vt 960.8619 -123.7079
vt 697.6121 -123.7079
vt 644.9621 -123.7079
vt 802.912 -123.7079
vt 855.562 -123.7079
vt 750.2621 -123.7079
vt 908.2119 -123.7079
vt 1118.812 -123.7079
vt 1066.162 -123.7079
vt 1276.762 -123.7079
vt 1382.062 -123.7079
vt 1224.112 -123.7079
vt 1329.412 -123.7079
vt 592.3121 -123.7079
vt 644.9621 -123.7079
vt 592.3121 1
vt 644.9621 1
vt 697.6121 -123.7079
vt 697.6121 1
vt 750.2621 -123.7079
vt 750.2621 1
vt 802.912 -123.7079
vt 802.912 1
vt 539.6622 1
vt 539.6622 -123.7079
vt 487.0122 1
vt 487.0122 -123.7079
vt 434.3622 1
vt 434.3622 -123.7079
vt 381.7123 1
vt 381.7123 -123.7079
vt 329.0623 1
vt 329.0623 -123.7079
vt 276.4124 1
vt 276.4124 -123.7079
vt 223.7624 1
vt 223.7624 -123.7079
vt 171.1124 1
vt 171.1124 -123.7079
vt 118.4624 1
vt 118.4624 -123.7079
vt 65.81247 1
vt 65.81247 -123.7079
vt 13.16251 1
vt 13.16251 -123.7079
vt 802.912 -123.7079
vt 1118.812 -123.7079
vt 960.8619 -123.7079
vt 1382.062 -123.7079
vt 750.2621 -123.7079
vt 697.6121 -123.7079
vt 644.9621 -123.7079
vt 908.2119 -123.7079
vt 855.562 -123.7079
vt 1013.512 -123.7079
vt 1066.162 -123.7079
vt 1276.762 -123.7079
vt 1171.462 -123.7079
vt 1224.112 -123.7079
vt 1329.412 -123.7079
vt 592.3121 -123.7079
vt 644.9621 -123.7079
vt 592.3121 1
vt 644.9621 1
vt 697.6121 -123.7079
vt 697.6121 1
vt 750.2621 -123.7079
vt 750.2621 1
vt 802.912 -123.7079
vt 802.912 1
vt 539.6622 1
vt 539.6622 -123.7079
vt 487.0122 1
vt 487.0122 -123.7079
vt 434.3622 1
vt 434.3622 -123.7079
vt 381.7123 1
vt 381.7123 -123.7079
vt 329.0623 1
vt 329.0623 -123.7079
vt 276.4124 1
vt 276.4124 -123.7079
vt 223.7624 1
vt 223.7624 -123.7079
vt 171.1124 1
vt 171.1124 -123.7079
vt 118.4624 1
vt 118.4624 -123.7079
vt 65.81247 1
vt 65.81247 -123.7079
vt 13.16251 1
vt 13.16251 -123.7079
vt 1382.062 -123.7079
vt 1118.812 -123.7079
vt 908.2119 -123.7079
vt 855.562 -123.7079
vt 802.912 -123.7079
vt 750.2621 -123.7079
vt 697.6121 -123.7079
vt 644.9621 -123.7079
vt 1013.512 -123.7079
vt 960.8619 -123.7079
vt 1066.162 -123.7079
vt 1276.762 -123.7079
vt 1171.462 -123.7079
vt 1224.112 -123.7079
vt 1329.412 -123.7079

g Cylinder001.obj
usemtl Cylinder001
usemap Cylinder001
f 1/1/1 3/3/3 2/2/2
f 2/2/2 3/3/3 4/4/4
f 2/2/2 4/4/4 5/5/5
f 5/5/5 4/4/4 6/6/6
f 5/5/5 6/6/6 7/7/7
f 7/7/7 6/6/6 8/8/8
f 7/7/7 8/8/8 9/9/9
f 9/9/9 8/8/8 10/10/10
f 1/1/1 11/11/11 3/3/3
f 12/12/12 11/11/11 1/1/1
f 12/12/12 13/13/13 11/11/11
f 14/14/14 13/13/13 12/12/12
f 14/14/14 15/15/15 13/13/13
f 16/16/16 15/15/15 14/14/14
f 16/16/16 17/17/17 15/15/15
f 18/18/18 17/17/17 16/16/16
f 18/18/18 19/19/19 17/17/17
f 20/20/20 19/19/19 18/18/18
f 20/20/20 21/21/21 19/19/19
f 22/22/22 21/21/21 20/20/20
f 22/22/22 23/23/23 21/21/21
f 24/24/24 23/23/23 22/22/22
f 24/24/24 25/25/25 23/23/23
f 26/26/26 25/25/25 24/24/24
f 26/26/26 27/27/27 25/25/25
f 28/28/28 27/27/27 26/26/26
f 28/28/28 29/29/29 27/27/27
f 30/30/30 29/29/29 28/28/28
f 30/30/30 31/31/31 29/29/29
f 32/32/32 31/31/31 30/30/30
f 33/33/33 35/35/35 34/34/34
f 34/34/34 35/35/35 36/36/36
f 34/34/34 36/36/36 37/37/37
f 33/33/33 34/34/34 38/38/38
f 39/39/39 38/38/38 34/34/34
f 34/34/34 40/40/40 39/39/39
f 40/40/40 34/34/34 41/41/41
f 38/38/38 39/39/39 42/42/42
f 35/35/35 33/33/33 43/43/43
f 43/43/43 33/33/33 44/44/44
f 45/45/45 35/35/35 43/43/43
f 35/35/35 45/45/45 46/46/46
f 36/36/36 35/35/35 47/47/47
f 48/48/48 50/50/50 49/49/49
f 49/49/49 50/50/50 51/51/51
f 49/49/49 51/51/51 52/52/52
f 52/52/52 51/51/51 53/53/53
f 52/52/52 53/53/53 54/54/54
f 54/54/54 53/53/53 55/55/55
f 54/54/54 55/55/55 56/56/56
f 56/56/56 55/55/55 57/57/57
f 48/48/48 58/58/58 50/50/50
f 59/59/59 58/58/58 48/48/48
f 59/59/59 60/60/60 58/58/58
f 61/61/61 60/60/60 59/59/59
f 61/61/61 62/62/62 60/60/60
f 63/63/63 62/62/62 61/61/61
f 63/63/63 64/64/64 62/62/62
f 65/65/65 64/64/64 63/63/63
f 65/65/65 66/66/66 64/64/64
f 67/67/67 66/66/66 65/65/65
f 67/67/67 68/68/68 66/66/66
f 69/69/69 68/68/68 67/67/67
f 69/69/69 70/70/70 68/68/68
f 71/71/71 70/70/70 69/69/69
f 71/71/71 72/72/72 70/70/70
f 73/73/73 72/72/72 71/71/71
f 73/73/73 74/74/74 72/72/72
f 75/75/75 74/74/74 73/73/73
f 75/75/75 76/76/76 74/74/74
f 77/77/77 76/76/76 75/75/75
f 77/77/77 78/78/78 76/76/76
f 79/79/79 78/78/78 77/77/77
f 80/80/80 82/82/82 81/81/81
f 82/82/82 80/80/80 83/83/83
f 83/83/83 80/80/80 84/84/84
f 85/85/85 82/82/82 83/83/83
f 82/82/82 85/85/85 86/86/86
f 85/85/85 83/83/83 87/87/87
f 82/82/82 86/86/86 88/88/88
f 80/80/80 81/81/81 89/89/89
f 89/89/89 81/81/81 90/90/90
f 91/91/91 84/84/84 80/80/80
f 84/84/84 91/91/91 92/92/92
f 91/91/91 80/80/80 93/93/93
f 92/92/92 91/91/91 94/94/94
f 95/95/95 97/97/97 96/96/96
f 96/96/96 97/97/97 98/98/98
f 96/96/96 98/98/98 99/99/99
f 99/99/99 98/98/98 100/100/100
f 99/99/99 100/100/100 101/101/101
f 101/101/101 100/100/100 102/102/102
f 101/101/101 102/102/102 103/103/103
f 103/103/103 102/102/102 104/104/104
f 95/95/95 105/105/105 97/97/97
f 106/106/106 105/105/105 95/95/95
f 106/106/106 107/107/107 105/105/105
f 108/108/108 107/107/107 106/106/106
f 108/108/108 109/109/109 107/107/107
f 110/110/110 109/109/109 108/108/108
f 110/110/110 111/111/111 109/109/109
f 112/112/112 111/111/111 110/110/110
f 112/112/112 113/113/113 111/111/111
f 114/114/114 113/113/113 112/112/112
f 114/114/114 115/115/115 113/113/113
f 116/116/116 115/115/115 114/114/114
f 116/116/116 117/117/117 115/115/115
f 118/118/118 117/117/117 116/116/116
f 118/118/118 119/119/119 117/117/117
f 120/120/120 119/119/119 118/118/118
f 120/120/120 121/121/121 119/119/119
f 122/122/122 121/121/121 120/120/120
f 122/122/122 123/123/123 121/121/121
f 124/124/124 123/123/123 122/122/122
f 124/124/124 125/125/125 123/123/123
f 126/126/126 125/125/125 124/124/124
f 127/127/127 129/129/129 128/128/128
f 127/127/127 128/128/128 130/130/130
f 127/127/127 130/130/130 131/131/131
f 131/131/131 130/130/130 132/132/132
f 132/132/132 130/130/130 133/133/133
f 129/129/129 127/127/127 134/134/134
f 134/134/134 127/127/127 135/135/135
f 128/128/128 129/129/129 136/136/136
f 128/128/128 136/136/136 137/137/137
f 128/128/128 138/138/138 130/130/130
f 138/138/138 128/128/128 139/139/139
f 138/138/138 139/139/139 140/140/140
f 130/130/130 138/138/138 141/141/141
f 142/142/142 144/144/144 143/143/143
f 143/143/143 144/144/144 145/145/145
f 143/143/143 145/145/145 146/146/146
f 146/146/146 145/145/145 147/147/147
f 146/146/146 147/147/147 148/148/148
f 148/148/148 147/147/147 149/149/149
f 148/148/148 149/149/149 150/150/150
f 150/150/150 149/149/149 151/151/151
f 142/142/142 152/152/152 144/144/144
f 153/153/153 152/152/152 142/142/142
f 153/153/153 154/154/154 152/152/152
f 155/155/155 154/154/154 153/153/153
f 155/155/155 156/156/156 154/154/154
f 157/157/157 156/156/156 155/155/155
f 157/157/157 158/158/158 156/156/156
f 159/159/159 158/158/158 157/157/157
f 159/159/159 160/160/160 158/158/158
f 161/161/161 160/160/160 159/159/159
f 161/161/161 162/162/162 160/160/160
f 163/163/163 162/162/162 161/161/161
f 163/163/163 164/164/164 162/162/162
f 165/165/165 164/164/164 163/163/163
f 165/165/165 166/166/166 164/164/164
f 167/167/167 166/166/166 165/165/165
f 167/167/167 168/168/168 166/166/166
f 169/169/169 168/168/168 167/167/167
f 169/169/169 170/170/170 168/168/168
f 171/171/171 170/170/170 169/169/169
f 171/171/171 172/172/172 170/170/170
f 173/173/173 172/172/172 171/171/171
f 174/174/174 176/176/176 175/175/175
f 176/176/176 174/174/174 177/177/177
f 174/174/174 178/178/178 177/177/177
f 178/178/178 174/174/174 179/179/179
f 179/179/179 174/174/174 180/180/180
f 180/180/180 174/174/174 181/181/181
f 176/176/176 182/182/182 175/175/175
f 182/182/182 176/176/176 183/183/183
f 175/175/175 182/182/182 184/184/184
f 175/175/175 185/185/185 174/174/174
f 185/185/185 175/175/175 186/186/186
f 185/185/185 186/186/186 187/187/187
f 174/174/174 185/185/185 188/188/188
