#Cylinder007.obj

v 0.7628342 0 1.898582
v 0.2357287 0.7254984 1.898582
v 0.7628342 0 0
v 0.2357287 0.7254984 0
v -0.6171459 0.4483826 1.898582
v -0.6171459 0.4483826 0
v 0.2357288 -0.7254984 0
v 0.2357288 -0.7254984 1.898582
v -0.6171458 -0.4483828 0
v -0.6171458 -0.4483828 1.898582
v -0.6171459 0.4483826 0
v -0.6171459 0.4483826 1.898582
v 0.7628342 0 -16.17426
v 0.2357287 0.7254984 -16.17426
v 0.7628342 0 -18.07284
v 0.2357287 0.7254984 -18.07284
v -0.6171459 0.4483826 -16.17426
v -0.6171459 0.4483826 -18.07284
v 0.2357288 -0.7254984 -18.07284
v 0.2357288 -0.7254984 -16.17426
v -0.6171458 -0.4483828 -18.07284
v -0.6171458 -0.4483828 -16.17426
v -0.6171459 0.4483826 -18.07284
v -0.6171459 0.4483826 -16.17426

vn 1 0 0
vn 0.309017 0.9510565 0
vn 1 0 0
vn 0.309017 0.9510565 0
vn -0.8090171 0.5877852 0
vn -0.8090171 0.5877852 0
vn 0.3090171 -0.9510565 0
vn 0.3090171 -0.9510565 0
vn -0.8090169 -0.5877854 0
vn -0.8090169 -0.5877854 0
vn -0.8090171 0.5877852 0
vn -0.8090171 0.5877852 0
vn 1 0 0
vn 0.309017 0.9510565 0
vn 1 0 0
vn 0.309017 0.9510565 0
vn -0.8090171 0.5877852 0
vn -0.8090171 0.5877852 0
vn 0.3090171 -0.9510565 0
vn 0.3090171 -0.9510565 0
vn -0.8090169 -0.5877854 0
vn -0.8090169 -0.5877854 0
vn -0.8090171 0.5877852 0
vn -0.8090171 0.5877852 0

vt 3.594772 -0.8985825
vt 4.553377 -0.8985825
vt 3.594772 1
vt 4.553377 1
vt 5.511983 -0.8985825
vt 5.511983 1
vt 2.636166 1
vt 2.636166 -0.8985825
vt 1.67756 1
vt 1.67756 -0.8985825
vt 0.7189544 1
vt 0.7189544 -0.8985825
vt 3.594772 -0.8985825
vt 4.553377 -0.8985825
vt 3.594772 1
vt 4.553377 1
vt 5.511983 -0.8985825
vt 5.511983 1
vt 2.636166 1
vt 2.636166 -0.8985825
vt 1.67756 1
vt 1.67756 -0.8985825
vt 0.7189544 1
vt 0.7189544 -0.8985825

g Cylinder007.obj
usemtl Cylinder007
usemap Cylinder007
f 1/1/1 3/3/3 2/2/2
f 2/2/2 3/3/3 4/4/4
f 2/2/2 4/4/4 5/5/5
f 5/5/5 4/4/4 6/6/6
f 1/1/1 7/7/7 3/3/3
f 8/8/8 7/7/7 1/1/1
f 8/8/8 9/9/9 7/7/7
f 10/10/10 9/9/9 8/8/8
f 10/10/10 11/11/11 9/9/9
f 12/12/12 11/11/11 10/10/10
f 13/13/13 15/15/15 14/14/14
f 14/14/14 15/15/15 16/16/16
f 14/14/14 16/16/16 17/17/17
f 17/17/17 16/16/16 18/18/18
f 13/13/13 19/19/19 15/15/15
f 20/20/20 19/19/19 13/13/13
f 20/20/20 21/21/21 19/19/19
f 22/22/22 21/21/21 20/20/20
f 22/22/22 23/23/23 21/21/21
f 24/24/24 23/23/23 22/22/22
