#Cylinder002.obj

v 0.6081622 0 0
v 0.5714855 0.2080037 45.83414
v 0.5714855 0.2080037 0
v 0.6081622 0 45.83414
v 0.4658792 0.3909191 45.83414
v 0.4658792 0.3909191 0
v 0.3040811 0.5266839 45.83414
v 0.3040811 0.5266839 0
v 0.1056062 0.5989228 45.83414
v 0.1056062 0.5989228 0
v -0.1056063 0.5989228 45.83414
v -0.1056063 0.5989228 0
v 0.5714853 -0.2080041 0
v 0.5714853 -0.2080041 45.83414
v 0.465879 -0.3909194 0
v 0.465879 -0.3909194 45.83414
v 0.3040808 -0.526684 0
v 0.3040808 -0.526684 45.83414
v 0.105606 -0.5989228 0
v 0.105606 -0.5989228 45.83414
v -0.1056065 -0.5989228 0
v -0.1056065 -0.5989228 45.83414
v -0.3040813 -0.5266837 0
v -0.3040813 -0.5266837 45.83414
v -0.4658794 -0.390919 0
v -0.4658794 -0.390919 45.83414
v -0.5714855 -0.2080036 0
v -0.5714855 -0.2080036 45.83414
v -0.6081622 9.182993E-08 0
v -0.6081622 9.182993E-08 45.83414
v -0.5714855 0.2080038 0
v -0.5714855 0.2080038 45.83414
v -0.4658792 0.3909191 0
v -0.4658792 0.3909191 45.83414
v -0.3040811 0.5266839 0
v -0.3040811 0.5266839 45.83414
v -0.1056063 0.5989228 0
v -0.1056063 0.5989228 45.83414
v 0.5714853 -0.2080041 0
v 0.6081622 0 0
v 0.5714855 0.2080037 0
v 0.4658792 0.3909191 0
v 0.465879 -0.3909194 0
v 0.3040811 0.5266839 0
v 0.3040808 -0.526684 0
v 0.1056062 0.5989228 0
v 0.105606 -0.5989228 0
v -0.1056063 0.5989228 0
v -0.1056065 -0.5989228 0
v -0.3040811 0.5266839 0
v -0.3040813 -0.5266837 0
v -0.4658792 0.3909191 0
v -0.4658794 -0.390919 0
v -0.5714855 0.2080038 0
v -0.5714855 -0.2080036 0
v -0.6081622 9.182993E-08 0
v 0.5714855 0.2080037 45.83414
v 0.6081622 0 45.83414
v 0.5714853 -0.2080041 45.83414
v 0.4658792 0.3909191 45.83414
v 0.465879 -0.3909194 45.83414
v 0.3040811 0.5266839 45.83414
v 0.3040808 -0.526684 45.83414
v 0.1056062 0.5989228 45.83414
v 0.105606 -0.5989228 45.83414
v -0.1056063 0.5989228 45.83414
v -0.1056065 -0.5989228 45.83414
v -0.3040811 0.5266839 45.83414
v -0.3040813 -0.5266837 45.83414
v -0.4658792 0.3909191 45.83414
v -0.4658794 -0.390919 45.83414
v -0.5714855 0.2080038 45.83414
v -0.5714855 -0.2080036 45.83414
v -0.6081622 9.182993E-08 45.83414

vn 1 0 0
vn 0.9396926 0.3420202 0
vn 0.9396926 0.3420202 0
vn 1 0 0
vn 0.7660444 0.6427876 0
vn 0.7660444 0.6427876 0
vn 0.5000001 0.8660253 0
vn 0.5000001 0.8660253 0
vn 0.173648 0.9848077 0
vn 0.173648 0.9848077 0
vn -0.1736483 0.9848077 0
vn -0.1736483 0.9848077 0
vn 0.9396924 -0.3420206 0
vn 0.9396924 -0.3420206 0
vn 0.766044 -0.6427881 0
vn 0.766044 -0.6427881 0
vn 0.4999994 -0.8660258 0
vn 0.4999994 -0.8660258 0
vn 0.1736478 -0.9848078 0
vn 0.1736478 -0.9848078 0
vn -0.1736486 -0.9848077 0
vn -0.1736486 -0.9848077 0
vn -0.5000004 -0.8660253 0
vn -0.5000004 -0.8660253 0
vn -0.7660447 -0.6427874 0
vn -0.7660447 -0.6427874 0
vn -0.9396926 -0.3420199 0
vn -0.9396926 -0.3420199 0
vn -1 0 0
vn -1 0 0
vn -0.9396926 0.3420202 0
vn -0.9396926 0.3420202 0
vn -0.7660444 0.6427878 0
vn -0.7660444 0.6427878 0
vn -0.5 0.8660254 0
vn -0.5 0.8660254 0
vn -0.1736483 0.9848077 0
vn -0.1736483 0.9848077 0
vn 0 0 -1
vn 0 0 -1
vn 0 0 -1
vn 0 0 -1
vn 0 0 -1
vn 0 0 -1
vn 0 0 -1
vn 0 0 -1
vn 0 0 -1
vn 0 0 -1
vn 0 0 -1
vn 0 0 -1
vn 0 0 -1
vn 0 0 -1
vn 0 0 -1
vn 0 0 -1
vn 0 0 -1
vn 0 0 -1
vn 0 0 1
vn 0 0 1
vn 0 0 1
vn 0 0 1
vn 0 0 1
vn 0 0 1
vn 0 0 1
vn 0 0 1
vn 0 0 1
vn 0 0 1
vn 0 0 1
vn 0 0 1
vn 0 0 1
vn 0 0 1
vn 0 0 1
vn 0 0 1
vn 0 0 1
vn 0 0 1

vt 2.865897 1
vt 3.078185 -44.83414
vt 3.078185 1
vt 2.865897 -44.83414
vt 3.290474 -44.83414
vt 3.290474 1
vt 3.502763 -44.83414
vt 3.502763 1
vt 3.715051 -44.83414
vt 3.715051 1
vt 3.92734 -44.83414
vt 3.92734 1
vt 2.653608 1
vt 2.653608 -44.83414
vt 2.441319 1
vt 2.441319 -44.83414
vt 2.22903 1
vt 2.22903 -44.83414
vt 2.016742 1
vt 2.016742 -44.83414
vt 1.804453 1
vt 1.804453 -44.83414
vt 1.592165 1
vt 1.592165 -44.83414
vt 1.379876 1
vt 1.379876 -44.83414
vt 1.167588 1
vt 1.167588 -44.83414
vt 0.9552988 1
vt 0.9552988 -44.83414
vt 0.7430102 1
vt 0.7430102 -44.83414
vt 0.5307217 1
vt 0.5307217 -44.83414
vt 0.318433 1
vt 0.318433 -44.83414
vt 0.1061444 1
vt 0.1061444 -44.83414
vt -1.167588 1
vt -0.9552989 1
vt -0.7430104 1
vt -0.5307218 1
vt 2.441319 1
vt -0.3184329 1
vt 2.22903 1
vt -0.1061444 1
vt 2.016742 1
vt 0.1061444 1
vt 1.804453 1
vt 0.318433 1
vt 1.592165 1
vt 0.5307217 1
vt 1.379876 1
vt 0.7430102 1
vt 1.167588 1
vt 0.9552988 1
vt 3.078185 -44.83414
vt 6.687092 -44.83414
vt 6.474803 -44.83414
vt 3.290474 -44.83414
vt 6.262515 -44.83414
vt 3.502763 -44.83414
vt 6.050226 -44.83414
vt 3.715051 -44.83414
vt 5.837937 -44.83414
vt 3.92734 -44.83414
vt 5.625648 -44.83414
vt 4.139629 -44.83414
vt 5.41336 -44.83414
vt 4.351917 -44.83414
vt 5.201072 -44.83414
vt 4.564206 -44.83414
vt 4.988783 -44.83414
vt 4.776495 -44.83414

g Cylinder002.obj
usemtl Cylinder002
usemap Cylinder002
f 1/1/1 3/3/3 2/2/2
f 1/1/1 2/2/2 4/4/4
f 3/3/3 5/5/5 2/2/2
f 3/3/3 6/6/6 5/5/5
f 6/6/6 7/7/7 5/5/5
f 6/6/6 8/8/8 7/7/7
f 8/8/8 9/9/9 7/7/7
f 8/8/8 10/10/10 9/9/9
f 10/10/10 11/11/11 9/9/9
f 10/10/10 12/12/12 11/11/11
f 13/13/13 1/1/1 4/4/4
f 13/13/13 4/4/4 14/14/14
f 15/15/15 13/13/13 14/14/14
f 15/15/15 14/14/14 16/16/16
f 17/17/17 15/15/15 16/16/16
f 17/17/17 16/16/16 18/18/18
f 19/19/19 17/17/17 18/18/18
f 19/19/19 18/18/18 20/20/20
f 21/21/21 19/19/19 20/20/20
f 21/21/21 20/20/20 22/22/22
f 23/23/23 21/21/21 22/22/22
f 23/23/23 22/22/22 24/24/24
f 25/25/25 23/23/23 24/24/24
f 25/25/25 24/24/24 26/26/26
f 27/27/27 25/25/25 26/26/26
f 27/27/27 26/26/26 28/28/28
f 29/29/29 27/27/27 28/28/28
f 29/29/29 28/28/28 30/30/30
f 31/31/31 29/29/29 30/30/30
f 31/31/31 30/30/30 32/32/32
f 33/33/33 31/31/31 32/32/32
f 33/33/33 32/32/32 34/34/34
f 35/35/35 33/33/33 34/34/34
f 35/35/35 34/34/34 36/36/36
f 37/37/37 35/35/35 36/36/36
f 37/37/37 36/36/36 38/38/38
f 39/39/39 41/41/41 40/40/40
f 41/41/41 39/39/39 42/42/42
f 42/42/42 39/39/39 43/43/43
f 42/42/42 43/43/43 44/44/44
f 44/44/44 43/43/43 45/45/45
f 44/44/44 45/45/45 46/46/46
f 46/46/46 45/45/45 47/47/47
f 46/46/46 47/47/47 48/48/48
f 48/48/48 47/47/47 49/49/49
f 48/48/48 49/49/49 50/50/50
f 50/50/50 49/49/49 51/51/51
f 50/50/50 51/51/51 52/52/52
f 52/52/52 51/51/51 53/53/53
f 52/52/52 53/53/53 54/54/54
f 54/54/54 53/53/53 55/55/55
f 54/54/54 55/55/55 56/56/56
f 57/57/57 59/59/59 58/58/58
f 59/59/59 57/57/57 60/60/60
f 59/59/59 60/60/60 61/61/61
f 61/61/61 60/60/60 62/62/62
f 61/61/61 62/62/62 63/63/63
f 63/63/63 62/62/62 64/64/64
f 63/63/63 64/64/64 65/65/65
f 65/65/65 64/64/64 66/66/66
f 65/65/65 66/66/66 67/67/67
f 67/67/67 66/66/66 68/68/68
f 67/67/67 68/68/68 69/69/69
f 69/69/69 68/68/68 70/70/70
f 69/69/69 70/70/70 71/71/71
f 71/71/71 70/70/70 72/72/72
f 71/71/71 72/72/72 73/73/73
f 73/73/73 72/72/72 74/74/74
