#Cylinder002.obj

v 4.060853 -11.37761 2.728824
v 4.060852 -8.259219 2.728824
v 7.026623 -7.295582 2.728824
v 7.026623 -12.34125 2.728824
v 8.85957 -9.818417 2.728824
v 8.621052 -3.222212 2.728824
v 13.18185 -1.063993 2.728824
v 13.57938 -4.156944 2.728824
v 10.76066 -5.490798 2.728824
v 10.11743 -0.4862957 2.728824
v 10.9494 8.654968 2.728824
v 10.97632 3.609371 2.728824
v 8.005455 4.557169 2.728824
v 12.79578 6.141952 2.728824
v 7.988815 7.67552 2.728824
v 5.262295 10.87423 2.728824
v 3.039406 8.687189 2.728824
v 0.2724948 10.12545 2.728824
v 0.7853389 13.20139 2.728824
v 3.869205 13.66416 2.728824
v -4.080935 8.249315 2.728824
v -7.044352 7.278465 2.728824
v -8.88343 9.796833 2.728824
v -7.056628 12.32412 2.728824
v -4.088521 11.3677 2.728824
v -13.74283 3.579741 2.728824
v -10.98295 5.031446 2.728824
v -8.749447 2.855247 2.728824
v -10.12895 0.05857468 2.728824
v -13.21503 0.5063372 2.728824
v -7.882271 -4.815475 2.728824
v -7.604511 -7.921476 2.728824
v -10.47266 -9.145449 2.728824
v -10.92209 -4.119834 2.728824
v -12.52304 -6.795905 2.728824
v -2.669812 -8.807797 2.728824
v 0.1553726 -10.12792 2.728824
v -0.2271085 -13.22277 2.728824
v -3.288679 -13.81537 2.728824
v -4.798353 -11.08677 2.728824

vn 0 0 1
vn 0 0 1
vn 0 0 1
vn 0 0 1
vn 0 0 1
vn 0 0 1
vn 0 0 1
vn 0 0 1
vn 0 0 1
vn 0 0 1
vn 0 0 1
vn 0 0 1
vn 0 0 1
vn 0 0 1
vn 0 0 1
vn 0 0 1
vn 0 0 1
vn 0 0 1
vn 0 0 1
vn 0 0 1
vn 0 0 1
vn 0 0 1
vn 0 0 1
vn 0 0 1
vn 0 0 1
vn 0 0 1
vn 0 0 1
vn 0 0 1
vn 0 0 1
vn 0 0 1
vn 0 0 1
vn 0 0 1
vn 0 0 1
vn 0 0 1
vn 0 0 1
vn 0 0 1
vn 0 0 1
vn 0 0 1
vn 0 0 1
vn 0 0 1

vt 22.50071 0.2179453
vt 19.16727 0.2179453
vt 15.83383 0.2179453
vt 25.83414 0.2179453
vt 29.16758 0.2179453
vt 19.16727 0.2179453
vt 29.16758 0.2179453
vt 25.83414 0.2179453
vt 22.50071 0.2179453
vt 15.83383 0.2179453
vt 25.83414 0.2179453
vt 19.16727 0.2179453
vt 15.83383 0.2179453
vt 22.50071 0.2179453
vt 29.16758 0.2179453
vt 22.50071 0.2179453
vt 19.16727 0.2179453
vt 15.83383 0.2179453
vt 29.16758 0.2179453
vt 25.83414 0.2179453
vt 19.16727 0.2179453
vt 15.83383 0.2179453
vt 29.16758 0.2179453
vt 25.83414 0.2179453
vt 22.50071 0.2179453
vt 25.83414 0.2179453
vt 22.50071 0.2179453
vt 19.16727 0.2179453
vt 15.83383 0.2179453
vt 29.16758 0.2179453
vt 15.83383 0.2179453
vt 29.16758 0.2179453
vt 25.83414 0.2179453
vt 19.16727 0.2179453
vt 22.50071 0.2179453
vt 19.16727 0.2179453
vt 15.83383 0.2179453
vt 29.16758 0.2179453
vt 25.83414 0.2179453
vt 22.50071 0.2179453

g Cylinder002.obj
usemtl Cylinder002
usemap Cylinder002
f 1/1/1 3/3/3 2/2/2
f 4/4/4 3/3/3 1/1/1
f 3/3/3 4/4/4 5/5/5
f 6/6/6 8/8/8 7/7/7
f 8/8/8 6/6/6 9/9/9
f 7/7/7 10/10/10 6/6/6
f 11/11/11 13/13/13 12/12/12
f 11/11/11 12/12/12 14/14/14
f 13/13/13 11/11/11 15/15/15
f 16/16/16 18/18/18 17/17/17
f 18/18/18 16/16/16 19/19/19
f 19/19/19 16/16/16 20/20/20
f 21/21/21 23/23/23 22/22/22
f 21/21/21 24/24/24 23/23/23
f 24/24/24 21/21/21 25/25/25
f 26/26/26 28/28/28 27/27/27
f 28/28/28 26/26/26 29/29/29
f 29/29/29 26/26/26 30/30/30
f 31/31/31 33/33/33 32/32/32
f 34/34/34 33/33/33 31/31/31
f 33/33/33 34/34/34 35/35/35
f 36/36/36 38/38/38 37/37/37
f 36/36/36 39/39/39 38/38/38
f 39/39/39 36/36/36 40/40/40
