#Door Light.obj

v 13.02956 4.742371 1.40177
v 13.86577 0 1.40177
v 13.02955 -4.74238 1.40177
v 10.62179 8.912743 1.40177
v 10.62179 -8.912749 1.40177
v 6.932882 12.00811 1.40177
v 6.932876 -12.00811 1.40177
v 2.407764 13.65511 1.40177
v 2.407758 -13.65512 1.40177
v -2.407767 13.65511 1.40177
v -2.407771 -13.65511 1.40177
v -6.932884 12.00811 1.40177
v -6.932887 -12.0081 1.40177
v -10.62179 8.912743 1.40177
v -10.62179 -8.91274 1.40177
v -13.02956 4.742372 1.40177
v -13.02956 -4.742368 1.40177
v -13.86577 2.093672E-06 1.40177
v 61.43532 4.742371 1.40177
v 62.27153 0 1.40177
v 61.43532 -4.74238 1.40177
v 59.02755 8.912743 1.40177
v 59.02755 -8.912749 1.40177
v 55.33865 12.00811 1.40177
v 55.33864 -12.00811 1.40177
v 50.81353 13.65511 1.40177
v 50.81352 -13.65512 1.40177
v 45.99799 13.65511 1.40177
v 45.99799 -13.65511 1.40177
v 41.47288 12.00811 1.40177
v 41.47287 -12.0081 1.40177
v 37.78397 8.912743 1.40177
v 37.78397 -8.91274 1.40177
v 35.37621 4.742372 1.40177
v 35.37621 -4.742368 1.40177
v 34.54 2.093672E-06 1.40177
v 269.2356 4.742371 1.40177
v 270.0718 0 1.40177
v 269.2356 -4.74238 1.40177
v 266.8279 8.912743 1.40177
v 266.8279 -8.912749 1.40177
v 263.1389 12.00811 1.40177
v 263.1389 -12.00811 1.40177
v 258.6138 13.65511 1.40177
v 258.6138 -13.65512 1.40177
v 253.7983 13.65511 1.40177
v 253.7983 -13.65511 1.40177
v 249.2732 12.00811 1.40177
v 249.2732 -12.0081 1.40177
v 245.5843 8.912743 1.40177
v 245.5843 -8.91274 1.40177
v 243.1765 4.742372 1.40177
v 243.1765 -4.742368 1.40177
v 242.3403 2.093672E-06 1.40177
v 317.6414 4.742371 1.40177
v 318.4776 0 1.40177
v 317.6414 -4.74238 1.40177
v 315.2336 8.912743 1.40177
v 315.2336 -8.912749 1.40177
v 311.5447 12.00811 1.40177
v 311.5447 -12.00811 1.40177
v 307.0196 13.65511 1.40177
v 307.0196 -13.65512 1.40177
v 302.204 13.65511 1.40177
v 302.204 -13.65511 1.40177
v 297.6789 12.00811 1.40177
v 297.6789 -12.0081 1.40177
v 293.99 8.912743 1.40177
v 293.99 -8.91274 1.40177
v 291.5823 4.742372 1.40177
v 291.5823 -4.742368 1.40177
v 290.7461 2.093672E-06 1.40177

vn 0 0 1
vn 0 0 1
vn 0 0 1
vn 0 0 1
vn 0 0 1
vn 0 0 1
vn 0 0 1
vn 0 0 1
vn 0 0 1
vn 0 0 1
vn 0 0 1
vn 0 0 1
vn 0 0 1
vn 0 0 1
vn 0 0 1
vn 0 0 1
vn 0 0 1
vn 0 0 1
vn 0 0 1
vn 0 0 1
vn 0 0 1
vn 0 0 1
vn 0 0 1
vn 0 0 1
vn 0 0 1
vn 0 0 1
vn 0 0 1
vn 0 0 1
vn 0 0 1
vn 0 0 1
vn 0 0 1
vn 0 0 1
vn 0 0 1
vn 0 0 1
vn 0 0 1
vn 0 0 1
vn 0 0 1
vn 0 0 1
vn 0 0 1
vn 0 0 1
vn 0 0 1
vn 0 0 1
vn 0 0 1
vn 0 0 1
vn 0 0 1
vn 0 0 1
vn 0 0 1
vn 0 0 1
vn 0 0 1
vn 0 0 1
vn 0 0 1
vn 0 0 1
vn 0 0 1
vn 0 0 1
vn 0 0 1
vn 0 0 1
vn 0 0 1
vn 0 0 1
vn 0 0 1
vn 0 0 1
vn 0 0 1
vn 0 0 1
vn 0 0 1
vn 0 0 1
vn 0 0 1
vn 0 0 1
vn 0 0 1
vn 0 0 1
vn 0 0 1
vn 0 0 1
vn 0 0 1
vn 0 0 1

vt 70.18095 -0.4017704
vt 152.4621 -0.4017704
vt 147.622 -0.4017704
vt 75.02101 -0.4017704
vt 142.7819 -0.4017704
vt 79.86108 -0.4017704
vt 137.9419 -0.4017704
vt 84.70114 -0.4017704
vt 133.1018 -0.4017704
vt 89.54121 -0.4017704
vt 128.2617 -0.4017704
vt 94.38128 -0.4017704
vt 123.4217 -0.4017704
vt 99.22134 -0.4017704
vt 118.5816 -0.4017704
vt 104.0614 -0.4017704
vt 113.7415 -0.4017704
vt 108.9015 -0.4017704
vt 70.18095 -0.4017704
vt 152.4621 -0.4017704
vt 147.622 -0.4017704
vt 75.02101 -0.4017704
vt 142.7819 -0.4017704
vt 79.86108 -0.4017704
vt 137.9419 -0.4017704
vt 84.70114 -0.4017704
vt 133.1018 -0.4017704
vt 89.54121 -0.4017704
vt 128.2617 -0.4017704
vt 94.38128 -0.4017704
vt 123.4217 -0.4017704
vt 99.22134 -0.4017704
vt 118.5816 -0.4017704
vt 104.0614 -0.4017704
vt 113.7415 -0.4017704
vt 108.9015 -0.4017704
vt 70.18095 -0.4017704
vt 152.4621 -0.4017704
vt 147.622 -0.4017704
vt 75.02101 -0.4017704
vt 142.7819 -0.4017704
vt 79.86108 -0.4017704
vt 137.9419 -0.4017704
vt 84.70114 -0.4017704
vt 133.1018 -0.4017704
vt 89.54121 -0.4017704
vt 128.2617 -0.4017704
vt 94.38128 -0.4017704
vt 123.4217 -0.4017704
vt 99.22134 -0.4017704
vt 118.5816 -0.4017704
vt 104.0614 -0.4017704
vt 113.7415 -0.4017704
vt 108.9015 -0.4017704
vt 70.18095 -0.4017704
vt 152.4621 -0.4017704
vt 147.622 -0.4017704
vt 75.02101 -0.4017704
vt 142.7819 -0.4017704
vt 79.86108 -0.4017704
vt 137.9419 -0.4017704
vt 84.70114 -0.4017704
vt 133.1018 -0.4017704
vt 89.54121 -0.4017704
vt 128.2617 -0.4017704
vt 94.38128 -0.4017704
vt 123.4217 -0.4017704
vt 99.22134 -0.4017704
vt 118.5816 -0.4017704
vt 104.0614 -0.4017704
vt 113.7415 -0.4017704
vt 108.9015 -0.4017704

g Door Light.obj
usemtl Door Light
usemap Door Light
f 1/1/1 3/3/3 2/2/2
f 3/3/3 1/1/1 4/4/4
f 3/3/3 4/4/4 5/5/5
f 5/5/5 4/4/4 6/6/6
f 5/5/5 6/6/6 7/7/7
f 7/7/7 6/6/6 8/8/8
f 7/7/7 8/8/8 9/9/9
f 9/9/9 8/8/8 10/10/10
f 9/9/9 10/10/10 11/11/11
f 11/11/11 10/10/10 12/12/12
f 11/11/11 12/12/12 13/13/13
f 13/13/13 12/12/12 14/14/14
f 13/13/13 14/14/14 15/15/15
f 15/15/15 14/14/14 16/16/16
f 15/15/15 16/16/16 17/17/17
f 17/17/17 16/16/16 18/18/18
f 19/19/19 21/21/21 20/20/20
f 21/21/21 19/19/19 22/22/22
f 21/21/21 22/22/22 23/23/23
f 23/23/23 22/22/22 24/24/24
f 23/23/23 24/24/24 25/25/25
f 25/25/25 24/24/24 26/26/26
f 25/25/25 26/26/26 27/27/27
f 27/27/27 26/26/26 28/28/28
f 27/27/27 28/28/28 29/29/29
f 29/29/29 28/28/28 30/30/30
f 29/29/29 30/30/30 31/31/31
f 31/31/31 30/30/30 32/32/32
f 31/31/31 32/32/32 33/33/33
f 33/33/33 32/32/32 34/34/34
f 33/33/33 34/34/34 35/35/35
f 35/35/35 34/34/34 36/36/36
f 37/37/37 39/39/39 38/38/38
f 39/39/39 37/37/37 40/40/40
f 39/39/39 40/40/40 41/41/41
f 41/41/41 40/40/40 42/42/42
f 41/41/41 42/42/42 43/43/43
f 43/43/43 42/42/42 44/44/44
f 43/43/43 44/44/44 45/45/45
f 45/45/45 44/44/44 46/46/46
f 45/45/45 46/46/46 47/47/47
f 47/47/47 46/46/46 48/48/48
f 47/47/47 48/48/48 49/49/49
f 49/49/49 48/48/48 50/50/50
f 49/49/49 50/50/50 51/51/51
f 51/51/51 50/50/50 52/52/52
f 51/51/51 52/52/52 53/53/53
f 53/53/53 52/52/52 54/54/54
f 55/55/55 57/57/57 56/56/56
f 57/57/57 55/55/55 58/58/58
f 57/57/57 58/58/58 59/59/59
f 59/59/59 58/58/58 60/60/60
f 59/59/59 60/60/60 61/61/61
f 61/61/61 60/60/60 62/62/62
f 61/61/61 62/62/62 63/63/63
f 63/63/63 62/62/62 64/64/64
f 63/63/63 64/64/64 65/65/65
f 65/65/65 64/64/64 66/66/66
f 65/65/65 66/66/66 67/67/67
f 67/67/67 66/66/66 68/68/68
f 67/67/67 68/68/68 69/69/69
f 69/69/69 68/68/68 70/70/70
f 69/69/69 70/70/70 71/71/71
f 71/71/71 70/70/70 72/72/72
