#Dumpster Cap.obj

v 0.1418145 0 0
v 0.1388433 0.05053481 0.008465072
v 0.133262 0.04850342 0
v 0.1477539 2.086006E-10 0.008465072
v 0.1131861 0.09497438 0.008465072
v 0.1086362 0.0911566 0
v 0.07387695 0.1279586 0.008465072
v 0.07090724 0.122815 0
v 0.02565719 0.1455092 0.008465072
v 0.02462582 0.13966 0
v -0.02565721 0.1455092 0.008465072
v -0.02462585 0.13966 0
v 0.133262 -0.04850351 0
v 0.1388432 -0.05053491 0.008465072
v 0.1086361 -0.09115667 0
v 0.113186 -0.09497447 0.008465072
v 0.07090718 -0.122815 0
v 0.07387688 -0.1279587 0.008465072
v 0.02462576 -0.13966 0
v 0.02565713 -0.1455092 0.008465072
v -0.02462589 -0.13966 0
v -0.02565726 -0.1455092 0.008465072
v -0.07090729 -0.1228149 0
v -0.073877 -0.1279586 0.008465072
v -0.1086362 -0.09115656 0
v -0.1131861 -0.09497435 0.008465072
v -0.133262 -0.04850339 0
v -0.1388433 -0.05053478 0.008465072
v -0.1418145 2.141339E-08 0
v -0.1477539 2.251882E-08 0.008465072
v -0.133262 0.04850342 0
v -0.1388433 0.05053483 0.008465072
v -0.1086362 0.0911566 0
v -0.1131861 0.09497438 0.008465072
v -0.07090726 0.122815 0
v -0.07387697 0.1279586 0.008465072
v -0.02462585 0.13966 0
v -0.02565721 0.1455092 0.008465072
v 0.133262 -0.04850351 0
v 0.1418145 0 0
v 0.133262 0.04850342 0
v 0.1086362 0.0911566 0
v 0.1086361 -0.09115667 0
v 0.07090724 0.122815 0
v 0.07090718 -0.122815 0
v 0.02462582 0.13966 0
v 0.02462576 -0.13966 0
v -0.02462585 0.13966 0
v -0.02462589 -0.13966 0
v -0.07090726 0.122815 0
v -0.07090729 -0.1228149 0
v -0.1086362 0.0911566 0
v -0.1086362 -0.09115656 0
v -0.133262 0.04850342 0
v -0.133262 -0.04850339 0
v -0.1418145 2.141339E-08 0
v 0.1388433 0.05053481 0.008465072
v 0.1477539 2.086006E-10 0.008465072
v 0.1388432 -0.05053491 0.008465072
v 0.1131861 0.09497438 0.008465072
v 0.113186 -0.09497447 0.008465072
v 0.07387695 0.1279586 0.008465072
v 0.07387688 -0.1279587 0.008465072
v 0.02565719 0.1455092 0.008465072
v 0.02565713 -0.1455092 0.008465072
v -0.02565721 0.1455092 0.008465072
v -0.02565726 -0.1455092 0.008465072
v -0.07387697 0.1279586 0.008465072
v -0.073877 -0.1279586 0.008465072
v -0.1131861 0.09497438 0.008465072
v -0.1131861 -0.09497435 0.008465072
v -0.1388433 0.05053483 0.008465072
v -0.1388433 -0.05053478 0.008465072
v -0.1477539 2.251882E-08 0.008465072
v -0.04637122 -0.003420365 0.01948161
v 0.05069167 0.006718157 0.01948161
v 0.05069167 -0.003420365 0.01948161
v -0.04637122 0.006718157 0.01948161
v -0.04637122 -0.003420365 0.01433077
v 0.05069167 0.006718158 0.01433077
v -0.04637122 0.006718158 0.01433077
v 0.05069167 -0.003420365 0.01433077
v -0.04637122 -0.003420365 0.01948161
v 0.05069167 -0.003420365 0.01433077
v -0.04637122 -0.003420365 0.01433077
v 0.05069167 -0.003420365 0.01948161
v 0.05069167 0.006718157 0.01948161
v -0.04637122 0.006718158 0.01433077
v 0.05069167 0.006718158 0.01433077
v -0.04637122 0.006718157 0.01948161
v -0.04637122 -0.003420365 0.01948161
v -0.05262918 0.006718157 0.01797297
v -0.04637122 0.006718157 0.01948161
v -0.05262918 -0.003420365 0.01797297
v -0.05547537 0.006718157 0.01433077
v -0.05547537 -0.003420364 0.01433077
v -0.04637122 0.006718157 0.01948161
v -0.05262918 0.006718157 0.01797297
v -0.04637122 0.006718158 0.01433077
v -0.05547537 0.006718157 0.01433077
v -0.04637121 0.006718157 0.002907081
v -0.05547537 0.006718157 0.002907081
v -0.04637122 -0.003420365 0.01433077
v -0.05262918 -0.003420365 0.01797297
v -0.04637122 -0.003420365 0.01948161
v -0.05547537 -0.003420364 0.01433077
v -0.04637122 0.006718158 0.01433077
v -0.04637121 -0.003420365 0.002907081
v -0.04637122 -0.003420365 0.01433077
v -0.04637122 0.006718158 0.01433077
v -0.04637121 0.006718157 0.002907081
v -0.04637121 -0.003420365 0.002907081
v -0.04637122 -0.003420365 0.01433077
v -0.05547537 -0.003420365 0.002907081
v -0.05547537 -0.003420364 0.01433077
v -0.04637122 -0.003420365 0.01433077
v -0.04637121 -0.003420365 0.002907081
v -0.05547537 -0.003420365 0.002907081
v -0.05547537 -0.003420364 0.01433077
v -0.05547537 0.006718157 0.002907081
v -0.05547537 0.006718157 0.01433077
v -0.05547537 -0.003420364 0.01433077
v -0.05547537 -0.003420365 0.002907081
v -0.05547537 0.006718157 0.002907081
v 0.05069167 0.006718157 0.01948161
v 0.0549779 -0.003420365 0.01797297
v 0.05069167 -0.003420365 0.01948161
v 0.0549779 0.006718157 0.01797297
v 0.05813112 -0.003420364 0.01433077
v 0.05813112 0.006718157 0.01433077
v 0.05069167 -0.003420365 0.01948161
v 0.0549779 -0.003420365 0.01797297
v 0.05069167 -0.003420365 0.01433077
v 0.05813112 -0.003420364 0.01433077
v 0.05813112 -0.003420364 0.01433077
v 0.05069167 -0.003420365 0.002907081
v 0.05813112 -0.003420364 0.01433077
v 0.05813111 -0.003420365 0.002907081
v 0.05069167 0.006718158 0.01433077
v 0.0549779 0.006718157 0.01797297
v 0.05069167 0.006718157 0.01948161
v 0.05813112 0.006718157 0.01433077
v 0.05069167 -0.003420365 0.01433077
v 0.05069167 0.006718157 0.002907081
v 0.05069167 0.006718158 0.01433077
v 0.05069167 -0.003420365 0.01433077
v 0.05069167 -0.003420365 0.002907081
v 0.05069167 0.006718157 0.002907081
v 0.05069167 0.006718158 0.01433077
v 0.05813111 0.006718157 0.002907081
v 0.05813112 0.006718157 0.01433077
v 0.05069167 0.006718158 0.01433077
v 0.05069167 0.006718157 0.002907081
v 0.05813111 0.006718157 0.002907081
v 0.05813112 0.006718157 0.01433077
v 0.05813111 -0.003420365 0.002907081
v 0.05813112 -0.003420364 0.01433077
v 0.05813112 0.006718157 0.01433077
v 0.05813111 0.006718157 0.002907081
v 0.05813111 -0.003420365 0.002907081

vn 0.8186015 -1.171501E-07 -0.574362
vn 0.7692339 0.2799782 -0.5743617
vn 0.7692338 0.2799783 -0.5743617
vn 0.8186015 0 -0.574362
vn 0.6270854 0.5261872 -0.5743614
vn 0.6270853 0.5261873 -0.5743614
vn 0.409301 0.7089303 -0.574361
vn 0.409301 0.7089303 -0.574361
vn 0.1421487 0.8061657 -0.5743611
vn 0.1421487 0.8061657 -0.5743611
vn -0.1421488 0.8061656 -0.5743611
vn -0.1421488 0.8061656 -0.5743611
vn 0.7692335 -0.2799786 -0.574362
vn 0.7692335 -0.2799786 -0.574362
vn 0.6270849 -0.5261872 -0.574362
vn 0.6270846 -0.5261874 -0.574362
vn 0.4093003 -0.7089297 -0.5743622
vn 0.4093003 -0.7089297 -0.5743622
vn 0.1421482 -0.806165 -0.5743622
vn 0.1421482 -0.806165 -0.5743622
vn -0.142149 -0.8061649 -0.574362
vn -0.142149 -0.8061649 -0.574362
vn -0.409301 -0.7089295 -0.574362
vn -0.4093009 -0.7089295 -0.574362
vn -0.6270852 -0.5261866 -0.574362
vn -0.6270851 -0.5261866 -0.574362
vn -0.7692338 -0.279978 -0.5743619
vn -0.7692338 -0.279978 -0.5743619
vn -0.8186015 0 -0.574362
vn -0.8186015 0 -0.574362
vn -0.7692338 0.2799783 -0.5743617
vn -0.7692339 0.2799783 -0.5743617
vn -0.6270853 0.5261872 -0.5743614
vn -0.6270854 0.526187 -0.5743614
vn -0.4093009 0.7089301 -0.5743612
vn -0.4093011 0.70893 -0.5743612
vn -0.1421488 0.8061656 -0.5743611
vn -0.1421488 0.8061656 -0.5743611
vn 0 0 -1
vn 0 0 -1
vn 0 0 -1
vn 0 0 -1
vn 0 0 -1
vn 0 0 -1
vn 0 0 -1
vn 0 0 -1
vn 0 0 -1
vn 0 0 -1
vn 0 0 -1
vn 0 0 -1
vn 0 0 -1
vn 0 0 -1
vn 0 0 -1
vn 0 0 -1
vn 0 0 -1
vn 0 0 -1
vn 0 0 1
vn 0 0 1
vn 0 0 1
vn 0 0 1
vn 0 0 1
vn 0 0 1
vn 0 0 1
vn 0 0 1
vn 0 0 1
vn 0 0 1
vn 0 0 1
vn 0 0 1
vn 0 0 1
vn 0 0 1
vn 0 0 1
vn 0 0 1
vn 0 0 1
vn 0 0 1
vn 0 0 1
vn 0 0 1
vn 0 0 1
vn 0 0 1
vn 0 0 -1
vn 0 0 -1
vn 0 0 -1
vn 0 0 -1
vn 0 -1 -1.157182E-07
vn 0 -1 -1.157182E-07
vn 0 -1 -1.157182E-07
vn 0 -1 -1.157182E-07
vn 0 1 1.157182E-07
vn 0 1 1.157182E-07
vn 0 1 1.157182E-07
vn 0 1 1.157182E-07
vn -0.2343623 0 0.9721493
vn -0.5413281 0 0.8408114
vn -0.2343623 0 0.9721493
vn -0.5413281 0 0.8408114
vn -0.7879481 0 0.6157417
vn -0.7879481 0 0.6157417
vn -1.231431E-07 1 1.157182E-07
vn -1.285297E-07 1 1.064629E-07
vn -1.257592E-07 1 1.112232E-07
vn -1.309394E-07 1 1.023226E-07
vn 0 1 0
vn 0 1 0
vn 0 -1 -1.146346E-07
vn 0 -1 -1.13487E-07
vn 0 -1 -1.157182E-07
vn 0 -1 -1.124889E-07
vn 1 0 8.348218E-07
vn 1 0 8.348218E-07
vn 1 0 8.348218E-07
vn 1 0 8.348218E-07
vn 1 0 8.348218E-07
vn 1 0 8.348218E-07
vn 0 -1 0
vn 0 -1 0
vn 0 -1 0
vn 0 -1 0
vn 0 -1 0
vn 0 -1 0
vn -1 0 -4.174107E-07
vn -1 0 -4.174107E-07
vn -1 0 -4.174107E-07
vn -1 0 -4.174107E-07
vn -1 0 -4.174107E-07
vn -1 0 -4.174107E-07
vn 0.3320099 0 0.943276
vn 0.5628521 0 0.8265576
vn 0.3320098 0 0.943276
vn 0.5628521 0 0.8265576
vn 0.7560334 0 0.6545332
vn 0.7560334 0 0.6545332
vn 0 -1 -1.157182E-07
vn 0 -1 -1.028076E-07
vn 0 -1 -1.061084E-07
vn 0 -1 0
vn 0 -1 0
vn 0 -1 0
vn 0 -1 0
vn 0 -1 0
vn 0 1 0
vn 0 1 0
vn 0 1 1.157182E-07
vn 0 1 0
vn -1 0 0
vn -1 0 0
vn -1 0 0
vn -1 0 0
vn -1 0 0
vn -1 0 0
vn 0 1 0
vn 0 1 0
vn 0 1 0
vn 0 1 0
vn 0 1 0
vn 0 1 0
vn 1 0 -4.174107E-07
vn 1 0 -4.174107E-07
vn 1 0 -4.174107E-07
vn 1 0 -4.174107E-07
vn 1 0 -4.174107E-07
vn 1 0 -4.174107E-07

vt 66.82851 1
vt 71.77877 0.1534928
vt 71.77877 1
vt 66.82851 0.1534928
vt 76.72903 0.1534928
vt 76.72903 1
vt 81.67929 0.1534928
vt 81.67929 1
vt 86.62955 0.1534928
vt 86.62955 1
vt 91.57981 0.1534928
vt 91.57981 1
vt 61.87824 1
vt 61.87824 0.1534928
vt 56.92799 1
vt 56.92799 0.1534928
vt 51.97773 1
vt 51.97773 0.1534928
vt 47.02746 1
vt 47.02746 0.1534928
vt 42.07721 1
vt 42.07721 0.1534928
vt 37.12695 1
vt 37.12695 0.1534928
vt 32.17669 1
vt 32.17669 0.1534928
vt 27.22643 1
vt 27.22643 0.1534928
vt 22.27617 1
vt 22.27617 0.1534928
vt 17.32591 1
vt 17.32591 0.1534928
vt 12.37565 1
vt 12.37565 0.1534928
vt 7.425392 1
vt 7.425392 0.1534928
vt 2.475133 1
vt 2.475133 0.1534928
vt -27.22644 1
vt -22.27617 1
vt -17.32591 1
vt -12.37566 1
vt 56.92799 1
vt -7.425388 1
vt 51.97773 1
vt -2.475131 1
vt 47.02746 1
vt 2.475133 1
vt 42.07721 1
vt 7.425392 1
vt 37.12695 1
vt 12.37565 1
vt 32.17669 1
vt 17.32591 1
vt 27.22643 1
vt 22.27617 1
vt 71.77877 0.1534928
vt 155.9332 0.1534928
vt 150.9829 0.1534928
vt 76.72903 0.1534928
vt 146.0327 0.1534928
vt 81.67929 0.1534928
vt 141.0824 0.1534928
vt 86.62955 0.1534928
vt 136.1321 0.1534928
vt 91.57981 0.1534928
vt 131.1819 0.1534928
vt 96.53008 0.1534928
vt 126.2316 0.1534928
vt 101.4803 0.1534928
vt 121.2814 0.1534928
vt 106.4306 0.1534928
vt 116.3311 0.1534928
vt 111.3809 0.1534928
vt 1 1
vt -4.555554 0.09003842
vt -4.555554 1
vt 1 0.09003842
vt 0 1
vt 5.555554 0.09003842
vt 0 0.09003842
vt 5.555554 1
vt 0 1
vt 5.555554 1.909961
vt 0 1.909961
vt 5.555554 1
vt 0 1
vt 5.555554 1.909961
vt 0 1.909961
vt 5.555554 1
vt 0 1
vt 0.25 0.5
vt 0.25 1
vt 0 0.5
vt 0.25 0
vt 0 0
vt 0.25 1
vt 0.25 0.5
vt 0.5 0.5
vt 0.25 0
vt 0 1.909961
vt 0 1
vt 0.75 0.5
vt 0 0.5
vt 0 1
vt 0 0
vt 0 0.09003842
vt 0.9099616 1.909961
vt 0 1
vt 0 0.09003842
vt 0 1.909961
vt 0.9099616 1.909961
vt 0.75 0.5
vt 0.9099616 1
vt 0 0
vt 0.75 0.5
vt 0.9099616 1.909961
vt 0.9099616 1
vt 0 0
vt 0 1
vt 0.25 0
vt 0 0
vt 0.9099616 1
vt 0 1
vt 0 1
vt 0.25 0.5
vt 0.25 1
vt 0 0.5
vt 0.25 0
vt 0 0
vt 0.25 1
vt 0.25 0.5
vt 0.5 0.5
vt 0.25 0
vt 0.25 0
vt 0 1.909961
vt 0.25 0
vt 0 1
vt 0.75 0.5
vt 0 0.5
vt 0 1
vt 0 0
vt 5.555554 1
vt 0.9099616 1.909961
vt 5.555554 0.09003842
vt 5.555554 1
vt 0 1.909961
vt 0.9099616 1.909961
vt 0.75 0.5
vt 0.9099616 1
vt 0 0
vt 0.75 0.5
vt 0.9099616 1.909961
vt 0.9099616 1
vt 0 0
vt 0 1
vt 0.25 0
vt 0 0
vt 0.9099616 1
vt 0 1

g Dumpster Cap.obj
usemtl Dumpster Cap
usemap Dumpster Cap
f 1/1/1 3/3/3 2/2/2
f 1/1/1 2/2/2 4/4/4
f 3/3/3 5/5/5 2/2/2
f 3/3/3 6/6/6 5/5/5
f 6/6/6 7/7/7 5/5/5
f 6/6/6 8/8/8 7/7/7
f 8/8/8 9/9/9 7/7/7
f 8/8/8 10/10/10 9/9/9
f 10/10/10 11/11/11 9/9/9
f 10/10/10 12/12/12 11/11/11
f 13/13/13 1/1/1 4/4/4
f 13/13/13 4/4/4 14/14/14
f 15/15/15 13/13/13 14/14/14
f 15/15/15 14/14/14 16/16/16
f 17/17/17 15/15/15 16/16/16
f 17/17/17 16/16/16 18/18/18
f 19/19/19 17/17/17 18/18/18
f 19/19/19 18/18/18 20/20/20
f 21/21/21 19/19/19 20/20/20
f 21/21/21 20/20/20 22/22/22
f 23/23/23 21/21/21 22/22/22
f 23/23/23 22/22/22 24/24/24
f 25/25/25 23/23/23 24/24/24
f 25/25/25 24/24/24 26/26/26
f 27/27/27 25/25/25 26/26/26
f 27/27/27 26/26/26 28/28/28
f 29/29/29 27/27/27 28/28/28
f 29/29/29 28/28/28 30/30/30
f 31/31/31 29/29/29 30/30/30
f 31/31/31 30/30/30 32/32/32
f 33/33/33 31/31/31 32/32/32
f 33/33/33 32/32/32 34/34/34
f 35/35/35 33/33/33 34/34/34
f 35/35/35 34/34/34 36/36/36
f 37/37/37 35/35/35 36/36/36
f 37/37/37 36/36/36 38/38/38
f 39/39/39 41/41/41 40/40/40
f 41/41/41 39/39/39 42/42/42
f 42/42/42 39/39/39 43/43/43
f 42/42/42 43/43/43 44/44/44
f 44/44/44 43/43/43 45/45/45
f 44/44/44 45/45/45 46/46/46
f 46/46/46 45/45/45 47/47/47
f 46/46/46 47/47/47 48/48/48
f 48/48/48 47/47/47 49/49/49
f 48/48/48 49/49/49 50/50/50
f 50/50/50 49/49/49 51/51/51
f 50/50/50 51/51/51 52/52/52
f 52/52/52 51/51/51 53/53/53
f 52/52/52 53/53/53 54/54/54
f 54/54/54 53/53/53 55/55/55
f 54/54/54 55/55/55 56/56/56
f 57/57/57 59/59/59 58/58/58
f 59/59/59 57/57/57 60/60/60
f 59/59/59 60/60/60 61/61/61
f 61/61/61 60/60/60 62/62/62
f 61/61/61 62/62/62 63/63/63
f 63/63/63 62/62/62 64/64/64
f 63/63/63 64/64/64 65/65/65
f 65/65/65 64/64/64 66/66/66
f 65/65/65 66/66/66 67/67/67
f 67/67/67 66/66/66 68/68/68
f 67/67/67 68/68/68 69/69/69
f 69/69/69 68/68/68 70/70/70
f 69/69/69 70/70/70 71/71/71
f 71/71/71 70/70/70 72/72/72
f 71/71/71 72/72/72 73/73/73
f 73/73/73 72/72/72 74/74/74
f 75/75/75 77/77/77 76/76/76
f 75/75/75 76/76/76 78/78/78
f 79/79/79 81/81/81 80/80/80
f 79/79/79 80/80/80 82/82/82
f 83/83/83 85/85/85 84/84/84
f 83/83/83 84/84/84 86/86/86
f 87/87/87 89/89/89 88/88/88
f 87/87/87 88/88/88 90/90/90
f 91/91/91 93/93/93 92/92/92
f 91/91/91 92/92/92 94/94/94
f 94/94/94 92/92/92 95/95/95
f 94/94/94 95/95/95 96/96/96
f 97/97/97 99/99/99 98/98/98
f 98/98/98 99/99/99 100/100/100
f 100/100/100 99/99/99 101/101/101
f 100/100/100 101/101/101 102/102/102
f 103/103/103 105/105/105 104/104/104
f 103/103/103 104/104/104 106/106/106
f 107/107/107 109/109/109 108/108/108
f 110/110/110 112/112/112 111/111/111
f 113/113/113 115/115/115 114/114/114
f 116/116/116 118/118/118 117/117/117
f 119/119/119 121/121/121 120/120/120
f 122/122/122 124/124/124 123/123/123
f 125/125/125 127/127/127 126/126/126
f 125/125/125 126/126/126 128/128/128
f 128/128/128 126/126/126 129/129/129
f 128/128/128 129/129/129 130/130/130
f 131/131/131 133/133/133 132/132/132
f 132/132/132 133/133/133 134/134/134
f 135/135/135 133/133/133 136/136/136
f 137/137/137 136/136/136 138/138/138
f 139/139/139 141/141/141 140/140/140
f 139/139/139 140/140/140 142/142/142
f 143/143/143 145/145/145 144/144/144
f 146/146/146 148/148/148 147/147/147
f 149/149/149 151/151/151 150/150/150
f 152/152/152 154/154/154 153/153/153
f 155/155/155 157/157/157 156/156/156
f 158/158/158 160/160/160 159/159/159
