#Locked Doors Windows.obj

v 27.77097 19.26113 0
v 27.77097 -19.26113 0
v -27.77097 19.26113 0
v -27.77097 -19.26113 0
v 27.77097 -19.26113 -54.22803
v 27.77097 19.26113 -54.22803
v -27.77097 -19.26113 -54.22803
v -27.77097 19.26113 -54.22803
v -62.87936 19.26113 0
v -62.87936 -19.26113 0
v -118.4213 19.26113 0
v -118.4213 -19.26113 0
v -62.87936 -19.26113 -54.22803
v -62.87936 19.26113 -54.22803
v -118.4213 -19.26113 -54.22803
v -118.4213 19.26113 -54.22803
v 550.2664 19.26113 0
v 550.2664 -19.26113 0
v 494.7245 19.26113 0
v 494.7245 -19.26113 0
v 550.2664 -19.26113 -54.22803
v 550.2664 19.26113 -54.22803
v 494.7245 -19.26113 -54.22803
v 494.7245 19.26113 -54.22803
v 640.9167 19.26113 0
v 640.9167 -19.26113 0
v 585.3748 19.26113 0
v 585.3748 -19.26113 0
v 640.9167 -19.26113 -54.22803
v 640.9167 19.26113 -54.22803
v 585.3748 -19.26113 -54.22803
v 585.3748 19.26113 -54.22803

vn 0 0 1
vn 0 0 1
vn 0 0 1
vn 0 0 1
vn 0 0 -1
vn 0 0 -1
vn 0 0 -1
vn 0 0 -1
vn 0 0 1
vn 0 0 1
vn 0 0 1
vn 0 0 1
vn 0 0 -1
vn 0 0 -1
vn 0 0 -1
vn 0 0 -1
vn 0 0 1
vn 0 0 1
vn 0 0 1
vn 0 0 1
vn 0 0 -1
vn 0 0 -1
vn 0 0 -1
vn 0 0 -1
vn 0 0 1
vn 0 0 1
vn 0 0 1
vn 0 0 1
vn 0 0 -1
vn 0 0 -1
vn 0 0 -1
vn 0 0 -1

vt 55.54193 -37.52226
vt 55.54193 1
vt 0 -37.52226
vt 0 1
vt 55.54193 1
vt 55.54193 -37.52226
vt 0 1
vt 0 -37.52226
vt 55.54193 -37.52226
vt 55.54193 1
vt 0 -37.52226
vt 0 1
vt 55.54193 1
vt 55.54193 -37.52226
vt 0 1
vt 0 -37.52226
vt 55.54193 -37.52226
vt 55.54193 1
vt 0 -37.52226
vt 0 1
vt 55.54193 1
vt 55.54193 -37.52226
vt 0 1
vt 0 -37.52226
vt 55.54193 -37.52226
vt 55.54193 1
vt 0 -37.52226
vt 0 1
vt 55.54193 1
vt 55.54193 -37.52226
vt 0 1
vt 0 -37.52226

g Locked Doors Windows.obj
usemtl Locked Doors Windows
usemap Locked Doors Windows
f 1/1/1 3/3/3 2/2/2
f 3/3/3 4/4/4 2/2/2
f 5/5/5 7/7/7 6/6/6
f 7/7/7 8/8/8 6/6/6
f 9/9/9 11/11/11 10/10/10
f 11/11/11 12/12/12 10/10/10
f 13/13/13 15/15/15 14/14/14
f 15/15/15 16/16/16 14/14/14
f 17/17/17 19/19/19 18/18/18
f 19/19/19 20/20/20 18/18/18
f 21/21/21 23/23/23 22/22/22
f 23/23/23 24/24/24 22/22/22
f 25/25/25 27/27/27 26/26/26
f 27/27/27 28/28/28 26/26/26
f 29/29/29 31/31/31 30/30/30
f 31/31/31 32/32/32 30/30/30
