#Main Booth Body.obj

v 355.5801 -1042.516 0
v 355.5801 1176.124 0
v -402.6982 1176.123 0
v -402.6982 -1042.516 0
v 355.5801 -1042.516 454.8905
v -402.6982 -1042.516 0
v -402.6982 -1042.516 454.8905
v 355.5801 -1042.516 0
v 355.5801 1176.124 454.8905
v 355.5801 -1042.516 0
v 355.5801 -1042.516 454.8905
v 355.5801 1176.124 0
v 355.5801 1176.124 860.025
v 355.5801 -1042.516 860.025
v 355.5801 1176.124 1175.229
v 355.5801 -1042.516 1175.229
v 355.5801 1176.124 1354.969
v 355.5801 -1042.516 1354.969
v -402.6982 1176.123 454.8905
v 355.5801 1176.124 0
v 355.5801 1176.124 454.8905
v -402.6982 1176.123 0
v 355.5801 1176.124 860.025
v -566.3215 1176.124 860.025
v 355.5801 1176.124 1175.229
v -954.2087 1176.124 1175.229
v 355.5801 1176.124 1354.969
v -1386.403 1176.124 1354.969
v -402.6982 -1042.516 454.8905
v -402.6982 1176.123 0
v -402.6982 1176.123 454.8905
v -402.6982 -1042.516 0
v 355.5801 -1042.516 860.025
v -402.6982 -1042.516 454.8905
v -566.3215 -1042.516 860.025
v 355.5801 -1042.516 454.8905
v 355.5801 -1042.516 1175.229
v -954.2087 -1042.516 1175.229
v 355.5801 -1042.516 1354.969
v -1386.403 -1042.516 1354.969
v -566.3215 -1042.516 860.025
v -402.6982 1176.123 454.8905
v -566.3215 1176.124 860.025
v -402.6982 -1042.516 454.8905
v -954.2087 -1042.516 1175.229
v -566.3215 -1042.516 860.025
v -566.3215 1176.124 860.025
v -954.2087 1176.124 1175.229
v -1386.403 -1042.516 1354.969
v -954.2087 -1042.516 1175.229
v -954.2087 1176.124 1175.229
v -1386.403 1176.124 1354.969

vn 0 0 -1
vn 0 0 -1
vn 0 0 -1
vn 0 0 -1
vn 0 -1 0
vn 0 -1 0
vn 0 -1 0
vn 0 -1 0
vn 1 0 0
vn 1 0 0
vn 1 0 0
vn 1 0 0
vn 1 0 0
vn 1 0 0
vn 1 0 0
vn 1 0 0
vn 1 0 0
vn 1 0 0
vn 0 1 0
vn 0 1 0
vn 0 1 0
vn 0 1 0
vn 0 1 0
vn 0 1 0
vn 0 1 0
vn 0 1 0
vn 0 1 0
vn 0 1 0
vn -1 0 0
vn -1 0 0
vn -1 0 0
vn -1 0 0
vn 0 -1 0
vn 0 -1 0
vn 0 -1 0
vn 0 -1 0
vn 0 -1 0
vn 0 -1 0
vn 0 -1 0
vn 0 -1 0
vn -0.927233 0 -0.3744852
vn -0.9272329 0 -0.3744852
vn -0.927233 0 -0.3744852
vn -0.927233 0 -0.3744852
vn -0.6306482 0 -0.7760689
vn -0.6306482 0 -0.7760689
vn -0.6306482 0 -0.7760689
vn -0.6306482 0 -0.7760689
vn -0.3839932 0 -0.923336
vn -0.3839932 0 -0.923336
vn -0.3839932 0 -0.923336
vn -0.3839932 0 -0.923336

vt -804.3965 1
vt -804.3965 -2084.031
vt 1 -2084.031
vt 1 1
vt 805.3965 -453.8905
vt 0 1
vt 0 -453.8905
vt 805.3965 1
vt 2085.031 -453.8905
vt 0 1
vt 0 -453.8905
vt 2085.031 1
vt 2085.031 -453.8905
vt 0 -453.8905
vt 2085.031 -453.8905
vt 0 -453.8905
vt 2085.031 -453.8905
vt 0 -453.8905
vt 805.3965 -453.8905
vt 0 1
vt 0 -453.8905
vt 805.3965 1
vt 0 -453.8905
vt 805.3965 -453.8905
vt 0 -453.8905
vt 805.3965 -453.8905
vt 0 -453.8905
vt 805.3965 -453.8905
vt 2085.031 -453.8905
vt 0 1
vt 0 -453.8905
vt 2085.031 1
vt 805.3965 -453.8905
vt 0 -453.8905
vt 0 -453.8905
vt 805.3965 -453.8905
vt 805.3965 -453.8905
vt 0 -453.8905
vt 805.3965 -453.8905
vt 0 -453.8905
vt 2085.031 -453.8905
vt 0 -453.8905
vt 0 -453.8905
vt 2085.031 -453.8905
vt 2085.031 -453.8905
vt 2085.031 -453.8905
vt 0 -453.8905
vt 0 -453.8905
vt 2085.031 -453.8905
vt 2085.031 -453.8905
vt 0 -453.8905
vt 0 -453.8905

g Main Booth Body.obj
usemtl Main Booth Body
usemap Main Booth Body
f 1/1/1 3/3/3 2/2/2
f 3/3/3 1/1/1 4/4/4
f 5/5/5 7/7/7 6/6/6
f 5/5/5 6/6/6 8/8/8
f 9/9/9 11/11/11 10/10/10
f 9/9/9 10/10/10 12/12/12
f 13/13/13 11/11/11 9/9/9
f 13/13/13 14/14/14 11/11/11
f 15/15/15 14/14/14 13/13/13
f 15/15/15 16/16/16 14/14/14
f 17/17/17 16/16/16 15/15/15
f 17/17/17 18/18/18 16/16/16
f 19/19/19 21/21/21 20/20/20
f 19/19/19 20/20/20 22/22/22
f 19/19/19 23/23/23 21/21/21
f 23/23/23 19/19/19 24/24/24
f 24/24/24 25/25/25 23/23/23
f 25/25/25 24/24/24 26/26/26
f 26/26/26 27/27/27 25/25/25
f 28/28/28 27/27/27 26/26/26
f 29/29/29 31/31/31 30/30/30
f 29/29/29 30/30/30 32/32/32
f 33/33/33 35/35/35 34/34/34
f 33/33/33 34/34/34 36/36/36
f 37/37/37 35/35/35 33/33/33
f 37/37/37 38/38/38 35/35/35
f 39/39/39 38/38/38 37/37/37
f 39/39/39 40/40/40 38/38/38
f 41/41/41 43/43/43 42/42/42
f 41/41/41 42/42/42 44/44/44
f 45/45/45 47/47/47 46/46/46
f 47/47/47 45/45/45 48/48/48
f 49/49/49 51/51/51 50/50/50
f 51/51/51 49/49/49 52/52/52
