#Market Body.obj

v -458.7269 -471.1584 0
v 458.7269 471.1584 0
v -458.7269 471.1584 0
v 458.7269 -471.1584 0
v -458.7269 -471.1584 587.6542
v 579.8708 539.535 587.6542
v 579.8708 -471.1584 587.6542
v -458.7269 539.535 587.6542
v -458.7269 -471.1584 0
v 579.8708 -471.1584 587.6542
v 458.7269 -471.1584 0
v -458.7269 -471.1584 587.6542
v 458.7269 -471.1584 0
v 579.8708 539.535 587.6542
v 458.7269 471.1584 0
v 579.8708 -471.1584 587.6542
v 458.7269 471.1584 0
v -458.7269 539.535 587.6542
v -458.7269 471.1584 0
v 579.8708 539.535 587.6542
v -458.7269 471.1584 0
v -458.7269 -471.1584 587.6542
v -458.7269 -471.1584 0
v -458.7269 539.535 587.6542

vn 0 0 -1
vn 0 0 -1
vn 0 0 -1
vn 0 0 -1
vn 0 0 1
vn 0 0 1
vn 0 0 1
vn 0 0 1
vn 0 -1 0
vn 0 -1 0
vn 0 -1 0
vn 0 -1 0
vn 0.9794056 0 -0.2019028
vn 0.9794056 0 -0.2019028
vn 0.9794056 0 -0.2019028
vn 0.9794056 0 -0.2019028
vn 0 0.9932987 -0.1155756
vn 0 0.9932987 -0.1155756
vn 0 0.9932987 -0.1155756
vn 0 0.9932987 -0.1155756
vn -1 0 0
vn -1 0 0
vn -1 0 0
vn -1 0 0

vt 917.4539 1
vt 0 -941.3168
vt 917.4539 -941.3168
vt 0 1
vt 0 1
vt 917.4539 -941.3168
vt 917.4539 1
vt 0 -941.3168
vt 0 1
vt 917.4539 -586.6542
vt 917.4539 1
vt 0 -586.6542
vt 0 1
vt 942.3168 -586.6542
vt 942.3168 1
vt 0 -586.6542
vt 0 1
vt 917.4539 -586.6542
vt 917.4539 1
vt 0 -586.6542
vt 0 1
vt 942.3168 -586.6542
vt 942.3168 1
vt 0 -586.6542

g Market Body.obj
usemtl Market Body
usemap Market Body
f 1/1/1 3/3/3 2/2/2
f 2/2/2 4/4/4 1/1/1
f 5/5/5 7/7/7 6/6/6
f 6/6/6 8/8/8 5/5/5
f 9/9/9 11/11/11 10/10/10
f 10/10/10 12/12/12 9/9/9
f 13/13/13 15/15/15 14/14/14
f 14/14/14 16/16/16 13/13/13
f 17/17/17 19/19/19 18/18/18
f 18/18/18 20/20/20 17/17/17
f 21/21/21 23/23/23 22/22/22
f 22/22/22 24/24/24 21/21/21
