#Meat Possibly Rat.obj

v -7.244751 -2.30739 -0.9014243
v -3.623634 -2.261313 -1.364687
v -7.497224 -1.774463 -0.6827811
v -3.600227 -2.811295 -0.8471364
v -3.04238 -3.127511 0
v 3.042379 -1.620925 -0.814721
v -3.04238 -1.620925 -0.814721
v 3.042379 -3.127511 0
v 8.071095 -0.9925175 0
v 6.980446 -2.499103 2.091368E-08
v 3.042379 1.323754 -0.8147212
v -3.04238 1.243128 -0.8147212
v -8.338016 -0.9925175 0
v -8.338016 0.9925175 0
v 8.071095 0.9925175 0
v 3.042379 3.055533 0
v -3.04238 3.055533 0
v 6.844984 2.486739 -2.145416E-08
v -7.458279 1.697024 -0.7103446
v -3.595105 2.723989 -0.8445675
v -7.116856 2.267666 -0.8932631
v -3.611148 1.900889 -1.379741
v -5.421966 -2.403318 2.914599
v -3.04238 -1.620925 3.548569
v -3.04238 -3.031725 3.204084
v -6.326522 -0.9925175 2.914599
v 3.042379 -1.620925 3.548569
v 3.042379 -3.031725 3.204084
v 7.592167 -0.9925175 2.914599
v 6.501518 -2.403318 2.914599
v -3.04238 1.243128 3.54857
v -6.326522 0.9925175 2.914599
v 3.042379 1.323754 3.54857
v 7.592167 0.9925175 2.914599
v -3.04238 2.95975 3.204084
v -5.286502 2.390955 2.914599
v 3.042379 2.95975 3.204084
v 6.366056 2.390955 2.914599
v -7.433459 -2.499103 2.091369E-08
v -3.04238 -3.605959 1.4573
v -3.04238 -3.127511 0
v -8.222583 -2.977552 1.4573
v 3.042379 -3.605959 1.4573
v 3.042379 -3.127511 0
v 8.03649 -2.977552 1.4573
v 6.980446 -2.499103 2.091368E-08
v -3.04238 -3.031725 3.204084
v -5.421966 -2.403318 2.914599
v 3.042379 -3.031725 3.204084
v 6.501518 -2.403318 2.914599
v 6.980446 -2.499103 2.091368E-08
v 9.127139 -0.9925175 1.4573
v 8.071095 -0.9925175 0
v 8.03649 -2.977552 1.4573
v 9.127139 0.9925175 1.4573
v 8.071095 0.9925175 0
v 7.901029 2.977552 1.4573
v 6.844984 2.486739 -2.145416E-08
v 7.592167 -0.9925175 2.914599
v 6.501518 -2.403318 2.914599
v 6.366056 2.390955 2.914599
v 7.592167 0.9925175 2.914599
v 8.895524 -0.2151159 2.342431
v 8.488123 0.2151159 2.729217
v 8.895524 0.2151159 2.342431
v 8.488123 -0.2151159 2.729217
v 6.844984 2.486739 -2.145416E-08
v 3.04238 3.546347 1.4573
v 3.042379 3.055533 0
v 7.901029 2.977552 1.4573
v -3.042379 3.546347 1.4573
v -3.04238 3.055533 0
v -8.087119 2.977552 1.4573
v -7.297996 2.486739 -2.145416E-08
v 3.042379 2.95975 3.204084
v 6.366056 2.390955 2.914599
v -3.04238 2.95975 3.204084
v -5.286502 2.390955 2.914599
v -7.297996 2.486739 -2.145416E-08
v -9.127139 0.9925175 1.4573
v -8.338016 0.9925175 0
v -8.087119 2.977552 1.4573
v -9.127139 -0.9925175 1.4573
v -8.338016 -0.9925175 0
v -8.222583 -2.977552 1.4573
v -7.433459 -2.499103 2.091369E-08
v -6.326522 0.9925175 2.914599
v -5.286502 2.390955 2.914599
v -6.326522 -0.9925175 2.914599
v -5.421966 -2.403318 2.914599
v -7.433459 -2.499103 2.091369E-08
v -7.497224 -1.774463 -0.6827811
v -8.338016 -0.9925175 0
v -7.433459 -2.499103 2.091369E-08
v -7.244751 -2.30739 -0.9014243
v -7.497224 -1.774463 -0.6827811
v -8.338016 -0.9925175 0
v -3.623634 -2.261313 -1.364687
v -3.04238 -1.620925 -0.814721
v -7.497224 -1.774463 -0.6827811
v -3.04238 -1.620925 -0.814721
v -3.600227 -2.811295 -0.8471364
v -3.04238 -3.127511 0
v -3.623634 -2.261313 -1.364687
v -3.04238 -3.127511 0
v -7.244751 -2.30739 -0.9014243
v -7.433459 -2.499103 2.091369E-08
v -3.600227 -2.811295 -0.8471364
v -3.04238 1.243128 -0.8147212
v -7.458279 1.697024 -0.7103446
v -8.338016 0.9925175 0
v -3.611148 1.900889 -1.379741
v -8.338016 0.9925175 0
v -7.116856 2.267666 -0.8932631
v -7.297996 2.486739 -2.145416E-08
v -8.338016 0.9925175 0
v -7.458279 1.697024 -0.7103446
v -7.116856 2.267666 -0.8932631
v -7.297996 2.486739 -2.145416E-08
v -3.595105 2.723989 -0.8445675
v -3.04238 3.055533 0
v -7.116856 2.267666 -0.8932631
v -3.04238 3.055533 0
v -3.611148 1.900889 -1.379741
v -3.04238 1.243128 -0.8147212
v -3.595105 2.723989 -0.8445675
v 7.592167 0.9925175 2.914599
v 8.488123 -0.2151159 2.729217
v 7.592167 -0.9925175 2.914599
v 7.592167 0.9925175 2.914599
v 8.488123 0.2151159 2.729217
v 8.488123 -0.2151159 2.729217
v 7.592167 -0.9925175 2.914599
v 8.895524 -0.2151159 2.342431
v 9.127139 -0.9925175 1.4573
v 8.488123 -0.2151159 2.729217
v 9.127139 -0.9925175 1.4573
v 8.895524 0.2151159 2.342431
v 9.127139 0.9925175 1.4573
v 8.895524 -0.2151159 2.342431
v 9.127139 0.9925175 1.4573
v 8.488123 0.2151159 2.729217
v 7.592167 0.9925175 2.914599
v 8.895524 0.2151159 2.342431

vn -0.1177133 -0.2919762 -0.949154
vn -0.1177133 -0.2919762 -0.949154
vn -0.1177133 -0.2919762 -0.949154
vn -0.1177133 -0.2919762 -0.949154
vn -0.04430846 -0.8391573 -0.542081
vn 0.07235901 -0.2038337 -0.9763278
vn -0.04959332 -0.1675965 -0.9846075
vn 0.06982159 -0.7381517 -0.6710119
vn 0.5431673 -0.1974522 -0.8160772
vn 0.2998232 -0.6255755 -0.7202508
vn 0.0688418 0.1817434 -0.9809333
vn -0.05177325 0.1428012 -0.9883963
vn -0.6698022 -0.1606052 -0.7249628
vn -0.6697992 0.1843184 -0.7193023
vn 0.5404421 0.2133335 -0.8138865
vn 0.06415415 0.7215979 -0.6893336
vn -0.04260123 0.825752 -0.5624223
vn 0.2815404 0.6268093 -0.7265295
vn -0.1047371 0.268854 -0.9574694
vn -0.1047372 0.268854 -0.9574694
vn -0.1047371 0.268854 -0.9574694
vn -0.1047372 0.268854 -0.9574694
vn -0.2534418 -0.527938 0.8105855
vn -0.09712946 -0.110447 0.9891245
vn -0.09708849 -0.6488371 0.754708
vn -0.3445424 -0.1018738 0.9332268
vn 0.0695711 -0.1067514 0.9918488
vn 0.07989302 -0.656805 0.7498162
vn 0.3634368 -0.2134101 0.906846
vn 0.2746029 -0.5634875 0.7791502
vn -0.09463054 0.09463241 0.9910045
vn -0.3438331 0.114877 0.9319775
vn 0.0676166 0.09413603 0.9932604
vn 0.3606609 0.2353836 0.9025066
vn -0.09296393 0.6377314 0.7646282
vn -0.2415188 0.5306902 0.8124264
vn 0.07589216 0.6457655 0.7597548
vn 0.2606187 0.5668257 0.7815284
vn -0.4531781 -0.771727 -0.4461693
vn -0.07576125 -0.996642 0.03106491
vn -0.04430846 -0.8391573 -0.542081
vn -0.6316241 -0.7490839 0.1998109
vn 0.0735013 -0.9972256 0.01176921
vn 0.06982159 -0.7381517 -0.6710119
vn 0.6144676 -0.7866563 0.06001101
vn 0.2998232 -0.6255755 -0.7202508
vn -0.09708849 -0.6488371 0.754708
vn -0.2534418 -0.527938 0.8105855
vn 0.07989302 -0.656805 0.7498162
vn 0.2746029 -0.5634875 0.7791502
vn 0.2998232 -0.6255755 -0.7202508
vn 0.911795 -0.3228281 -0.2537949
vn 0.5431673 -0.1974522 -0.8160772
vn 0.6144676 -0.7866563 0.06001101
vn 0.899396 0.3506868 -0.2609703
vn 0.5404421 0.2133335 -0.8138865
vn 0.5892366 0.8057681 0.05948255
vn 0.2815404 0.6268093 -0.7265295
vn 0.3634368 -0.2134101 0.906846
vn 0.2746029 -0.5634875 0.7791502
vn 0.2606187 0.5668257 0.7815284
vn 0.3606609 0.2353836 0.9025066
vn 0.6885207 0 0.7252168
vn 0.6885207 0 0.7252168
vn 0.6885207 0 0.7252168
vn 0.6885207 0 0.7252168
vn 0.2815404 0.6268093 -0.7265295
vn 0.06919321 0.9975415 0.01109467
vn 0.06415415 0.7215979 -0.6893336
vn 0.5892366 0.8057681 0.05948255
vn -0.07152129 0.9970041 0.02945532
vn -0.04260123 0.825752 -0.5624223
vn -0.6066508 0.7696525 0.1990221
vn -0.4279821 0.7882268 -0.4421877
vn 0.07589216 0.6457655 0.7597548
vn 0.2606187 0.5668257 0.7815284
vn -0.09296393 0.6377314 0.7646282
vn -0.2415188 0.5306902 0.8124264
vn -0.4279821 0.7882268 -0.4421877
vn -0.9373257 0.235159 0.2571392
vn -0.6697992 0.1843184 -0.7193023
vn -0.6066508 0.7696525 0.1990221
vn -0.9420114 -0.2110302 0.2609227
vn -0.6698022 -0.1606052 -0.7249628
vn -0.6316241 -0.7490839 0.1998109
vn -0.4531781 -0.771727 -0.4461693
vn -0.3438331 0.114877 0.9319775
vn -0.2415188 0.5306902 0.8124264
vn -0.3445424 -0.1018738 0.9332268
vn -0.2534418 -0.527938 0.8105855
vn -0.8227504 -0.426467 -0.3757761
vn -0.8227504 -0.426467 -0.3757761
vn -0.8227504 -0.426467 -0.3757761
vn -0.8227504 -0.426467 -0.3757761
vn -0.8227504 -0.426467 -0.3757761
vn -0.8227504 -0.426467 -0.3757761
vn -0.04486679 0.6496006 -0.7589506
vn -0.04486679 0.6496007 -0.7589505
vn -0.04486679 0.6496007 -0.7589506
vn -0.04486679 0.6496007 -0.7589506
vn 0.7652817 -0.3438177 -0.5441815
vn 0.7652817 -0.3438177 -0.5441815
vn 0.7652816 -0.3438177 -0.5441815
vn 0.7652817 -0.3438177 -0.5441815
vn -0.1334301 -0.958909 -0.2503794
vn -0.1334301 -0.958909 -0.2503794
vn -0.1334301 -0.958909 -0.2503794
vn -0.1334301 -0.958909 -0.2503794
vn -0.08632064 -0.6703157 -0.7370384
vn -0.08632064 -0.6703157 -0.7370384
vn -0.08632063 -0.6703157 -0.7370384
vn -0.08632063 -0.6703157 -0.7370384
vn -0.786667 0.4934288 -0.3710566
vn -0.786667 0.4934288 -0.3710566
vn -0.786667 0.4934288 -0.3710566
vn -0.786667 0.4934288 -0.3710566
vn -0.7866671 0.4934288 -0.3710566
vn -0.786667 0.4934288 -0.3710566
vn -0.123923 0.9532691 -0.2755376
vn -0.123923 0.9532691 -0.2755376
vn -0.123923 0.9532691 -0.2755376
vn -0.123923 0.9532691 -0.2755377
vn 0.7816929 0.2805375 -0.5570052
vn 0.7816929 0.2805375 -0.5570053
vn 0.7816929 0.2805375 -0.5570053
vn 0.7816929 0.2805375 -0.5570053
vn 0.2026181 0 0.9792579
vn 0.2026181 0 0.9792579
vn 0.2026181 0 0.9792579
vn 0.2026181 0 0.9792579
vn 0.2026181 0 0.9792579
vn 0.2026181 0 0.9792579
vn 0.5850227 -0.5272966 0.6162035
vn 0.5850227 -0.5272965 0.6162035
vn 0.5850227 -0.5272965 0.6162035
vn 0.5850227 -0.5272966 0.6162035
vn 0.9674271 0 0.2531497
vn 0.9674271 0 0.2531497
vn 0.9674271 0 0.2531497
vn 0.9674271 0 0.2531497
vn 0.5850227 0.5272965 0.6162036
vn 0.5850227 0.5272966 0.6162035
vn 0.5850227 0.5272966 0.6162036
vn 0.5850227 0.5272965 0.6162035

vt 1 1
vt -5.084759 -0.9850349
vt 1 -0.9850349
vt -5.084759 1
vt -5.084759 1
vt -11.16952 -0.9850349
vt -5.084759 -0.9850349
vt -11.16952 1
vt -17.25428 -0.9850349
vt -17.25428 1
vt -11.16952 -2.97007
vt -5.084759 -2.97007
vt 1 -0.9850349
vt 1 -2.97007
vt -17.25428 -2.97007
vt -11.16952 -4.955105
vt -5.084759 -4.955105
vt -17.25428 -4.955105
vt 1 -2.97007
vt -5.084759 -4.955105
vt 1 -4.955105
vt -5.084759 -2.97007
vt 0 1
vt 6.084759 -0.9850349
vt 6.084759 1
vt 0 -0.9850349
vt 12.16952 -0.9850349
vt 12.16952 1
vt 18.25428 -0.9850349
vt 18.25428 1
vt 6.084759 -2.97007
vt 0 -2.97007
vt 12.16952 -2.97007
vt 18.25428 -2.97007
vt 6.084759 -4.955105
vt 0 -4.955105
vt 12.16952 -4.955105
vt 18.25428 -4.955105
vt 0 1
vt 6.084759 -0.4572997
vt 6.084759 1
vt 0 -0.4572997
vt 12.16952 -0.4572997
vt 12.16952 1
vt 18.25428 -0.4572997
vt 18.25428 1
vt 6.084759 -1.914599
vt 0 -1.914599
vt 12.16952 -1.914599
vt 18.25428 -1.914599
vt 0 1
vt 1.985035 -0.4572997
vt 1.985035 1
vt 0 -0.4572997
vt 3.97007 -0.4572997
vt 3.97007 1
vt 5.955105 -0.4572997
vt 5.955105 1
vt 1.985035 -1.914599
vt 0 -1.914599
vt 5.955105 -1.914599
vt 3.97007 -1.914599
vt 1.985035 -0.4572997
vt 3.97007 -1.914599
vt 3.97007 -0.4572997
vt 1.985035 -1.914599
vt 0 1
vt 6.084759 -0.4572997
vt 6.084759 1
vt 0 -0.4572997
vt 12.16952 -0.4572997
vt 12.16952 1
vt 18.25428 -0.4572997
vt 18.25428 1
vt 6.084759 -1.914599
vt 0 -1.914599
vt 12.16952 -1.914599
vt 18.25428 -1.914599
vt 0 1
vt 1.985035 -0.4572997
vt 1.985035 1
vt 0 -0.4572997
vt 3.97007 -0.4572997
vt 3.97007 1
vt 5.955105 -0.4572997
vt 5.955105 1
vt 1.985035 -1.914599
vt 0 -1.914599
vt 3.97007 -1.914599
vt 5.955105 -1.914599
vt 5.955105 1
vt 1 -0.9850349
vt 3.97007 1
vt 5.955105 1
vt 1 1
vt 1 -0.9850349
vt 1 -0.9850349
vt -5.084759 -0.9850349
vt -5.084759 -0.9850349
vt 1 -0.9850349
vt -5.084759 -0.9850349
vt -5.084759 1
vt -5.084759 1
vt -5.084759 -0.9850349
vt 6.084759 1
vt 1 1
vt 0 1
vt -5.084759 1
vt -5.084759 -2.97007
vt 1 -2.97007
vt 1 -2.97007
vt -5.084759 -2.97007
vt 1.985035 1
vt 1 -4.955105
vt 0 1
vt 1.985035 1
vt 1 -2.97007
vt 1 -4.955105
vt 18.25428 1
vt -5.084759 -4.955105
vt 12.16952 1
vt 1 -4.955105
vt -5.084759 -4.955105
vt -5.084759 -2.97007
vt -5.084759 -2.97007
vt -5.084759 -4.955105
vt 18.25428 -2.97007
vt 1.985035 -1.914599
vt 18.25428 -0.9850349
vt 18.25428 -2.97007
vt 3.97007 -1.914599
vt 1.985035 -1.914599
vt 1.985035 -1.914599
vt 1.985035 -0.4572997
vt 1.985035 -0.4572997
vt 1.985035 -1.914599
vt 1.985035 -0.4572997
vt 3.97007 -0.4572997
vt 3.97007 -0.4572997
vt 1.985035 -0.4572997
vt 3.97007 -0.4572997
vt 3.97007 -1.914599
vt 3.97007 -1.914599
vt 3.97007 -0.4572997

g Meat Possibly Rat.obj
usemtl Meat Possibly Rat
usemap Meat Possibly Rat
f 1/1/1 3/3/3 2/2/2
f 1/1/1 2/2/2 4/4/4
f 5/5/5 7/7/7 6/6/6
f 5/5/5 6/6/6 8/8/8
f 8/8/8 6/6/6 9/9/9
f 8/8/8 9/9/9 10/10/10
f 7/7/7 11/11/11 6/6/6
f 7/7/7 12/12/12 11/11/11
f 13/13/13 12/12/12 7/7/7
f 13/13/13 14/14/14 12/12/12
f 6/6/6 11/11/11 15/15/15
f 6/6/6 15/15/15 9/9/9
f 12/12/12 16/16/16 11/11/11
f 12/12/12 17/17/17 16/16/16
f 11/11/11 16/16/16 18/18/18
f 11/11/11 18/18/18 15/15/15
f 19/19/19 21/21/21 20/20/20
f 19/19/19 20/20/20 22/22/22
f 23/23/23 25/25/25 24/24/24
f 23/23/23 24/24/24 26/26/26
f 25/25/25 27/27/27 24/24/24
f 25/25/25 28/28/28 27/27/27
f 28/28/28 29/29/29 27/27/27
f 28/28/28 30/30/30 29/29/29
f 26/26/26 24/24/24 31/31/31
f 26/26/26 31/31/31 32/32/32
f 24/24/24 27/27/27 33/33/33
f 24/24/24 33/33/33 31/31/31
f 27/27/27 29/29/29 34/34/34
f 27/27/27 34/34/34 33/33/33
f 32/32/32 31/31/31 35/35/35
f 32/32/32 35/35/35 36/36/36
f 31/31/31 33/33/33 37/37/37
f 31/31/31 37/37/37 35/35/35
f 33/33/33 34/34/34 38/38/38
f 33/33/33 38/38/38 37/37/37
f 39/39/39 41/41/41 40/40/40
f 39/39/39 40/40/40 42/42/42
f 41/41/41 43/43/43 40/40/40
f 41/41/41 44/44/44 43/43/43
f 44/44/44 45/45/45 43/43/43
f 44/44/44 46/46/46 45/45/45
f 42/42/42 40/40/40 47/47/47
f 42/42/42 47/47/47 48/48/48
f 40/40/40 43/43/43 49/49/49
f 40/40/40 49/49/49 47/47/47
f 43/43/43 45/45/45 50/50/50
f 43/43/43 50/50/50 49/49/49
f 51/51/51 53/53/53 52/52/52
f 51/51/51 52/52/52 54/54/54
f 53/53/53 55/55/55 52/52/52
f 53/53/53 56/56/56 55/55/55
f 56/56/56 57/57/57 55/55/55
f 56/56/56 58/58/58 57/57/57
f 54/54/54 52/52/52 59/59/59
f 54/54/54 59/59/59 60/60/60
f 55/55/55 57/57/57 61/61/61
f 55/55/55 61/61/61 62/62/62
f 63/63/63 65/65/65 64/64/64
f 63/63/63 64/64/64 66/66/66
f 67/67/67 69/69/69 68/68/68
f 67/67/67 68/68/68 70/70/70
f 69/69/69 71/71/71 68/68/68
f 69/69/69 72/72/72 71/71/71
f 72/72/72 73/73/73 71/71/71
f 72/72/72 74/74/74 73/73/73
f 70/70/70 68/68/68 75/75/75
f 70/70/70 75/75/75 76/76/76
f 68/68/68 71/71/71 77/77/77
f 68/68/68 77/77/77 75/75/75
f 71/71/71 73/73/73 78/78/78
f 71/71/71 78/78/78 77/77/77
f 79/79/79 81/81/81 80/80/80
f 79/79/79 80/80/80 82/82/82
f 81/81/81 83/83/83 80/80/80
f 81/81/81 84/84/84 83/83/83
f 84/84/84 85/85/85 83/83/83
f 84/84/84 86/86/86 85/85/85
f 82/82/82 80/80/80 87/87/87
f 82/82/82 87/87/87 88/88/88
f 80/80/80 83/83/83 89/89/89
f 80/80/80 89/89/89 87/87/87
f 83/83/83 85/85/85 90/90/90
f 83/83/83 90/90/90 89/89/89
f 91/91/91 93/93/93 92/92/92
f 94/94/94 96/96/96 95/95/95
f 97/97/97 99/99/99 98/98/98
f 97/97/97 98/98/98 100/100/100
f 101/101/101 103/103/103 102/102/102
f 101/101/101 102/102/102 104/104/104
f 105/105/105 107/107/107 106/106/106
f 105/105/105 106/106/106 108/108/108
f 109/109/109 111/111/111 110/110/110
f 109/109/109 110/110/110 112/112/112
f 113/113/113 115/115/115 114/114/114
f 116/116/116 118/118/118 117/117/117
f 119/119/119 121/121/121 120/120/120
f 119/119/119 120/120/120 122/122/122
f 123/123/123 125/125/125 124/124/124
f 123/123/123 124/124/124 126/126/126
f 127/127/127 129/129/129 128/128/128
f 130/130/130 132/132/132 131/131/131
f 133/133/133 135/135/135 134/134/134
f 133/133/133 134/134/134 136/136/136
f 137/137/137 139/139/139 138/138/138
f 137/137/137 138/138/138 140/140/140
f 141/141/141 143/143/143 142/142/142
f 141/141/141 142/142/142 144/144/144
