#Object.obj

v 758.2558 -120.2195 31.85411
v 803.5865 -71.49026 24.97328
v 803.5865 -120.2195 31.85414
v 758.2558 -71.49026 24.97326
v 814.1122 -120.2194 31.85414
v 859.4429 -71.49026 24.9733
v 859.4429 -120.2194 31.85416
v 814.1122 -71.49026 24.97328
v 869.9687 -120.2194 31.85417
v 915.2994 -71.49026 24.97333
v 915.2994 -120.2194 31.85419
v 869.9687 -71.49026 24.97331
v 702.3994 -120.2195 31.85409
v 747.73 -71.49027 24.97325
v 747.73 -120.2195 31.85411
v 702.3994 -71.49027 24.97323
v 702.3994 -206.1298 43.98515
v 747.73 -157.4006 37.10431
v 747.73 -206.1298 43.98517
v 702.3994 -157.4006 37.10429
v 758.2558 -206.1298 43.98518
v 803.5865 -157.4006 37.10434
v 803.5865 -206.1298 43.9852
v 758.2558 -157.4006 37.10432
v 814.1122 -206.1298 43.9852
v 859.4429 -157.4006 37.10437
v 859.4429 -206.1298 43.98523
v 814.1122 -157.4006 37.10434
v 869.9687 -206.1298 43.98523
v 915.2994 -157.4006 37.10439
v 915.2994 -206.1297 43.98525
v 869.9687 -157.4006 37.10437
v 702.3994 -1237.053 189.5581
v 747.7301 -1188.324 182.6772
v 747.7301 -1237.053 189.5581
v 702.3994 -1188.324 182.6772
v 758.2558 -1237.053 189.5581
v 803.5865 -1188.324 182.6773
v 803.5865 -1237.053 189.5582
v 758.2558 -1188.324 182.6772
v 814.1122 -1237.053 189.5582
v 859.443 -1188.324 182.6773
v 859.443 -1237.053 189.5582
v 814.1122 -1188.324 182.6773
v 869.9687 -1237.053 189.5582
v 915.2994 -1188.324 182.6773
v 915.2994 -1237.053 189.5582
v 869.9687 -1188.324 182.6773
v 2200.092 -34.30912 19.72303
v 2245.423 14.42007 12.8422
v 2245.423 -34.30911 19.72306
v 2200.092 14.42007 12.84217
v 2144.236 -34.30912 19.72301
v 2189.566 14.42007 12.84217
v 2189.566 -34.30912 19.72303
v 2144.236 14.42007 12.84215
v 2088.379 -34.30909 19.72322
v 2133.71 14.4201 12.84239
v 2133.71 -34.30909 19.72325
v 2088.379 14.4201 12.84236
v 2032.523 -34.3091 19.7232
v 2077.854 14.4201 12.84236
v 2077.854 -34.30909 19.72322
v 2032.523 14.4201 12.84234
v 2032.523 -807.5019 128.9028
v 2077.854 -758.7726 122.0219
v 2077.854 -807.5019 128.9028
v 2032.523 -758.7726 122.0219
v 2088.379 -807.5019 128.9028
v 2133.71 -758.7726 122.0219
v 2133.71 -807.5019 128.9028
v 2088.379 -758.7726 122.0219
v 2144.236 -807.502 128.9026
v 2189.566 -758.7727 122.0217
v 2189.566 -807.502 128.9026
v 2144.236 -758.7727 122.0217
v 2200.092 -807.502 128.9026
v 2245.423 -758.7727 122.0218
v 2245.423 -807.502 128.9026
v 2200.092 -758.7727 122.0217
v 2032.523 -1408.874 213.8204
v 2077.854 -1360.144 206.9395
v 2077.854 -1408.874 213.8204
v 2032.523 -1360.144 206.9395
v 2088.379 -1408.874 213.8204
v 2133.71 -1360.144 206.9396
v 2133.71 -1408.874 213.8204
v 2088.379 -1360.144 206.9395
v 2144.236 -1408.874 213.8202
v 2189.566 -1360.145 206.9393
v 2189.566 -1408.874 213.8202
v 2144.236 -1360.145 206.9393
v 2200.092 -1408.874 213.8202
v 2245.423 -1360.145 206.9394
v 2245.423 -1408.874 213.8202
v 2200.092 -1360.145 206.9394
v 2200.092 -1322.963 201.6892
v 2245.423 -1274.234 194.8083
v 2245.423 -1322.963 201.6892
v 2200.092 -1274.234 194.8083
v 2144.236 -1322.963 201.6891
v 2189.566 -1274.234 194.8083
v 2189.566 -1322.963 201.6891
v 2144.236 -1274.234 194.8083
v 2088.379 -1322.963 201.6893
v 2133.71 -1274.234 194.8085
v 2133.71 -1322.963 201.6894
v 2088.379 -1274.234 194.8085
v 2032.523 -1322.963 201.6893
v 2077.854 -1274.234 194.8085
v 2077.854 -1322.963 201.6893
v 2032.523 -1274.234 194.8085
v 5061.415 -120.2194 31.85346
v 5106.746 -71.49026 24.97262
v 5106.746 -120.2194 31.85348
v 5061.415 -71.49026 24.9726
v 5117.271 -120.2194 31.85349
v 5162.603 -71.49025 24.97265
v 5162.603 -120.2194 31.85351
v 5117.271 -71.49026 24.97263
v 5173.128 -120.2194 31.85351
v 5218.459 -71.49025 24.97267
v 5218.459 -120.2194 31.85353
v 5173.128 -71.49025 24.97265
v 5005.559 -120.2195 31.85343
v 5050.89 -71.49026 24.9726
v 5050.89 -120.2194 31.85345
v 5005.559 -71.49026 24.97257
v 5005.559 -206.1298 43.9845
v 5050.89 -157.4006 37.10366
v 5050.89 -206.1298 43.98452
v 5005.559 -157.4006 37.10363
v 5061.415 -206.1298 43.98452
v 5106.746 -157.4006 37.10368
v 5106.746 -206.1297 43.98454
v 5061.415 -157.4006 37.10366
v 5117.271 -206.1297 43.98455
v 5162.603 -157.4006 37.10371
v 5162.603 -206.1297 43.98457
v 5117.271 -157.4006 37.10369
v 5173.128 -206.1297 43.98457
v 5218.459 -157.4006 37.10374
v 5218.459 -206.1297 43.9846
v 5173.128 -157.4006 37.10371
v 5061.415 -1237.053 189.5575
v 5106.746 -1188.324 182.6766
v 5106.746 -1237.053 189.5575
v 5061.415 -1188.324 182.6766
v 5117.271 -1237.053 189.5575
v 5162.603 -1188.324 182.6767
v 5162.603 -1237.053 189.5575
v 5117.271 -1188.324 182.6766
v 5173.128 -1237.053 189.5575
v 5218.459 -1188.324 182.6767
v 5218.459 -1237.053 189.5575
v 5173.128 -1188.324 182.6767
v 6503.252 -34.30911 19.72238
v 6548.583 14.42008 12.84154
v 6548.583 -34.3091 19.7224
v 6503.252 14.42008 12.84152
v 6447.396 -34.30911 19.72235
v 6492.727 14.42008 12.84151
v 6492.727 -34.30911 19.72237
v 6447.396 14.42007 12.84149
v 6391.539 -34.30909 19.72257
v 6436.87 14.4201 12.84173
v 6436.87 -34.30908 19.72259
v 6391.539 14.4201 12.84171
v 6335.683 -34.30909 19.72254
v 6381.014 14.4201 12.8417
v 6381.014 -34.30909 19.72256
v 6335.683 14.4201 12.84168
v 6335.683 -807.5019 128.9021
v 6381.014 -758.7726 122.0213
v 6381.014 -807.5019 128.9021
v 6335.683 -758.7726 122.0212
v 6391.539 -807.5019 128.9021
v 6436.87 -758.7726 122.0213
v 6436.87 -807.5019 128.9022
v 6391.539 -758.7726 122.0213
v 6447.396 -807.502 128.9019
v 6492.727 -758.7727 122.0211
v 6492.727 -807.502 128.9019
v 6447.396 -758.7727 122.021
v 6503.252 -807.502 128.9019
v 6548.583 -758.7727 122.0211
v 6548.583 -807.502 128.902
v 6503.252 -758.7727 122.0211
v 6335.683 -1408.874 213.8197
v 6381.014 -1360.144 206.9389
v 6381.014 -1408.874 213.8197
v 6335.683 -1360.144 206.9389
v 6391.539 -1408.874 213.8197
v 6436.87 -1360.144 206.9389
v 6436.87 -1408.874 213.8198
v 6391.539 -1360.144 206.9389
v 6447.396 -1408.874 213.8195
v 6492.727 -1360.145 206.9387
v 6492.727 -1408.874 213.8196
v 6447.396 -1360.145 206.9387
v 6503.252 -1408.874 213.8196
v 6548.583 -1360.145 206.9387
v 6548.583 -1408.874 213.8196
v 6503.252 -1360.145 206.9387
v 6503.252 -1322.963 201.6885
v 6548.583 -1274.234 194.8077
v 6548.583 -1322.963 201.6885
v 6503.252 -1274.234 194.8076
v 6447.396 -1322.963 201.6885
v 6492.727 -1274.234 194.8076
v 6492.727 -1322.963 201.6885
v 6447.396 -1274.234 194.8076
v 6391.539 -1322.963 201.6887
v 6436.87 -1274.234 194.8079
v 6436.87 -1322.963 201.6887
v 6391.539 -1274.234 194.8078
v 6335.683 -1322.963 201.6887
v 6381.014 -1274.234 194.8078
v 6381.014 -1322.963 201.6887
v 6335.683 -1274.234 194.8078

vn 0 0.1398191 0.9901771
vn 0 0.1398191 0.9901771
vn 0 0.1398191 0.9901771
vn 0 0.1398191 0.9901771
vn 0 0.1398191 0.9901771
vn 0 0.1398191 0.9901771
vn 0 0.1398191 0.9901771
vn 0 0.1398191 0.9901771
vn 0 0.1398191 0.9901771
vn 0 0.1398191 0.9901771
vn 0 0.1398191 0.9901771
vn 0 0.1398191 0.9901771
vn 0 0.1398191 0.9901771
vn 0 0.1398191 0.9901771
vn 0 0.1398191 0.9901771
vn 0 0.1398191 0.9901771
vn 0 0.1398191 0.9901771
vn 0 0.1398191 0.9901771
vn 0 0.1398191 0.9901771
vn 0 0.1398191 0.9901771
vn 0 0.1398191 0.9901771
vn 0 0.1398191 0.9901771
vn 0 0.1398191 0.9901771
vn 0 0.1398191 0.9901771
vn 0 0.1398191 0.9901771
vn 0 0.1398191 0.9901771
vn 0 0.1398191 0.9901771
vn 0 0.1398191 0.9901771
vn 0 0.1398191 0.9901771
vn 0 0.1398191 0.9901771
vn 0 0.1398191 0.9901771
vn 0 0.1398191 0.9901771
vn 0 0.1398192 0.9901771
vn 0 0.1398192 0.9901771
vn 0 0.1398192 0.9901771
vn 0 0.1398192 0.9901771
vn 0 0.1398192 0.9901771
vn 0 0.1398192 0.9901771
vn 0 0.1398192 0.9901771
vn 0 0.1398192 0.9901771
vn 0 0.1398192 0.9901771
vn 0 0.1398192 0.9901771
vn 0 0.1398192 0.9901771
vn 0 0.1398192 0.9901771
vn 0 0.1398192 0.9901771
vn 0 0.1398192 0.9901771
vn 0 0.1398192 0.9901771
vn 0 0.1398192 0.9901771
vn 0 0.1398191 0.9901771
vn 0 0.1398191 0.9901771
vn 0 0.1398191 0.9901771
vn 0 0.139819 0.9901771
vn 0 0.1398191 0.9901771
vn 0 0.1398191 0.9901771
vn 0 0.1398191 0.9901771
vn 0 0.1398191 0.9901771
vn 0 0.1398191 0.9901771
vn 0 0.1398191 0.9901771
vn 0 0.1398191 0.9901771
vn 0 0.1398191 0.9901771
vn 0 0.1398191 0.9901771
vn 0 0.1398191 0.9901771
vn 0 0.1398191 0.9901771
vn 0 0.1398191 0.9901771
vn 0 0.1398191 0.9901771
vn 0 0.1398191 0.9901771
vn 0 0.139819 0.9901771
vn 0 0.1398192 0.9901771
vn 0 0.139819 0.9901771
vn 0 0.139819 0.9901771
vn 0 0.1398189 0.9901771
vn 0 0.139819 0.9901771
vn 0 0.139819 0.9901771
vn 0 0.139819 0.9901771
vn 0 0.1398189 0.9901771
vn 0 0.139819 0.9901771
vn 0 0.139819 0.9901771
vn 0 0.139819 0.9901771
vn 0 0.139819 0.9901771
vn 0 0.1398189 0.9901771
vn 0 0.1398189 0.9901771
vn 0 0.1398189 0.9901771
vn 0 0.1398189 0.9901771
vn 0 0.1398189 0.9901771
vn 0 0.1398189 0.9901771
vn 0 0.1398189 0.9901771
vn 0 0.1398189 0.9901771
vn 0 0.1398189 0.9901771
vn 0 0.1398189 0.9901771
vn 0 0.1398189 0.9901771
vn 0 0.1398189 0.9901771
vn 0 0.1398189 0.9901771
vn 0 0.1398189 0.9901771
vn 0 0.1398189 0.9901771
vn 0 0.1398189 0.9901771
vn 0 0.1398189 0.9901771
vn 0 0.1398189 0.9901771
vn 0 0.1398189 0.9901771
vn 0 0.1398189 0.9901771
vn 0 0.1398189 0.9901771
vn 0 0.1398189 0.9901771
vn 0 0.1398189 0.9901771
vn 0 0.1398189 0.9901771
vn 0 0.1398189 0.9901771
vn 0 0.1398189 0.9901771
vn 0 0.1398189 0.9901771
vn 0 0.1398189 0.9901771
vn 0 0.1398189 0.9901771
vn 0 0.1398189 0.9901771
vn 0 0.1398189 0.9901771
vn 0 0.1398189 0.9901771
vn 0 0.1398189 0.9901771
vn 0 0.1398191 0.9901771
vn 0 0.1398191 0.9901771
vn 0 0.139819 0.9901771
vn 0 0.1398191 0.9901771
vn 0 0.1398191 0.9901771
vn 0 0.1398191 0.9901771
vn 0 0.139819 0.9901771
vn 0 0.1398191 0.9901771
vn 0 0.1398191 0.9901771
vn 0 0.1398191 0.9901771
vn 0 0.1398191 0.9901771
vn 0 0.139819 0.9901771
vn 0 0.1398191 0.9901771
vn 0 0.1398191 0.9901771
vn 0 0.1398191 0.9901771
vn 0 0.139819 0.9901771
vn 0 0.1398191 0.9901771
vn 0 0.1398191 0.9901771
vn 0 0.139819 0.9901771
vn 0 0.1398191 0.9901771
vn 0 0.1398191 0.9901771
vn 0 0.1398191 0.9901771
vn 0 0.1398191 0.9901771
vn 0 0.139819 0.9901771
vn 0 0.1398191 0.9901771
vn 0 0.1398191 0.9901771
vn 0 0.139819 0.9901771
vn 0 0.1398191 0.9901771
vn 0 0.1398191 0.9901771
vn 0 0.1398191 0.9901771
vn 0 0.1398191 0.9901771
vn 0 0.139819 0.9901771
vn 0 0.1398192 0.9901771
vn 0 0.1398192 0.9901771
vn 0 0.1398192 0.9901771
vn 0 0.1398192 0.9901771
vn 0 0.1398192 0.9901771
vn 0 0.1398192 0.9901771
vn 0 0.1398192 0.9901771
vn 0 0.1398192 0.9901771
vn 0 0.1398192 0.9901771
vn 0 0.1398192 0.9901771
vn 0 0.1398192 0.9901771
vn 0 0.1398192 0.9901771
vn 0 0.1398191 0.9901771
vn 0 0.1398191 0.9901771
vn 0 0.1398191 0.9901771
vn 0 0.139819 0.9901771
vn 0 0.1398191 0.9901771
vn 0 0.1398191 0.9901771
vn 0 0.1398191 0.9901771
vn 0 0.139819 0.9901771
vn 0 0.1398191 0.9901771
vn 0 0.1398191 0.9901771
vn 0 0.1398191 0.9901771
vn 0 0.1398191 0.9901771
vn 0 0.1398191 0.9901771
vn 0 0.1398191 0.9901771
vn 0 0.1398191 0.9901771
vn 0 0.139819 0.9901771
vn 0 0.1398191 0.9901771
vn 0 0.1398191 0.9901771
vn 0 0.1398192 0.9901771
vn 0 0.139819 0.9901771
vn 0 0.1398191 0.9901771
vn 0 0.1398191 0.9901771
vn 0 0.1398192 0.9901771
vn 0 0.139819 0.9901771
vn 0 0.1398191 0.9901771
vn 0 0.1398191 0.9901771
vn 0 0.139819 0.9901771
vn 0 0.1398192 0.9901771
vn 0 0.1398191 0.9901771
vn 0 0.1398191 0.9901771
vn 0 0.139819 0.9901771
vn 0 0.1398192 0.9901771
vn 0 0.1398189 0.9901771
vn 0 0.1398189 0.9901771
vn 0 0.1398189 0.9901771
vn 0 0.1398189 0.9901771
vn 0 0.1398189 0.9901771
vn 0 0.1398189 0.9901771
vn 0 0.1398189 0.9901771
vn 0 0.1398189 0.9901771
vn 0 0.1398189 0.9901771
vn 0 0.1398189 0.9901771
vn 0 0.1398189 0.9901771
vn 0 0.1398189 0.9901771
vn 0 0.1398189 0.9901771
vn 0 0.1398189 0.9901771
vn 0 0.1398189 0.9901771
vn 0 0.1398189 0.9901771
vn 0 0.1398189 0.9901771
vn 0 0.1398189 0.9901771
vn 0 0.1398189 0.9901771
vn 0 0.1398189 0.9901771
vn 0 0.1398189 0.9901771
vn 0 0.1398189 0.9901771
vn 0 0.1398189 0.9901771
vn 0 0.1398189 0.9901771
vn 0 0.1398189 0.9901771
vn 0 0.1398189 0.9901771
vn 0 0.1398189 0.9901771
vn 0 0.1398189 0.9901771
vn 0 0.1398189 0.9901771
vn 0 0.1398189 0.9901771
vn 0 0.1398189 0.9901771
vn 0 0.1398189 0.9901771

vt 0 1
vt 45.33071 -48.2126
vt 45.33071 1
vt 0 -48.2126
vt 0 1
vt 45.33071 -48.2126
vt 45.33071 1
vt 0 -48.2126
vt 0 1
vt 45.33071 -48.2126
vt 45.33071 1
vt 0 -48.2126
vt 0 1
vt 45.33071 -48.2126
vt 45.33071 1
vt 0 -48.2126
vt 0 1
vt 45.33071 -48.2126
vt 45.33071 1
vt 0 -48.2126
vt 0 1
vt 45.33071 -48.2126
vt 45.33071 1
vt 0 -48.2126
vt 0 1
vt 45.33071 -48.2126
vt 45.33071 1
vt 0 -48.2126
vt 0 1
vt 45.33071 -48.2126
vt 45.33071 1
vt 0 -48.2126
vt 0 1
vt 45.33071 -48.2126
vt 45.33071 1
vt 0 -48.2126
vt 0 1
vt 45.33071 -48.2126
vt 45.33071 1
vt 0 -48.2126
vt 0 1
vt 45.33071 -48.2126
vt 45.33071 1
vt 0 -48.2126
vt 0 1
vt 45.33071 -48.2126
vt 45.33071 1
vt 0 -48.2126
vt 0 1
vt 45.33071 -48.2126
vt 45.33071 1
vt 0 -48.2126
vt 0 1
vt 45.33071 -48.2126
vt 45.33071 1
vt 0 -48.2126
vt 0 1
vt 45.33071 -48.2126
vt 45.33071 1
vt 0 -48.2126
vt 0 1
vt 45.33071 -48.2126
vt 45.33071 1
vt 0 -48.2126
vt 0 1
vt 45.33071 -48.2126
vt 45.33071 1
vt 0 -48.2126
vt 0 1
vt 45.33071 -48.2126
vt 45.33071 1
vt 0 -48.2126
vt 0 1
vt 45.33071 -48.2126
vt 45.33071 1
vt 0 -48.2126
vt 0 1
vt 45.33071 -48.2126
vt 45.33071 1
vt 0 -48.2126
vt 0 1
vt 45.33071 -48.2126
vt 45.33071 1
vt 0 -48.2126
vt 0 1
vt 45.33071 -48.2126
vt 45.33071 1
vt 0 -48.2126
vt 0 1
vt 45.33071 -48.2126
vt 45.33071 1
vt 0 -48.2126
vt 0 1
vt 45.33071 -48.2126
vt 45.33071 1
vt 0 -48.2126
vt 0 1
vt 45.33071 -48.2126
vt 45.33071 1
vt 0 -48.2126
vt 0 1
vt 45.33071 -48.2126
vt 45.33071 1
vt 0 -48.2126
vt 0 1
vt 45.33071 -48.2126
vt 45.33071 1
vt 0 -48.2126
vt 0 1
vt 45.33071 -48.2126
vt 45.33071 1
vt 0 -48.2126
vt 0 1
vt 45.33071 -48.2126
vt 45.33071 1
vt 0 -48.2126
vt 0 1
vt 45.33071 -48.2126
vt 45.33071 1
vt 0 -48.2126
vt 0 1
vt 45.33071 -48.2126
vt 45.33071 1
vt 0 -48.2126
vt 0 1
vt 45.33071 -48.2126
vt 45.33071 1
vt 0 -48.2126
vt 0 1
vt 45.33071 -48.2126
vt 45.33071 1
vt 0 -48.2126
vt 0 1
vt 45.33071 -48.2126
vt 45.33071 1
vt 0 -48.2126
vt 0 1
vt 45.33071 -48.2126
vt 45.33071 1
vt 0 -48.2126
vt 0 1
vt 45.33071 -48.2126
vt 45.33071 1
vt 0 -48.2126
vt 0 1
vt 45.33071 -48.2126
vt 45.33071 1
vt 0 -48.2126
vt 0 1
vt 45.33071 -48.2126
vt 45.33071 1
vt 0 -48.2126
vt 0 1
vt 45.33071 -48.2126
vt 45.33071 1
vt 0 -48.2126
vt 0 1
vt 45.33071 -48.2126
vt 45.33071 1
vt 0 -48.2126
vt 0 1
vt 45.33071 -48.2126
vt 45.33071 1
vt 0 -48.2126
vt 0 1
vt 45.33071 -48.2126
vt 45.33071 1
vt 0 -48.2126
vt 0 1
vt 45.33071 -48.2126
vt 45.33071 1
vt 0 -48.2126
vt 0 1
vt 45.33071 -48.2126
vt 45.33071 1
vt 0 -48.2126
vt 0 1
vt 45.33071 -48.2126
vt 45.33071 1
vt 0 -48.2126
vt 0 1
vt 45.33071 -48.2126
vt 45.33071 1
vt 0 -48.2126
vt 0 1
vt 45.33071 -48.2126
vt 45.33071 1
vt 0 -48.2126
vt 0 1
vt 45.33071 -48.2126
vt 45.33071 1
vt 0 -48.2126
vt 0 1
vt 45.33071 -48.2126
vt 45.33071 1
vt 0 -48.2126
vt 0 1
vt 45.33071 -48.2126
vt 45.33071 1
vt 0 -48.2126
vt 0 1
vt 45.33071 -48.2126
vt 45.33071 1
vt 0 -48.2126
vt 0 1
vt 45.33071 -48.2126
vt 45.33071 1
vt 0 -48.2126
vt 0 1
vt 45.33071 -48.2126
vt 45.33071 1
vt 0 -48.2126
vt 0 1
vt 45.33071 -48.2126
vt 45.33071 1
vt 0 -48.2126
vt 0 1
vt 45.33071 -48.2126
vt 45.33071 1
vt 0 -48.2126

g Object.obj
usemtl Object
usemap Object
f 1/1/1 3/3/3 2/2/2
f 2/2/2 4/4/4 1/1/1
f 5/5/5 7/7/7 6/6/6
f 6/6/6 8/8/8 5/5/5
f 9/9/9 11/11/11 10/10/10
f 10/10/10 12/12/12 9/9/9
f 13/13/13 15/15/15 14/14/14
f 14/14/14 16/16/16 13/13/13
f 17/17/17 19/19/19 18/18/18
f 18/18/18 20/20/20 17/17/17
f 21/21/21 23/23/23 22/22/22
f 22/22/22 24/24/24 21/21/21
f 25/25/25 27/27/27 26/26/26
f 26/26/26 28/28/28 25/25/25
f 29/29/29 31/31/31 30/30/30
f 30/30/30 32/32/32 29/29/29
f 33/33/33 35/35/35 34/34/34
f 34/34/34 36/36/36 33/33/33
f 37/37/37 39/39/39 38/38/38
f 38/38/38 40/40/40 37/37/37
f 41/41/41 43/43/43 42/42/42
f 42/42/42 44/44/44 41/41/41
f 45/45/45 47/47/47 46/46/46
f 46/46/46 48/48/48 45/45/45
f 49/49/49 51/51/51 50/50/50
f 50/50/50 52/52/52 49/49/49
f 53/53/53 55/55/55 54/54/54
f 54/54/54 56/56/56 53/53/53
f 57/57/57 59/59/59 58/58/58
f 58/58/58 60/60/60 57/57/57
f 61/61/61 63/63/63 62/62/62
f 62/62/62 64/64/64 61/61/61
f 65/65/65 67/67/67 66/66/66
f 66/66/66 68/68/68 65/65/65
f 69/69/69 71/71/71 70/70/70
f 70/70/70 72/72/72 69/69/69
f 73/73/73 75/75/75 74/74/74
f 74/74/74 76/76/76 73/73/73
f 77/77/77 79/79/79 78/78/78
f 78/78/78 80/80/80 77/77/77
f 81/81/81 83/83/83 82/82/82
f 82/82/82 84/84/84 81/81/81
f 85/85/85 87/87/87 86/86/86
f 86/86/86 88/88/88 85/85/85
f 89/89/89 91/91/91 90/90/90
f 90/90/90 92/92/92 89/89/89
f 93/93/93 95/95/95 94/94/94
f 94/94/94 96/96/96 93/93/93
f 97/97/97 99/99/99 98/98/98
f 98/98/98 100/100/100 97/97/97
f 101/101/101 103/103/103 102/102/102
f 102/102/102 104/104/104 101/101/101
f 105/105/105 107/107/107 106/106/106
f 106/106/106 108/108/108 105/105/105
f 109/109/109 111/111/111 110/110/110
f 110/110/110 112/112/112 109/109/109
f 113/113/113 115/115/115 114/114/114
f 114/114/114 116/116/116 113/113/113
f 117/117/117 119/119/119 118/118/118
f 118/118/118 120/120/120 117/117/117
f 121/121/121 123/123/123 122/122/122
f 122/122/122 124/124/124 121/121/121
f 125/125/125 127/127/127 126/126/126
f 126/126/126 128/128/128 125/125/125
f 129/129/129 131/131/131 130/130/130
f 130/130/130 132/132/132 129/129/129
f 133/133/133 135/135/135 134/134/134
f 134/134/134 136/136/136 133/133/133
f 137/137/137 139/139/139 138/138/138
f 138/138/138 140/140/140 137/137/137
f 141/141/141 143/143/143 142/142/142
f 142/142/142 144/144/144 141/141/141
f 145/145/145 147/147/147 146/146/146
f 146/146/146 148/148/148 145/145/145
f 149/149/149 151/151/151 150/150/150
f 150/150/150 152/152/152 149/149/149
f 153/153/153 155/155/155 154/154/154
f 154/154/154 156/156/156 153/153/153
f 157/157/157 159/159/159 158/158/158
f 158/158/158 160/160/160 157/157/157
f 161/161/161 163/163/163 162/162/162
f 162/162/162 164/164/164 161/161/161
f 165/165/165 167/167/167 166/166/166
f 166/166/166 168/168/168 165/165/165
f 169/169/169 171/171/171 170/170/170
f 170/170/170 172/172/172 169/169/169
f 173/173/173 175/175/175 174/174/174
f 174/174/174 176/176/176 173/173/173
f 177/177/177 179/179/179 178/178/178
f 178/178/178 180/180/180 177/177/177
f 181/181/181 183/183/183 182/182/182
f 182/182/182 184/184/184 181/181/181
f 185/185/185 187/187/187 186/186/186
f 186/186/186 188/188/188 185/185/185
f 189/189/189 191/191/191 190/190/190
f 190/190/190 192/192/192 189/189/189
f 193/193/193 195/195/195 194/194/194
f 194/194/194 196/196/196 193/193/193
f 197/197/197 199/199/199 198/198/198
f 198/198/198 200/200/200 197/197/197
f 201/201/201 203/203/203 202/202/202
f 202/202/202 204/204/204 201/201/201
f 205/205/205 207/207/207 206/206/206
f 206/206/206 208/208/208 205/205/205
f 209/209/209 211/211/211 210/210/210
f 210/210/210 212/212/212 209/209/209
f 213/213/213 215/215/215 214/214/214
f 214/214/214 216/216/216 213/213/213
f 217/217/217 219/219/219 218/218/218
f 218/218/218 220/220/220 217/217/217
