#Object001.obj

v 5.911085 7.254656 110.4073
v 5.911085 8.858818 110.4073
v 5.911085 7.254656 0
v 5.911084 8.85882 0
v 5.911084 8.85882 0
v -5.911085 7.254656 0
v -5.911084 8.85882 0
v -3.981858 10.96354 1.929226
v 3.981858 10.96354 1.929226
v -5.911084 8.858818 110.4073
v 5.911085 7.254656 110.4073
v -5.911084 7.254656 110.4073
v 3.981859 10.96354 108.4781
v -3.981858 10.96354 108.4781
v 3.981858 10.96354 1.929226
v -3.981858 10.96354 1.929226
v -5.911084 8.858818 110.4073
v -3.981858 10.96354 1.929226
v -3.981858 10.96354 108.4781
v -5.911084 8.858818 110.4073
v -5.911084 7.254656 110.4073
v -5.911085 7.254656 0
v -5.911084 8.85882 0
v 21.8175 7.254656 110.4073
v 21.8175 8.858818 110.4073
v 21.8175 7.254656 0
v 21.8175 8.85882 0
v 21.8175 7.254656 110.4073
v 9.995334 7.254656 110.4073
v 9.995334 8.858818 110.4073
v 19.88827 10.96354 108.4781
v 11.92456 10.96354 108.4781
v 11.92456 10.96354 1.929226
v 19.88828 10.96354 1.929226
v 9.995334 8.858818 110.4073
v 9.995334 7.254656 110.4073
v 9.995333 7.254656 0
v 9.995333 8.85882 0
v 37.72398 7.254656 110.4073
v 37.72398 8.858818 110.4073
v 37.72398 7.254656 0
v 37.72398 8.85882 0
v 37.72398 7.254656 110.4073
v 25.90181 7.254656 110.4073
v 25.90181 8.858818 110.4073
v 35.79476 10.96354 108.4781
v 27.83103 10.96354 108.4781
v 27.83104 10.96354 1.929226
v 35.79476 10.96354 1.929226
v 37.72398 8.85882 0
v 25.90181 8.85882 0
v 25.90181 7.254656 0
v 37.72398 7.254656 0
v 35.79476 10.96354 1.929226
v 25.90181 8.858818 110.4073
v 27.83104 10.96354 1.929226
v 27.83103 10.96354 108.4781
v 25.90181 8.858818 110.4073
v 25.90181 7.254656 110.4073
v 25.90181 7.254656 0
v 25.90181 8.85882 0
v 53.63042 7.254656 110.4073
v 53.63042 8.858818 110.4073
v 53.63041 7.254656 0
v 53.63041 8.85882 0
v 53.63041 8.85882 0
v 41.80824 7.254656 0
v 41.80824 8.85882 0
v 43.73746 10.96354 1.929226
v 51.70118 10.96354 1.929226
v 51.70119 10.96354 108.4781
v 43.73747 10.96354 108.4781
v 43.73746 10.96354 1.929226
v 41.80824 8.858818 110.4073
v 53.63042 7.254656 110.4073
v 41.80824 7.254656 110.4073
v 41.80824 8.858818 110.4073
v 43.73746 10.96354 1.929226
v 43.73747 10.96354 108.4781
v 41.80824 8.858818 110.4073
v 41.80824 7.254656 110.4073
v 41.80824 7.254656 0
v 41.80824 8.85882 0
v 9.995333 8.85882 0
v 9.995333 7.254656 0
v 21.8175 8.85882 0
v 21.8175 7.254656 0
v 11.92456 10.96354 1.929226
v 19.88828 10.96354 1.929226
v 9.995334 8.858818 110.4073
v 11.92456 10.96354 1.929226
v 11.92456 10.96354 108.4781
v 5.911085 8.858818 110.4073
v 3.981858 10.96354 1.929226
v 5.911084 8.85882 0
v 3.981859 10.96354 108.4781
v 21.8175 8.858818 110.4073
v 19.88828 10.96354 1.929226
v 21.8175 8.85882 0
v 19.88827 10.96354 108.4781
v 37.72398 8.858818 110.4073
v 35.79476 10.96354 1.929226
v 37.72398 8.85882 0
v 35.79476 10.96354 108.4781
v 53.63042 8.858818 110.4073
v 51.70118 10.96354 1.929226
v 53.63041 8.85882 0
v 51.70119 10.96354 108.4781

vn 0.7071067 0 0.7071068
vn 0.6548513 0.3772793 0.6548513
vn 0.7071068 0 -0.7071067
vn 0.6548511 0.3772794 -0.6548513
vn 0.6548511 0.3772794 -0.6548513
vn -0.7071068 0 -0.7071067
vn -0.6548511 0.3772795 -0.6548513
vn -0.3172131 0.8937292 -0.317213
vn 0.3172131 0.8937292 -0.317213
vn -0.6548512 0.3772793 0.6548512
vn 0.7071067 0 0.7071068
vn -0.7071068 0 0.7071067
vn 0.317213 0.893729 0.3172134
vn -0.317213 0.893729 0.3172135
vn 0.3172131 0.8937292 -0.317213
vn -0.3172131 0.8937292 -0.317213
vn -0.6548512 0.3772793 0.6548512
vn -0.3172131 0.8937292 -0.317213
vn -0.317213 0.893729 0.3172135
vn -0.6548512 0.3772793 0.6548512
vn -0.7071068 0 0.7071067
vn -0.7071068 0 -0.7071067
vn -0.6548511 0.3772795 -0.6548513
vn 0.707107 0 0.7071065
vn 0.6548511 0.3772794 0.6548514
vn 0.7071067 0 -0.7071068
vn 0.6548511 0.3772796 -0.6548512
vn 0.707107 0 0.7071065
vn -0.7071067 0 0.7071068
vn -0.6548513 0.3772793 0.6548513
vn 0.317213 0.893729 0.3172135
vn -0.317213 0.893729 0.3172135
vn -0.3172131 0.8937292 -0.317213
vn 0.3172131 0.8937292 -0.317213
vn -0.6548513 0.3772793 0.6548513
vn -0.7071067 0 0.7071068
vn -0.7071067 0 -0.7071068
vn -0.6548512 0.3772794 -0.6548513
vn 0.7071067 0 0.7071068
vn 0.6548513 0.3772793 0.6548513
vn 0.7071067 0 -0.7071068
vn 0.6548512 0.3772794 -0.6548513
vn 0.7071067 0 0.7071068
vn -0.7071065 0 0.7071071
vn -0.6548515 0.377279 0.6548511
vn 0.317213 0.893729 0.3172134
vn -0.317213 0.893729 0.3172134
vn -0.317213 0.8937292 -0.317213
vn 0.3172131 0.8937292 -0.317213
vn 0.6548512 0.3772794 -0.6548513
vn -0.6548513 0.3772792 -0.6548513
vn -0.7071067 0 -0.7071068
vn 0.7071067 0 -0.7071068
vn 0.3172131 0.8937292 -0.317213
vn -0.6548515 0.377279 0.6548511
vn -0.317213 0.8937292 -0.317213
vn -0.317213 0.893729 0.3172134
vn -0.6548515 0.377279 0.6548511
vn -0.7071065 0 0.7071071
vn -0.7071067 0 -0.7071068
vn -0.6548513 0.3772792 -0.6548513
vn 0.7071068 0 0.7071068
vn 0.6548512 0.3772797 0.6548511
vn 0.7071072 0 -0.7071063
vn 0.6548508 0.3772796 -0.6548515
vn 0.6548508 0.3772796 -0.6548515
vn -0.7071062 0 -0.7071073
vn -0.6548517 0.3772791 -0.654851
vn -0.3172131 0.8937292 -0.317213
vn 0.317213 0.8937292 -0.317213
vn 0.317213 0.893729 0.3172134
vn -0.317213 0.893729 0.3172135
vn -0.3172131 0.8937292 -0.317213
vn -0.6548514 0.3772787 0.6548514
vn 0.7071068 0 0.7071068
vn -0.7071067 0 0.7071068
vn -0.6548514 0.3772787 0.6548514
vn -0.3172131 0.8937292 -0.317213
vn -0.317213 0.893729 0.3172135
vn -0.6548514 0.3772787 0.6548514
vn -0.7071067 0 0.7071068
vn -0.7071062 0 -0.7071073
vn -0.6548517 0.3772791 -0.654851
vn -0.6548512 0.3772794 -0.6548513
vn -0.7071067 0 -0.7071068
vn 0.6548511 0.3772796 -0.6548512
vn 0.7071067 0 -0.7071068
vn -0.3172131 0.8937292 -0.317213
vn 0.3172131 0.8937292 -0.317213
vn -0.6548513 0.3772793 0.6548513
vn -0.3172131 0.8937292 -0.317213
vn -0.317213 0.893729 0.3172135
vn 0.6548513 0.3772793 0.6548513
vn 0.3172131 0.8937292 -0.317213
vn 0.6548511 0.3772794 -0.6548513
vn 0.317213 0.893729 0.3172134
vn 0.6548511 0.3772794 0.6548514
vn 0.3172131 0.8937292 -0.317213
vn 0.6548511 0.3772796 -0.6548512
vn 0.317213 0.893729 0.3172135
vn 0.6548513 0.3772793 0.6548513
vn 0.3172131 0.8937292 -0.317213
vn 0.6548512 0.3772794 -0.6548513
vn 0.317213 0.893729 0.3172134
vn 0.6548512 0.3772797 0.6548511
vn 0.317213 0.8937292 -0.317213
vn 0.6548508 0.3772796 -0.6548515
vn 0.317213 0.893729 0.3172134

vt 0 -109.4073
vt 1.57745 -109.4073
vt 0 1
vt 1.57745 1
vt 0 1
vt 0 1
vt 0 1
vt 11.82217 1
vt 0 1
vt 11.82217 -109.4073
vt 11.82217 -109.4073
vt 1.57745 -109.4073
vt 0 -109.4073
vt 11.82217 -109.4073
vt 0 1
vt 11.82217 1
vt 0 -109.4073
vt 11.82217 1
vt 11.82217 -109.4073
vt 0 -109.4073
vt 1.57745 -109.4073
vt 1.57745 1
vt 0 1
vt 0 -109.4073
vt 1.57745 -109.4073
vt 0 1
vt 1.57745 1
vt 11.82217 -109.4073
vt 1.57745 -109.4073
vt 11.82217 -109.4073
vt 0 -109.4073
vt 11.82217 -109.4073
vt 11.82217 1
vt 0 1
vt 0 -109.4073
vt 1.57745 -109.4073
vt 1.57745 1
vt 0 1
vt 0 -109.4073
vt 1.57745 -109.4073
vt 0 1
vt 1.57745 1
vt 11.82217 -109.4073
vt 1.57745 -109.4073
vt 11.82217 -109.4073
vt 0 -109.4073
vt 11.82217 -109.4073
vt 11.82217 1
vt 0 1
vt 0 1
vt 0 1
vt 0 1
vt 0 1
vt 0 1
vt 0 -109.4073
vt 11.82217 1
vt 11.82217 -109.4073
vt 0 -109.4073
vt 1.57745 -109.4073
vt 1.57745 1
vt 0 1
vt 0 -109.4073
vt 1.57745 -109.4073
vt 0 1
vt 1.57745 1
vt 0 1
vt 0 1
vt 0 1
vt 11.82217 1
vt 0 1
vt 0 -109.4073
vt 11.82217 -109.4073
vt 11.82217 1
vt 11.82217 -109.4073
vt 11.82217 -109.4073
vt 1.57745 -109.4073
vt 0 -109.4073
vt 11.82217 1
vt 11.82217 -109.4073
vt 0 -109.4073
vt 1.57745 -109.4073
vt 1.57745 1
vt 0 1
vt 0 1
vt 0 1
vt 0 1
vt 0 1
vt 11.82217 1
vt 0 1
vt 0 -109.4073
vt 11.82217 1
vt 11.82217 -109.4073
vt 1.57745 -109.4073
vt 0 1
vt 1.57745 1
vt 0 -109.4073
vt 1.57745 -109.4073
vt 0 1
vt 1.57745 1
vt 0 -109.4073
vt 1.57745 -109.4073
vt 0 1
vt 1.57745 1
vt 0 -109.4073
vt 1.57745 -109.4073
vt 0 1
vt 1.57745 1
vt 0 -109.4073

g Object001.obj
usemtl Object001
usemap Object001
f 1/1/1 3/3/3 2/2/2
f 2/2/2 3/3/3 4/4/4
f 3/3/3 6/6/6 5/5/5
f 7/7/7 5/5/5 6/6/6
f 5/5/5 7/7/7 8/8/8
f 5/5/5 8/8/8 9/9/9
f 10/10/10 11/11/11 2/2/2
f 11/11/11 10/10/10 12/12/12
f 10/10/10 2/2/2 13/13/13
f 10/10/10 13/13/13 14/14/14
f 13/13/13 15/15/15 14/14/14
f 14/14/14 15/15/15 16/16/16
f 17/17/17 18/18/18 7/7/7
f 18/18/18 17/17/17 19/19/19
f 20/20/20 22/22/22 21/21/21
f 22/22/22 20/20/20 23/23/23
f 24/24/24 26/26/26 25/25/25
f 25/25/25 26/26/26 27/27/27
f 25/25/25 29/29/29 28/28/28
f 29/29/29 25/25/25 30/30/30
f 30/30/30 25/25/25 31/31/31
f 30/30/30 31/31/31 32/32/32
f 31/31/31 33/33/33 32/32/32
f 33/33/33 31/31/31 34/34/34
f 35/35/35 37/37/37 36/36/36
f 37/37/37 35/35/35 38/38/38
f 39/39/39 41/41/41 40/40/40
f 40/40/40 41/41/41 42/42/42
f 40/40/40 44/44/44 43/43/43
f 44/44/44 40/40/40 45/45/45
f 45/45/45 40/40/40 46/46/46
f 45/45/45 46/46/46 47/47/47
f 46/46/46 48/48/48 47/47/47
f 48/48/48 46/46/46 49/49/49
f 50/50/50 51/51/51 48/48/48
f 51/51/51 50/50/50 52/52/52
f 53/53/53 52/52/52 50/50/50
f 50/50/50 48/48/48 54/54/54
f 55/55/55 56/56/56 51/51/51
f 56/56/56 55/55/55 57/57/57
f 58/58/58 60/60/60 59/59/59
f 60/60/60 58/58/58 61/61/61
f 62/62/62 64/64/64 63/63/63
f 63/63/63 64/64/64 65/65/65
f 64/64/64 67/67/67 66/66/66
f 68/68/68 66/66/66 67/67/67
f 69/69/69 66/66/66 68/68/68
f 66/66/66 69/69/69 70/70/70
f 71/71/71 70/70/70 72/72/72
f 72/72/72 70/70/70 73/73/73
f 74/74/74 63/63/63 71/71/71
f 74/74/74 71/71/71 72/72/72
f 74/74/74 75/75/75 63/63/63
f 75/75/75 74/74/74 76/76/76
f 77/77/77 78/78/78 68/68/68
f 78/78/78 77/77/77 79/79/79
f 80/80/80 82/82/82 81/81/81
f 82/82/82 80/80/80 83/83/83
f 84/84/84 86/86/86 85/85/85
f 87/87/87 85/85/85 86/86/86
f 86/86/86 84/84/84 88/88/88
f 86/86/86 88/88/88 89/89/89
f 90/90/90 91/91/91 84/84/84
f 91/91/91 90/90/90 92/92/92
f 93/93/93 95/95/95 94/94/94
f 93/93/93 94/94/94 96/96/96
f 97/97/97 99/99/99 98/98/98
f 97/97/97 98/98/98 100/100/100
f 101/101/101 103/103/103 102/102/102
f 101/101/101 102/102/102 104/104/104
f 105/105/105 107/107/107 106/106/106
f 105/105/105 106/106/106 108/108/108
