#Shop Window036.obj

v -80.1115 153.001 29.48882
v 148.1353 153.001 151.6135
v -80.1115 153.001 151.6135
v 148.1353 153.001 29.48882
v -2830.806 570.853 29.48882
v -3059.053 570.853 151.6135
v -2830.806 570.853 151.6135
v -3059.053 570.853 29.48882
v -4080.028 5173.692 29.48882
v -3851.781 5173.692 151.6135
v -4080.028 5173.692 151.6135
v -3851.781 5173.692 29.48882
v -2954.781 5174.807 29.48882
v -2726.534 5174.807 151.6135
v -2954.781 5174.807 151.6135
v -2726.534 5174.807 29.48882
v 1863.923 5158.478 33.89892
v 2092.17 5158.478 156.0237
v 1863.923 5158.478 156.0237
v 2092.17 5158.478 33.89892
v -2748.753 3501.282 29.48882
v -2977 3501.282 151.6135
v -2748.753 3501.282 151.6135
v -2977 3501.282 29.48882
v -1976.318 4772.596 29.48882
v -2204.564 4772.596 151.6135
v -1976.318 4772.596 151.6135
v -2204.564 4772.596 29.48882
v -2346.63 4802.97 29.48882
v -2574.877 4802.97 151.6135
v -2346.63 4802.97 151.6135
v -2574.877 4802.97 29.48882
v -3841.236 3891.849 29.48882
v -3612.989 3891.849 151.6135
v -3841.236 3891.849 151.6135
v -3612.989 3891.849 29.48882
v -1866.853 3896.049 29.48882
v -1694.823 3896.049 151.6135
v -1866.853 3896.049 151.6135
v -1694.823 3896.049 29.48882
v -4861.274 4434.909 29.48882
v -4982.917 4313.266 151.6135
v -4861.274 4434.909 151.6135
v -4982.917 4313.266 29.48882
v -4589.843 4754.57 29.48882
v -4751.238 4593.175 151.6135
v -4589.843 4754.57 151.6135
v -4751.238 4593.175 29.48882
v -5120.809 4222.849 29.48882
v -5282.204 4061.454 151.6135
v -5120.809 4222.849 151.6135
v -5282.204 4061.454 29.48882
v -5307.396 4035.516 29.48882
v -5468.791 3874.121 151.6135
v -5307.396 4035.516 151.6135
v -5468.791 3874.121 29.48882
v -5900.481 3444.263 29.48882
v -6061.876 3282.869 151.6135
v -5900.481 3444.263 151.6135
v -6061.876 3282.869 29.48882
v -4986.424 3651.352 29.48882
v -4825.029 3812.747 151.6135
v -4986.424 3651.352 151.6135
v -4825.029 3812.747 29.48882
v -5254.75 3382.569 29.48882
v -5093.354 3543.964 151.6135
v -5254.75 3382.569 151.6135
v -5093.354 3543.964 29.48882
v -5534.321 3103.374 29.48882
v -5372.926 3264.769 151.6135
v -5534.321 3103.374 151.6135
v -5372.926 3264.769 29.48882
v -6496.708 2564.029 29.48882
v -6496.708 2335.782 151.6135
v -6496.708 2564.029 151.6135
v -6496.708 2335.782 29.48882
v -6496.708 1826.451 29.48882
v -6496.708 1598.204 151.6135
v -6496.708 1826.451 151.6135
v -6496.708 1598.204 29.48882
v -6177.288 1598.739 29.48882
v -6177.288 1826.986 151.6135
v -6177.288 1598.739 151.6135
v -6177.288 1826.986 29.48882
v -1901.503 118.8379 29.48882
v -1729.473 118.8379 151.6135
v -1901.503 118.8379 151.6135
v -1729.473 118.8379 29.48882
v -3429.076 160.2078 29.48882
v -3200.829 160.2078 151.6135
v -3429.076 160.2078 151.6135
v -3200.829 160.2078 29.48882
v -3581.899 570.8529 29.48882
v -3810.146 570.8529 151.6135
v -3581.899 570.8529 151.6135
v -3810.146 570.8529 29.48882
v -3837.66 570.8529 29.48882
v -4065.907 570.8529 151.6135
v -3837.66 570.8529 151.6135
v -4065.907 570.8529 29.48882
v -4095.736 570.8528 29.48882
v -4323.983 570.8528 151.6135
v -4095.736 570.8528 151.6135
v -4323.983 570.8528 29.48882
v -5197.269 570.8527 29.48882
v -5425.515 570.8527 151.6135
v -5197.269 570.8527 151.6135
v -5425.515 570.8527 29.48882
v -4941.508 570.8527 29.48882
v -5169.754 570.8527 151.6135
v -4941.508 570.8527 151.6135
v -5169.754 570.8527 29.48882
v -5455.345 570.8525 29.48882
v -5683.591 570.8525 151.6135
v -5455.345 570.8525 151.6135
v -5683.591 570.8525 29.48882
v -2572.73 570.853 29.48882
v -2800.977 570.853 151.6135
v -2572.73 570.853 151.6135
v -2800.977 570.853 29.48882
v -2316.969 570.8531 29.48882
v -2545.216 570.8531 151.6135
v -2316.969 570.8531 151.6135
v -2545.216 570.8531 29.48882
v -5744.934 118.8372 29.48882
v -5572.904 118.8371 151.6135
v -5744.934 118.8372 151.6135
v -5572.904 118.8371 29.48882
v -5421.256 118.8372 29.48882
v -5249.227 118.8371 151.6135
v -5421.256 118.8372 151.6135
v -5249.227 118.8371 29.48882
v -4608.106 118.8374 29.48882
v -4436.077 118.8374 151.6135
v -4608.106 118.8374 151.6135
v -4436.077 118.8374 29.48882
v -2639.706 118.8377 29.48882
v -2467.676 118.8376 151.6135
v -2639.706 118.8377 151.6135
v -2467.676 118.8376 29.48882
v -788.3791 151.9585 29.48882
v -560.1323 151.9585 151.6135
v -788.3791 151.9585 151.6135
v -560.1323 151.9585 29.48882
v -460.6585 539.0469 29.48882
v -688.9053 539.047 151.6135
v -460.6585 539.0469 151.6135
v -688.9053 539.047 29.48882
v -1600.66 570.8533 29.48882
v -1828.907 570.8533 151.6135
v -1600.66 570.8533 151.6135
v -1828.907 570.8533 29.48882
v 1904.225 160.5579 29.48882
v 2132.472 160.5579 151.6135
v 1904.225 160.5579 151.6135
v 2132.472 160.5579 29.48882
v 1531.577 118.8384 29.48882
v 1703.607 118.8384 151.6135
v 1531.577 118.8384 151.6135
v 1703.607 118.8384 29.48882
v 2957.722 118.8387 29.48882
v 3129.752 118.8386 151.6135
v 2957.722 118.8387 151.6135
v 3129.752 118.8386 29.48882
v 1031.248 570.8536 29.48882
v 803.0012 570.8536 151.6135
v 1031.248 570.8536 151.6135
v 803.0012 570.8536 29.48882
v 2459.415 570.8539 29.48882
v 2231.168 570.8539 151.6135
v 2459.415 570.8539 151.6135
v 2231.168 570.8539 29.48882
v 1109.637 4763.782 29.48882
v 881.3898 4763.782 151.6135
v 1109.637 4763.782 151.6135
v 881.3898 4763.782 29.48882
v 642.0553 4794.156 29.48882
v 413.8085 4794.156 151.6135
v 642.0553 4794.156 151.6135
v 413.8085 4794.156 29.48882
v 1620.37 4794.156 29.48882
v 1392.123 4794.156 151.6135
v 1620.37 4794.156 151.6135
v 1392.123 4794.156 29.48882

vn 0 1 0
vn 0 1 0
vn 0 1 0
vn 0 1 0
vn 0 -1 0
vn 0 -1 0
vn 0 -1 0
vn 0 -1 0
vn 0 1 0
vn 0 1 0
vn 0 1 0
vn 0 1 0
vn 0 1 0
vn 0 1 0
vn 0 1 0
vn 0 1 0
vn 0 1 0
vn 0 1 0
vn 0 1 0
vn 0 1 0
vn 0 -1 0
vn 0 -1 0
vn 0 -1 0
vn 0 -1 0
vn 0 -1 0
vn 0 -1 0
vn 0 -1 0
vn 0 -1 0
vn 0 -1 0
vn 0 -1 0
vn 0 -1 0
vn 0 -1 0
vn 0 1 0
vn 0 1 0
vn 0 1 0
vn 0 1 0
vn 0 1 0
vn 0 1 0
vn 0 1 0
vn 0 1 0
vn 0.7071068 -0.7071068 0
vn 0.7071068 -0.7071068 0
vn 0.7071068 -0.7071068 0
vn 0.7071068 -0.7071068 0
vn 0.7071068 -0.7071068 0
vn 0.7071068 -0.7071068 0
vn 0.7071068 -0.7071068 0
vn 0.7071068 -0.7071068 0
vn 0.7071068 -0.7071068 0
vn 0.7071068 -0.7071068 0
vn 0.7071068 -0.7071068 0
vn 0.7071068 -0.7071068 0
vn 0.7071062 -0.7071073 0
vn 0.7071062 -0.7071073 0
vn 0.7071062 -0.7071072 0
vn 0.7071062 -0.7071072 0
vn 0.7071062 -0.7071073 0
vn 0.7071062 -0.7071073 0
vn 0.7071062 -0.7071072 0
vn 0.7071062 -0.7071072 0
vn -0.7071062 0.7071073 0
vn -0.7071062 0.7071073 0
vn -0.7071062 0.7071072 0
vn -0.7071062 0.7071072 0
vn -0.7071062 0.7071073 0
vn -0.7071062 0.7071073 0
vn -0.7071062 0.7071072 0
vn -0.7071062 0.7071072 0
vn -0.7071062 0.7071073 0
vn -0.7071062 0.7071073 0
vn -0.7071062 0.7071072 0
vn -0.7071062 0.7071072 0
vn 1 0 0
vn 1 0 0
vn 1 0 0
vn 1 0 0
vn 1 0 0
vn 1 0 0
vn 1 0 0
vn 1 0 0
vn -1 0 0
vn -1 0 0
vn -1 0 0
vn -1 0 0
vn 0 1 0
vn 0 1 0
vn 0 1 0
vn 0 1 0
vn 0 1 0
vn 0 1 0
vn 0 1 0
vn 0 1 0
vn 0 -1 0
vn 0 -1 0
vn 0 -1 0
vn 0 -1 0
vn 0 -1 0
vn 0 -1 0
vn 0 -1 0
vn 0 -1 0
vn 0 -1 0
vn 0 -1 0
vn 0 -1 0
vn 0 -1 0
vn 0 -1 0
vn 0 -1 0
vn 0 -1 0
vn 0 -1 0
vn 0 -1 0
vn 0 -1 0
vn 0 -1 0
vn 0 -1 0
vn 0 -1 0
vn 0 -1 0
vn 0 -1 0
vn 0 -1 0
vn 0 -1 0
vn 0 -1 0
vn 0 -1 0
vn 0 -1 0
vn 0 -1 0
vn 0 -1 0
vn 0 -1 0
vn 0 -1 0
vn 0 1 0
vn 0 1 0
vn 0 1 0
vn 0 1 0
vn 0 1 0
vn 0 1 0
vn 0 1 0
vn 0 1 0
vn 0 1 0
vn 0 1 0
vn 0 1 0
vn 0 1 0
vn 0 1 0
vn 0 1 0
vn 0 1 0
vn 0 1 0
vn 0 1 0
vn 0 1 0
vn 0 1 0
vn 0 1 0
vn 0 -1 0
vn 0 -1 0
vn 0 -1 0
vn 0 -1 0
vn 0 -1 0
vn 0 -1 0
vn 0 -1 0
vn 0 -1 0
vn 0 1 0
vn 0 1 0
vn 0 1 0
vn 0 1 0
vn 0 1 0
vn 0 1 0
vn 0 1 0
vn 0 1 0
vn 0 1 0
vn 0 1 0
vn 0 1 0
vn 0 1 0
vn 0 -1 0
vn 0 -1 0
vn 0 -1 0
vn 0 -1 0
vn 0 -1 0
vn 0 -1 0
vn 0 -1 0
vn 0 -1 0
vn 0 -1 0
vn 0 -1 0
vn 0 -1 0
vn 0 -1 0
vn 0 -1 0
vn 0 -1 0
vn 0 -1 0
vn 0 -1 0
vn 0 -1 0
vn 0 -1 0
vn 0 -1 0
vn 0 -1 0

vt 0.0004994571 0.9995006
vt 0.9995006 0.0004994273
vt 0.0004994571 0.0004994273
vt 0.9995006 0.9995006
vt 0.0004994571 0.9995006
vt 0.9995006 0.0004994273
vt 0.0004994571 0.0004994273
vt 0.9995006 0.9995006
vt 0.0004994571 0.9995006
vt 0.9995006 0.0004994273
vt 0.0004994571 0.0004994273
vt 0.9995006 0.9995006
vt 0.0004994571 0.9995006
vt 0.9995006 0.0004994273
vt 0.0004994571 0.0004994273
vt 0.9995006 0.9995006
vt 0.0004994571 0.9995006
vt 0.9995006 0.0004994273
vt 0.0004994571 0.0004994273
vt 0.9995006 0.9995006
vt 0.0004994571 0.9995006
vt 0.9995006 0.0004994273
vt 0.0004994571 0.0004994273
vt 0.9995006 0.9995006
vt 0.0004994571 0.9995006
vt 0.9995006 0.0004994273
vt 0.0004994571 0.0004994273
vt 0.9995006 0.9995006
vt 0.0004994571 0.9995006
vt 0.9995006 0.0004994273
vt 0.0004994571 0.0004994273
vt 0.9995006 0.9995006
vt 0.0004994571 0.9995006
vt 0.9995006 0.0004994273
vt 0.0004994571 0.0004994273
vt 0.9995006 0.9995006
vt 0.0004994571 0.9995006
vt 0.9995006 0.0004994273
vt 0.0004994571 0.0004994273
vt 0.9995006 0.9995006
vt 0.0004994571 0.9995006
vt 0.9995006 0.0004994273
vt 0.0004994571 0.0004994273
vt 0.9995006 0.9995006
vt 0.0004994571 0.9995006
vt 0.9995006 0.0004994273
vt 0.0004994571 0.0004994273
vt 0.9995006 0.9995006
vt 0.0004994571 0.9995006
vt 0.9995006 0.0004994273
vt 0.0004994571 0.0004994273
vt 0.9995006 0.9995006
vt 0.0004994571 0.9995006
vt 0.9995006 0.0004994273
vt 0.0004994571 0.0004994273
vt 0.9995006 0.9995006
vt 0.0004994571 0.9995006
vt 0.9995006 0.0004994273
vt 0.0004994571 0.0004994273
vt 0.9995006 0.9995006
vt 0.0004994571 0.9995006
vt 0.9995006 0.0004994273
vt 0.0004994571 0.0004994273
vt 0.9995006 0.9995006
vt 0.0004994571 0.9995006
vt 0.9995006 0.0004994273
vt 0.0004994571 0.0004994273
vt 0.9995006 0.9995006
vt 0.0004994571 0.9995006
vt 0.9995006 0.0004994273
vt 0.0004994571 0.0004994273
vt 0.9995006 0.9995006
vt 0.0004994571 0.9995006
vt 0.9995006 0.0004994273
vt 0.0004994571 0.0004994273
vt 0.9995006 0.9995006
vt 0.0004994571 0.9995006
vt 0.9995006 0.0004994273
vt 0.0004994571 0.0004994273
vt 0.9995006 0.9995006
vt 0.0004994571 0.9995006
vt 0.9995006 0.0004994273
vt 0.0004994571 0.0004994273
vt 0.9995006 0.9995006
vt 0.0004994571 0.9995006
vt 0.9995006 0.0004994273
vt 0.0004994571 0.0004994273
vt 0.9995006 0.9995006
vt 0.0004994571 0.9995006
vt 0.9995006 0.0004994273
vt 0.0004994571 0.0004994273
vt 0.9995006 0.9995006
vt 0.0004994571 0.9995006
vt 0.9995006 0.0004994273
vt 0.0004994571 0.0004994273
vt 0.9995006 0.9995006
vt 0.0004994571 0.9995006
vt 0.9995006 0.0004994273
vt 0.0004994571 0.0004994273
vt 0.9995006 0.9995006
vt 0.0004994571 0.9995006
vt 0.9995006 0.0004994273
vt 0.0004994571 0.0004994273
vt 0.9995006 0.9995006
vt 0.0004994571 0.9995006
vt 0.9995006 0.0004994273
vt 0.0004994571 0.0004994273
vt 0.9995006 0.9995006
vt 0.0004994571 0.9995006
vt 0.9995006 0.0004994273
vt 0.0004994571 0.0004994273
vt 0.9995006 0.9995006
vt 0.0004994571 0.9995006
vt 0.9995006 0.0004994273
vt 0.0004994571 0.0004994273
vt 0.9995006 0.9995006
vt 0.0004994571 0.9995006
vt 0.9995006 0.0004994273
vt 0.0004994571 0.0004994273
vt 0.9995006 0.9995006
vt 0.0004994571 0.9995006
vt 0.9995006 0.0004994273
vt 0.0004994571 0.0004994273
vt 0.9995006 0.9995006
vt 0.0004994571 0.9995006
vt 0.9995006 0.0004994273
vt 0.0004994571 0.0004994273
vt 0.9995006 0.9995006
vt 0.0004994571 0.9995006
vt 0.9995006 0.0004994273
vt 0.0004994571 0.0004994273
vt 0.9995006 0.9995006
vt 0.0004994571 0.9995006
vt 0.9995006 0.0004994273
vt 0.0004994571 0.0004994273
vt 0.9995006 0.9995006
vt 0.0004994571 0.9995006
vt 0.9995006 0.0004994273
vt 0.0004994571 0.0004994273
vt 0.9995006 0.9995006
vt 0.0004994571 0.9995006
vt 0.9995006 0.0004994273
vt 0.0004994571 0.0004994273
vt 0.9995006 0.9995006
vt 0.0004994571 0.9995006
vt 0.9995006 0.0004994273
vt 0.0004994571 0.0004994273
vt 0.9995006 0.9995006
vt 0.0004994571 0.9995006
vt 0.9995006 0.0004994273
vt 0.0004994571 0.0004994273
vt 0.9995006 0.9995006
vt 0.0004994571 0.9995006
vt 0.9995006 0.0004994273
vt 0.0004994571 0.0004994273
vt 0.9995006 0.9995006
vt 0.0004994571 0.9995006
vt 0.9995006 0.0004994273
vt 0.0004994571 0.0004994273
vt 0.9995006 0.9995006
vt 0.0004994571 0.9995006
vt 0.9995006 0.0004994273
vt 0.0004994571 0.0004994273
vt 0.9995006 0.9995006
vt 0.0004994571 0.9995006
vt 0.9995006 0.0004994273
vt 0.0004994571 0.0004994273
vt 0.9995006 0.9995006
vt 0.0004994571 0.9995006
vt 0.9995006 0.0004994273
vt 0.0004994571 0.0004994273
vt 0.9995006 0.9995006
vt 0.0004994571 0.9995006
vt 0.9995006 0.0004994273
vt 0.0004994571 0.0004994273
vt 0.9995006 0.9995006
vt 0.0004994571 0.9995006
vt 0.9995006 0.0004994273
vt 0.0004994571 0.0004994273
vt 0.9995006 0.9995006
vt 0.0004994571 0.9995006
vt 0.9995006 0.0004994273
vt 0.0004994571 0.0004994273
vt 0.9995006 0.9995006

g Shop Window036.obj
usemtl Shop Window036
usemap Shop Window036
f 1/1/1 3/3/3 2/2/2
f 2/2/2 4/4/4 1/1/1
f 5/5/5 7/7/7 6/6/6
f 6/6/6 8/8/8 5/5/5
f 9/9/9 11/11/11 10/10/10
f 10/10/10 12/12/12 9/9/9
f 13/13/13 15/15/15 14/14/14
f 14/14/14 16/16/16 13/13/13
f 17/17/17 19/19/19 18/18/18
f 18/18/18 20/20/20 17/17/17
f 21/21/21 23/23/23 22/22/22
f 22/22/22 24/24/24 21/21/21
f 25/25/25 27/27/27 26/26/26
f 26/26/26 28/28/28 25/25/25
f 29/29/29 31/31/31 30/30/30
f 30/30/30 32/32/32 29/29/29
f 33/33/33 35/35/35 34/34/34
f 34/34/34 36/36/36 33/33/33
f 37/37/37 39/39/39 38/38/38
f 38/38/38 40/40/40 37/37/37
f 41/41/41 43/43/43 42/42/42
f 42/42/42 44/44/44 41/41/41
f 45/45/45 47/47/47 46/46/46
f 46/46/46 48/48/48 45/45/45
f 49/49/49 51/51/51 50/50/50
f 50/50/50 52/52/52 49/49/49
f 53/53/53 55/55/55 54/54/54
f 54/54/54 56/56/56 53/53/53
f 57/57/57 59/59/59 58/58/58
f 58/58/58 60/60/60 57/57/57
f 61/61/61 63/63/63 62/62/62
f 62/62/62 64/64/64 61/61/61
f 65/65/65 67/67/67 66/66/66
f 66/66/66 68/68/68 65/65/65
f 69/69/69 71/71/71 70/70/70
f 70/70/70 72/72/72 69/69/69
f 73/73/73 75/75/75 74/74/74
f 74/74/74 76/76/76 73/73/73
f 77/77/77 79/79/79 78/78/78
f 78/78/78 80/80/80 77/77/77
f 81/81/81 83/83/83 82/82/82
f 82/82/82 84/84/84 81/81/81
f 85/85/85 87/87/87 86/86/86
f 86/86/86 88/88/88 85/85/85
f 89/89/89 91/91/91 90/90/90
f 90/90/90 92/92/92 89/89/89
f 93/93/93 95/95/95 94/94/94
f 94/94/94 96/96/96 93/93/93
f 97/97/97 99/99/99 98/98/98
f 98/98/98 100/100/100 97/97/97
f 101/101/101 103/103/103 102/102/102
f 102/102/102 104/104/104 101/101/101
f 105/105/105 107/107/107 106/106/106
f 106/106/106 108/108/108 105/105/105
f 109/109/109 111/111/111 110/110/110
f 110/110/110 112/112/112 109/109/109
f 113/113/113 115/115/115 114/114/114
f 114/114/114 116/116/116 113/113/113
f 117/117/117 119/119/119 118/118/118
f 118/118/118 120/120/120 117/117/117
f 121/121/121 123/123/123 122/122/122
f 122/122/122 124/124/124 121/121/121
f 125/125/125 127/127/127 126/126/126
f 126/126/126 128/128/128 125/125/125
f 129/129/129 131/131/131 130/130/130
f 130/130/130 132/132/132 129/129/129
f 133/133/133 135/135/135 134/134/134
f 134/134/134 136/136/136 133/133/133
f 137/137/137 139/139/139 138/138/138
f 138/138/138 140/140/140 137/137/137
f 141/141/141 143/143/143 142/142/142
f 142/142/142 144/144/144 141/141/141
f 145/145/145 147/147/147 146/146/146
f 146/146/146 148/148/148 145/145/145
f 149/149/149 151/151/151 150/150/150
f 150/150/150 152/152/152 149/149/149
f 153/153/153 155/155/155 154/154/154
f 154/154/154 156/156/156 153/153/153
f 157/157/157 159/159/159 158/158/158
f 158/158/158 160/160/160 157/157/157
f 161/161/161 163/163/163 162/162/162
f 162/162/162 164/164/164 161/161/161
f 165/165/165 167/167/167 166/166/166
f 166/166/166 168/168/168 165/165/165
f 169/169/169 171/171/171 170/170/170
f 170/170/170 172/172/172 169/169/169
f 173/173/173 175/175/175 174/174/174
f 174/174/174 176/176/176 173/173/173
f 177/177/177 179/179/179 178/178/178
f 178/178/178 180/180/180 177/177/177
f 181/181/181 183/183/183 182/182/182
f 182/182/182 184/184/184 181/181/181
