#Shop Window065.obj

v -73.33073 29.13368 0
v 73.33073 -29.13368 0
v -73.33073 -29.13368 0
v 73.33073 29.13368 0
v -2744.169 29.13368 0.0004394531
v -2597.507 -29.13368 0.0004394531
v -2744.169 -29.13368 0.0004394531
v -2597.507 29.13368 0.0004394531
v -3111.14 29.13368 0.0005126953
v -2964.478 -29.13368 0.0005126953
v -3111.14 -29.13368 0.0005126953
v -2964.478 29.13368 0.0005126953
v -802.6404 29.13369 -113.637
v -715.9924 -29.13368 -27.6195
v -802.6404 -29.13367 -113.637
v -715.9924 29.13367 -27.61947
v -311.7943 29.13368 7.324219E-05
v -165.1329 -29.13368 7.324219E-05
v -311.7943 -29.13368 7.324219E-05
v -165.1329 29.13368 7.324219E-05
v -617.6303 29.13368 7.324219E-05
v -470.9688 -29.13368 7.324219E-05
v -617.6303 -29.13368 7.324219E-05
v -470.9688 29.13368 7.324219E-05
v 259.8313 29.13368 1.042092E-12
v 406.4928 -29.13368 -1.042092E-12
v 259.8313 -29.13368 1.042092E-12
v 406.4928 29.13368 -1.042092E-12
v 2080.807 29.13368 -0.0002929688
v 2227.469 -29.13368 -0.0002929688
v 2080.807 -29.13368 -0.0002929688
v 2227.469 29.13368 -0.0002929688
v 1839.837 29.13368 -0.0002929688
v 1986.498 -29.13368 -0.0002929688
v 1839.837 -29.13368 -0.0002929688
v 1986.498 29.13368 -0.0002929688
v 1534 29.13368 -0.0002197266
v 1680.662 -29.13368 -0.0002197266
v 1534 -29.13368 -0.0002197266
v 1680.662 29.13368 -0.0002197266
v 2382.81 29.13368 -0.0003662109
v 2529.471 -29.13368 -0.0003662109
v 2382.81 -29.13368 -0.0003662109
v 2529.471 29.13368 -0.0003662109
v 7505.894 29.13367 -212.8597
v 7652.556 -29.13369 -212.8597
v 7505.894 -29.13369 -212.8597
v 7652.556 29.13367 -212.8597
v 7746.865 29.13367 -212.8598
v 7893.526 -29.13369 -212.8598
v 7746.865 -29.13369 -212.8598
v 7893.526 29.13367 -212.8598
v 8048.868 29.13367 -212.8598
v 8195.529 -29.13369 -212.8598
v 8048.868 -29.13369 -212.8598
v 8195.529 29.13367 -212.8598
v 7200.058 29.13367 -212.8596
v 7346.72 -29.13369 -212.8596
v 7200.058 -29.13369 -212.8596
v 7346.72 29.13367 -212.8596
v 5261.951 29.13367 -214.6187
v 5408.612 -29.13369 -214.6187
v 5261.951 -29.13369 -214.6187
v 5408.612 29.13367 -214.6187
v 4928.789 29.13367 -214.6187
v 5075.451 -29.13369 -214.6187
v 4928.789 -29.13369 -214.6187
v 5075.451 29.13367 -214.6187
v 4690.326 29.13367 -214.6186
v 4836.987 -29.13369 -214.6186
v 4690.326 -29.13369 -214.6186
v 4836.987 29.13367 -214.6186
v 4384.49 29.13367 -214.6186
v 4531.151 -29.13369 -214.6186
v 4384.49 -29.13369 -214.6186
v 4531.151 29.13367 -214.6186
v 5496.27 29.13367 -214.6187
v 5642.931 -29.13369 -214.6187
v 5496.27 -29.13369 -214.6187
v 5642.931 29.13367 -214.6187
v 5730.588 29.13367 -214.6188
v 5877.25 -29.13369 -214.6188
v 5730.588 -29.13369 -214.6188
v 5877.25 29.13367 -214.6188
v 4096.985 29.13367 -214.6185
v 4243.646 -29.13369 -214.6185
v 4096.985 -29.13369 -214.6185
v 4243.646 29.13367 -214.6185
v 3783.913 29.13367 -214.6185
v 3930.575 -29.13369 -214.6185
v 3783.913 -29.13369 -214.6185
v 3930.575 29.13367 -214.6185
v 1366.454 29.13369 -113.6374
v 1453.102 -29.13368 -27.61986
v 1366.454 -29.13367 -113.6374
v 1453.102 29.13367 -27.61984
v 469.3493 29.13368 -40.65082
v 555.3668 -29.13369 -127.2989
v 469.3492 -29.13367 -40.65083
v 555.3668 29.13366 -127.2988
v 1326.703 29.13399 -709.952
v 1326.703 -29.13337 -563.2905
v 1326.703 -29.13337 -709.952
v 1326.703 29.13399 -563.2905
v 1326.703 29.13448 -558.8622
v 1326.703 -29.13287 -412.2007
v 1326.703 -29.13287 -558.8622
v 1326.703 29.13448 -412.2007
v 1326.703 29.13398 -861.0423
v 1326.703 -29.13337 -714.3808
v 1326.703 -29.13337 -861.0423
v 1326.703 29.13398 -714.3808
v 1326.703 29.13398 -1012.133
v 1326.703 -29.13338 -865.4711
v 1326.703 -29.13338 -1012.133
v 1326.703 29.13398 -865.4711
v 581.0693 29.13387 -715.7479
v 581.0693 -29.1335 -862.4094
v 581.0693 -29.13348 -715.7479
v 581.0693 29.13386 -862.4094
v 581.0696 29.13419 -866.8379
v 581.0694 -29.13317 -1013.499
v 581.0695 -29.13316 -866.8379
v 581.0695 29.13418 -1013.499
v 581.0693 29.13387 -564.6577
v 581.0693 -29.13349 -711.3192
v 581.0693 -29.13348 -564.6577
v 581.0693 29.13386 -711.3192
v 581.0695 29.13388 -413.5674
v 581.0695 -29.13348 -560.2289
v 581.0695 -29.13347 -413.5674
v 581.0695 29.13387 -560.2289
v 1326.703 29.13442 -1956.273
v 1326.703 -29.13293 -1809.611
v 1326.703 -29.13293 -1956.273
v 1326.703 29.13442 -1809.611
v 1326.703 29.13393 -2107.362
v 1326.703 -29.13342 -1960.701
v 1326.703 -29.13342 -2107.362
v 1326.703 29.13393 -1960.701
v 1326.703 29.13393 -2258.453
v 1326.703 -29.13342 -2111.791
v 1326.703 -29.13342 -2258.453
v 1326.703 29.13393 -2111.791
v 1326.702 29.13392 -2409.543
v 1326.702 -29.13343 -2262.882
v 1326.702 -29.13343 -2409.543
v 1326.702 29.13392 -2262.882
v 2563.651 29.13356 -2842.841
v 2416.99 -29.13379 -2842.841
v 2563.651 -29.13379 -2842.841
v 2416.99 29.13356 -2842.841
v 2257.815 29.13356 -2842.841
v 2111.154 -29.13379 -2842.841
v 2257.815 -29.13379 -2842.841
v 2111.154 29.13356 -2842.841
v 2016.844 29.13356 -2842.841
v 1870.183 -29.13379 -2842.841
v 2016.844 -29.13379 -2842.841
v 1870.183 29.13356 -2842.841
v 1714.842 29.13356 -2842.841
v 1568.18 -29.13379 -2842.841
v 1714.842 -29.13379 -2842.841
v 1568.18 29.13356 -2842.841
v 2750.607 29.13394 -1962.069
v 2750.607 -29.13343 -2108.73
v 2750.607 -29.13341 -1962.069
v 2750.607 29.13393 -2108.73
v 2750.607 29.13441 -2264.249
v 2750.607 -29.13296 -2410.91
v 2750.607 -29.13294 -2264.249
v 2750.607 29.1344 -2410.91
v 2750.607 29.13394 -2113.159
v 2750.607 -29.13343 -2259.82
v 2750.607 -29.13342 -2113.159
v 2750.607 29.13392 -2259.82
v 2750.607 29.13394 -1810.978
v 2750.607 -29.13342 -1957.64
v 2750.607 -29.13341 -1810.978
v 2750.607 29.13393 -1957.64
v 2750.607 29.13447 -897.0541
v 2750.607 -29.1329 -1043.716
v 2750.607 -29.13289 -897.0541
v 2750.607 29.13445 -1043.716
v 2750.607 29.134 -443.7837
v 2750.607 -29.13337 -590.4452
v 2750.607 -29.13335 -443.7837
v 2750.607 29.13399 -590.4452

vn 0 0 1
vn 0 0 1
vn 0 0 1
vn 0 0 1
vn 0 0 1
vn 0 0 1
vn 0 0 1
vn 0 0 1
vn 0 0 1
vn 0 0 1
vn 0 0 1
vn 0 0 1
vn -0.7045202 0 0.7096839
vn -0.7045202 0 0.7096839
vn -0.7045202 0 0.709684
vn -0.7045202 0 0.709684
vn 0 0 1
vn 0 0 1
vn 0 0 1
vn 0 0 1
vn 0 0 1
vn 0 0 1
vn 0 0 1
vn 0 0 1
vn 0 0 1
vn 0 0 1
vn 0 0 1
vn 0 0 1
vn 0 0 1
vn 0 0 1
vn 0 0 1
vn 0 0 1
vn 0 0 1
vn 0 0 1
vn 0 0 1
vn 0 0 1
vn 0 0 1
vn 0 0 1
vn 0 0 1
vn 0 0 1
vn 0 0 1
vn 0 0 1
vn 0 0 1
vn 0 0 1
vn 0 0 1
vn 0 0 1
vn 0 0 1
vn 0 0 1
vn 0 0 1
vn 0 0 1
vn 0 0 1
vn 0 0 1
vn 0 0 1
vn 0 0 1
vn 0 0 1
vn 0 0 1
vn 0 0 1
vn 0 0 1
vn 0 0 1
vn 0 0 1
vn 0 0 1
vn 0 0 1
vn 0 0 1
vn 0 0 1
vn 0 0 1
vn 0 0 1
vn 0 0 1
vn 0 0 1
vn 0 0 1
vn 0 0 1
vn 0 0 1
vn 0 0 1
vn 0 0 1
vn 0 0 1
vn 0 0 1
vn 0 0 1
vn 0 0 1
vn 0 0 1
vn 0 0 1
vn 0 0 1
vn 0 0 1
vn 0 0 1
vn 0 0 1
vn 0 0 1
vn 0 0 1
vn 0 0 1
vn 0 0 1
vn 0 0 1
vn 0 0 1
vn 0 0 1
vn 0 0 1
vn 0 0 1
vn -0.7045202 0 0.709684
vn -0.7045202 0 0.709684
vn -0.7045202 0 0.709684
vn -0.7045202 0 0.709684
vn 0.709684 0 0.7045201
vn 0.709684 0 0.70452
vn 0.709684 0 0.7045201
vn 0.709684 0 0.7045201
vn -1 0 0
vn -1 0 0
vn -1 0 0
vn -1 0 0
vn -1 0 0
vn -1 0 0
vn -1 0 0
vn -1 0 0
vn -1 0 0
vn -1 0 0
vn -1 0 0
vn -1 0 0
vn -1 0 0
vn -1 0 0
vn -1 0 0
vn -1 0 0
vn 1 0 0
vn 1 0 0
vn 1 0 0
vn 1 0 0
vn 1 0 0
vn 1 0 0
vn 1 0 0
vn 1 0 0
vn 1 0 0
vn 1 0 0
vn 1 0 0
vn 1 0 0
vn 1 0 0
vn 1 0 0
vn 1 0 0
vn 1 0 0
vn -1 0 0
vn -1 0 0
vn -1 0 0
vn -1 0 0
vn -1 0 0
vn -1 0 0
vn -1 0 0
vn -1 0 0
vn -1 0 0
vn -1 0 0
vn -1 0 0
vn -1 0 0
vn -1 0 0
vn -1 0 0
vn -1 0 0
vn -1 0 0
vn 0 0 -1
vn 0 0 -1
vn 0 0 -1
vn 0 0 -1
vn 0 0 -1
vn 0 0 -1
vn 0 0 -1
vn 0 0 -1
vn 0 0 -1
vn 0 0 -1
vn 0 0 -1
vn 0 0 -1
vn 0 0 -1
vn 0 0 -1
vn 0 0 -1
vn 0 0 -1
vn 1 0 0
vn 1 0 0
vn 1 0 0
vn 1 0 0
vn 1 0 0
vn 1 0 0
vn 1 0 0
vn 1 0 0
vn 1 0 0
vn 1 0 0
vn 1 0 0
vn 1 0 0
vn 1 0 0
vn 1 0 0
vn 1 0 0
vn 1 0 0
vn 1 0 0
vn 1 0 0
vn 1 0 0
vn 1 0 0
vn 1 0 0
vn 1 0 0
vn 1 0 0
vn 1 0 0

vt 0 -47.55613
vt 122.2179 1
vt 0 1
vt 122.2179 -47.55613
vt 0 -47.55613
vt 122.2179 1
vt 0 1
vt 122.2179 -47.55613
vt 0 -47.55613
vt 122.2179 1
vt 0 1
vt 122.2179 -47.55613
vt 0 -47.55613
vt 122.2179 1
vt 0 1
vt 122.2179 -47.55613
vt 0 -47.55613
vt 122.2179 1
vt 0 1
vt 122.2179 -47.55613
vt 0 -47.55613
vt 122.2179 1
vt 0 1
vt 122.2179 -47.55613
vt 0 -47.55613
vt 122.2179 1
vt 0 1
vt 122.2179 -47.55613
vt 0 -47.55613
vt 122.2179 1
vt 0 1
vt 122.2179 -47.55613
vt 0 -47.55613
vt 122.2179 1
vt 0 1
vt 122.2179 -47.55613
vt 0 -47.55613
vt 122.2179 1
vt 0 1
vt 122.2179 -47.55613
vt 0 -47.55613
vt 122.2179 1
vt 0 1
vt 122.2179 -47.55613
vt 0 -47.55613
vt 122.2179 1
vt 0 1
vt 122.2179 -47.55613
vt 0 -47.55613
vt 122.2179 1
vt 0 1
vt 122.2179 -47.55613
vt 0 -47.55613
vt 122.2179 1
vt 0 1
vt 122.2179 -47.55613
vt 0 -47.55613
vt 122.2179 1
vt 0 1
vt 122.2179 -47.55613
vt 0 -47.55613
vt 122.2179 1
vt 0 1
vt 122.2179 -47.55613
vt 0 -47.55613
vt 122.2179 1
vt 0 1
vt 122.2179 -47.55613
vt 0 -47.55613
vt 122.2179 1
vt 0 1
vt 122.2179 -47.55613
vt 0 -47.55613
vt 122.2179 1
vt 0 1
vt 122.2179 -47.55613
vt 0 -47.55613
vt 122.2179 1
vt 0 1
vt 122.2179 -47.55613
vt 0 -47.55613
vt 122.2179 1
vt 0 1
vt 122.2179 -47.55613
vt 0 -47.55613
vt 122.2179 1
vt 0 1
vt 122.2179 -47.55613
vt 0 -47.55613
vt 122.2179 1
vt 0 1
vt 122.2179 -47.55613
vt 0 -47.55613
vt 122.2179 1
vt 0 1
vt 122.2179 -47.55613
vt 0 -47.55613
vt 122.2179 1
vt 0 1
vt 122.2179 -47.55613
vt 0 -47.55613
vt 122.2179 1
vt 0 1
vt 122.2179 -47.55613
vt 0 -47.55613
vt 122.2179 1
vt 0 1
vt 122.2179 -47.55613
vt 0 -47.55613
vt 122.2179 1
vt 0 1
vt 122.2179 -47.55613
vt 0 -47.55613
vt 122.2179 1
vt 0 1
vt 122.2179 -47.55613
vt 0 -47.55613
vt 122.2179 1
vt 0 1
vt 122.2179 -47.55613
vt 0 -47.55613
vt 122.2179 1
vt 0 1
vt 122.2179 -47.55613
vt 0 -47.55613
vt 122.2179 1
vt 0 1
vt 122.2179 -47.55613
vt 0 -47.55613
vt 122.2179 1
vt 0 1
vt 122.2179 -47.55613
vt 0 -47.55613
vt 122.2179 1
vt 0 1
vt 122.2179 -47.55613
vt 0 -47.55613
vt 122.2179 1
vt 0 1
vt 122.2179 -47.55613
vt 0 -47.55613
vt 122.2179 1
vt 0 1
vt 122.2179 -47.55613
vt 0 -47.55613
vt 122.2179 1
vt 0 1
vt 122.2179 -47.55613
vt 0 -47.55613
vt 122.2179 1
vt 0 1
vt 122.2179 -47.55613
vt 0 -47.55613
vt 122.2179 1
vt 0 1
vt 122.2179 -47.55613
vt 0 -47.55613
vt 122.2179 1
vt 0 1
vt 122.2179 -47.55613
vt 0 -47.55613
vt 122.2179 1
vt 0 1
vt 122.2179 -47.55613
vt 0 -47.55613
vt 122.2179 1
vt 0 1
vt 122.2179 -47.55613
vt 0 -47.55613
vt 122.2179 1
vt 0 1
vt 122.2179 -47.55613
vt 0 -47.55613
vt 122.2179 1
vt 0 1
vt 122.2179 -47.55613
vt 0 -47.55613
vt 122.2179 1
vt 0 1
vt 122.2179 -47.55613
vt 0 -47.55613
vt 122.2179 1
vt 0 1
vt 122.2179 -47.55613
vt 0 -47.55613
vt 122.2179 1
vt 0 1
vt 122.2179 -47.55613

g Shop Window065.obj
usemtl Shop Window065
usemap Shop Window065
f 1/1/1 3/3/3 2/2/2
f 1/1/1 2/2/2 4/4/4
f 5/5/5 7/7/7 6/6/6
f 5/5/5 6/6/6 8/8/8
f 9/9/9 11/11/11 10/10/10
f 9/9/9 10/10/10 12/12/12
f 13/13/13 15/15/15 14/14/14
f 13/13/13 14/14/14 16/16/16
f 17/17/17 19/19/19 18/18/18
f 17/17/17 18/18/18 20/20/20
f 21/21/21 23/23/23 22/22/22
f 21/21/21 22/22/22 24/24/24
f 25/25/25 27/27/27 26/26/26
f 25/25/25 26/26/26 28/28/28
f 29/29/29 31/31/31 30/30/30
f 29/29/29 30/30/30 32/32/32
f 33/33/33 35/35/35 34/34/34
f 33/33/33 34/34/34 36/36/36
f 37/37/37 39/39/39 38/38/38
f 37/37/37 38/38/38 40/40/40
f 41/41/41 43/43/43 42/42/42
f 41/41/41 42/42/42 44/44/44
f 45/45/45 47/47/47 46/46/46
f 45/45/45 46/46/46 48/48/48
f 49/49/49 51/51/51 50/50/50
f 49/49/49 50/50/50 52/52/52
f 53/53/53 55/55/55 54/54/54
f 53/53/53 54/54/54 56/56/56
f 57/57/57 59/59/59 58/58/58
f 57/57/57 58/58/58 60/60/60
f 61/61/61 63/63/63 62/62/62
f 61/61/61 62/62/62 64/64/64
f 65/65/65 67/67/67 66/66/66
f 65/65/65 66/66/66 68/68/68
f 69/69/69 71/71/71 70/70/70
f 69/69/69 70/70/70 72/72/72
f 73/73/73 75/75/75 74/74/74
f 73/73/73 74/74/74 76/76/76
f 77/77/77 79/79/79 78/78/78
f 77/77/77 78/78/78 80/80/80
f 81/81/81 83/83/83 82/82/82
f 81/81/81 82/82/82 84/84/84
f 85/85/85 87/87/87 86/86/86
f 85/85/85 86/86/86 88/88/88
f 89/89/89 91/91/91 90/90/90
f 89/89/89 90/90/90 92/92/92
f 93/93/93 95/95/95 94/94/94
f 93/93/93 94/94/94 96/96/96
f 97/97/97 99/99/99 98/98/98
f 97/97/97 98/98/98 100/100/100
f 101/101/101 103/103/103 102/102/102
f 101/101/101 102/102/102 104/104/104
f 105/105/105 107/107/107 106/106/106
f 105/105/105 106/106/106 108/108/108
f 109/109/109 111/111/111 110/110/110
f 109/109/109 110/110/110 112/112/112
f 113/113/113 115/115/115 114/114/114
f 113/113/113 114/114/114 116/116/116
f 117/117/117 119/119/119 118/118/118
f 117/117/117 118/118/118 120/120/120
f 121/121/121 123/123/123 122/122/122
f 121/121/121 122/122/122 124/124/124
f 125/125/125 127/127/127 126/126/126
f 125/125/125 126/126/126 128/128/128
f 129/129/129 131/131/131 130/130/130
f 129/129/129 130/130/130 132/132/132
f 133/133/133 135/135/135 134/134/134
f 133/133/133 134/134/134 136/136/136
f 137/137/137 139/139/139 138/138/138
f 137/137/137 138/138/138 140/140/140
f 141/141/141 143/143/143 142/142/142
f 141/141/141 142/142/142 144/144/144
f 145/145/145 147/147/147 146/146/146
f 145/145/145 146/146/146 148/148/148
f 149/149/149 151/151/151 150/150/150
f 149/149/149 150/150/150 152/152/152
f 153/153/153 155/155/155 154/154/154
f 153/153/153 154/154/154 156/156/156
f 157/157/157 159/159/159 158/158/158
f 157/157/157 158/158/158 160/160/160
f 161/161/161 163/163/163 162/162/162
f 161/161/161 162/162/162 164/164/164
f 165/165/165 167/167/167 166/166/166
f 165/165/165 166/166/166 168/168/168
f 169/169/169 171/171/171 170/170/170
f 169/169/169 170/170/170 172/172/172
f 173/173/173 175/175/175 174/174/174
f 173/173/173 174/174/174 176/176/176
f 177/177/177 179/179/179 178/178/178
f 177/177/177 178/178/178 180/180/180
f 181/181/181 183/183/183 182/182/182
f 181/181/181 182/182/182 184/184/184
f 185/185/185 187/187/187 186/186/186
f 185/185/185 186/186/186 188/188/188
