#ShopCourtain010.obj

v -233.3645 -15.28747 -31.0313
v 35.7932 -29.22797 -24.10111
v -233.3645 -29.22798 -24.10111
v 35.7932 -15.28745 -31.03131
v -233.3645 0.5598278 -31.0313
v 35.7932 0.559845 -31.03131
v -233.3645 7.993463 -24.49773
v 35.79318 7.993468 -24.49773
v -233.3645 14.07841 -10.26245
v 35.79318 14.07843 -10.26246
v -233.3645 23.84709 -1.221114
v 35.79318 23.8471 -1.221116
v -233.3645 36.25605 2.960342
v 35.79318 36.25606 2.960342
v -233.3645 48.55458 2.782235
v 35.79318 48.55459 2.782237
v -233.3645 63.38925 0
v 35.79324 63.38926 0
v 232.3201 -8.983821 -33.32567
v 232.9269 -22.86889 -26.41565
v 231.736 6.810221 -33.30629
v 231.5497 14.22692 -26.76654
v 231.5164 20.30879 -12.53014
v 231.2776 30.05575 -3.480888
v 230.8764 42.42813 0.7138733
v 230.4207 54.68517 0.5508774
v 229.8367 69.46641 -2.211912
v -233.3645 -29.22798 -24.10111
v -233.3645 -14.25496 -49.77834
v -233.3645 -15.28747 -31.0313
v -233.3645 -26.61219 -45.4283
v -233.3645 -0.2075146 -54.72339
v -233.3645 0.5598278 -31.0313
v -233.3645 6.381848 -57.043
v -233.3645 7.993463 -24.49773
v -233.3645 11.77571 -58.94178
v -233.3645 14.07841 -10.26245
v -233.3645 20.43491 -61.99002
v -233.3645 23.84709 -1.221114
v -233.3645 31.4345 -65.86216
v -233.3645 36.25605 2.960342
v -233.3645 42.33625 -69.69984
v -233.3645 48.55458 2.782235
v -233.3645 55.48607 -74.3289
v -233.3645 63.38925 0
v 232.3201 -8.983821 -33.32567
v 232.5443 -20.28799 -47.73014
v 232.9269 -22.86889 -26.41565
v 232.0305 -7.977654 -52.06312
v 231.736 6.810221 -33.30629
v 231.4465 6.016545 -56.98876
v 231.5497 14.22692 -26.76654
v 231.1725 12.58088 -59.2993
v 231.5164 20.30879 -12.53014
v 230.9483 17.95439 -61.19066
v 231.2776 30.05575 -3.480888
v 230.5882 26.58073 -64.22694
v 230.8764 42.42813 0.7138733
v 230.1308 37.53867 -68.08391
v 230.4207 54.68517 0.5508774
v 229.6776 48.39904 -71.90652
v 229.8367 69.46641 -2.211912
v 229.1308 61.49902 -76.51744
v -234.2509 -14.32199 -28.37865
v 35.9939 -28.26249 -21.44847
v 35.99389 -14.32197 -28.37866
v -234.2509 -28.2625 -21.44846
v -234.2509 1.525308 -28.37865
v 35.99389 1.525322 -28.37865
v -234.2509 8.958941 -21.84508
v 35.99389 8.958947 -21.84508
v -234.2509 15.04389 -7.609804
v 35.99389 15.0439 -7.609804
v -234.2509 24.81257 1.431534
v 35.99389 24.81258 1.431531
v -234.2509 37.22153 5.612992
v 35.99389 37.22154 5.612994
v -234.2509 49.52006 5.434889
v 35.99389 49.52007 5.434889
v -234.2509 64.35472 2.652649
v 35.99394 64.35473 2.652651
v 233.0188 8.010165 -30.73897
v 232.8325 15.42673 -24.19917
v 232.7992 21.50862 -9.962788
v 232.5604 31.25555 -0.9135453
v 232.1592 43.62796 3.281232
v 231.7035 55.88503 3.118222
v 231.1195 70.66643 0.3553734
v 233.603 -7.783912 -30.75834
v 234.2097 -21.66912 -23.84827
v -234.2509 -28.2625 -21.44846
v -234.2509 -14.22688 -49.70117
v -234.2509 -26.58411 -45.35112
v -234.2509 -14.32199 -28.37865
v -234.2509 -0.1794308 -54.64621
v -234.2509 1.525308 -28.37865
v -234.2509 6.40993 -56.96583
v -234.2509 8.958941 -21.84508
v -234.2509 11.80379 -58.8646
v -234.2509 15.04389 -7.609804
v -234.2509 20.46298 -61.91285
v -234.2509 24.81257 1.431534
v -234.2509 31.46259 -65.78498
v -234.2509 37.22153 5.612992
v -234.2509 42.36433 -69.62266
v -234.2509 49.52006 5.434889
v -234.2508 55.51413 -74.25172
v -234.2509 64.35472 2.652649
v 233.603 -7.783912 -30.75834
v 233.8272 -20.02557 -47.73822
v 233.3134 -7.715218 -52.07125
v 234.2097 -21.66912 -23.84827
v 233.0188 8.010165 -30.73897
v 232.7293 6.278909 -56.99688
v 232.8325 15.42673 -24.19917
v 232.4553 12.84338 -59.30743
v 232.7992 21.50862 -9.962788
v 232.231 18.21673 -61.19873
v 232.5604 31.25555 -0.9135453
v 231.871 26.84317 -64.23506
v 232.1592 43.62796 3.281232
v 231.4137 37.80122 -68.09206
v 231.7035 55.88503 3.118222
v 230.9603 48.66152 -71.91467
v 231.1195 70.66643 0.3553734
v 230.4137 61.76149 -76.52559

vn 0 0.2286327 0.9735127
vn -0.001898905 0.4452139 0.8954222
vn 0 0.4451536 0.8954542
vn 0.001923936 0.2309744 0.972958
vn 0 -0.352764 0.9357123
vn 0.01101619 -0.3502252 0.9366007
vn 0 -0.8098797 0.5865961
vn 0.01632576 -0.8094718 0.5869316
vn 0 -0.8173513 0.5761396
vn 0.01630448 -0.8176602 0.5754701
vn 0 -0.5106025 0.859817
vn 0.01308687 -0.5120122 0.8588785
vn 0 -0.1546468 0.9879699
vn 0.00818505 -0.1564467 0.9876525
vn 0 0.09977206 0.9950103
vn 0.004167185 0.09874701 0.9951038
vn 0 0.1843356 0.9828634
vn 0.00275467 0.1842348 0.9828784
vn 0.003988313 0.2292484 0.9733598
vn -0.003839934 0.4452739 0.8953862
vn 0.02210093 -0.3521784 0.935672
vn 0.0325815 -0.8094904 0.5862284
vn 0.03266564 -0.8171819 0.5754535
vn 0.0261655 -0.5112854 0.8590127
vn 0.01630586 -0.155632 0.9876806
vn 0.00828849 0.099172 0.9950358
vn 0.005452855 0.1841345 0.9828859
vn -1 0 0
vn -1 0 0
vn -1 0 0
vn -1 0 0
vn -1 0 0
vn -1 0 0
vn -1 0 0
vn -1 0 0
vn -1 0 0
vn -1 0 0
vn -1 0 0
vn -1 0 0
vn -1 0 0
vn -1 0 0
vn -1 0 0
vn -1 0 0
vn -1 0 0
vn -1 0 0
vn 0.9992259 0.03696891 -0.01345603
vn 0.9992259 0.0369689 -0.01345603
vn 0.9992259 0.03696891 -0.01345603
vn 0.9992259 0.03696891 -0.01345603
vn 0.9992259 0.03697015 -0.01345516
vn 0.9992259 0.03697015 -0.01345516
vn 0.999226 0.03696579 -0.01345499
vn 0.999226 0.03696579 -0.01345499
vn 0.9992261 0.03696393 -0.01345459
vn 0.9992261 0.03696393 -0.01345459
vn 0.9992259 0.03696952 -0.0134552
vn 0.9992259 0.03696952 -0.0134552
vn 0.9992259 0.0369698 -0.01345569
vn 0.9992259 0.0369698 -0.01345569
vn 0.9992259 0.03696799 -0.01345532
vn 0.9992259 0.03696799 -0.01345532
vn 0.9992261 0.03696341 -0.01345544
vn 0.9992261 0.0369634 -0.01345544
vn 0 -0.2286326 -0.9735128
vn 0.001957702 -0.4452127 -0.8954227
vn -0.001982425 -0.2310511 -0.9729397
vn 0 -0.4451537 -0.8954541
vn 0 0.3527641 -0.9357123
vn -0.01136466 0.350134 -0.9366307
vn 0 0.8098797 -0.5865961
vn -0.01684675 0.8094518 -0.5869446
vn 0 0.8173512 -0.5761396
vn -0.01682366 0.8176622 -0.5754523
vn 0 0.5106025 -0.8598168
vn -0.01350605 0.5120441 -0.858853
vn 0 0.154647 -0.9879698
vn -0.008449848 0.1564922 -0.9876431
vn 0 -0.09977216 -0.9950103
vn -0.004303281 -0.09872146 -0.9951057
vn 0 -0.1843359 -0.9828634
vn -0.002845502 -0.184237 -0.9828777
vn -0.02280792 0.3523352 -0.9355959
vn -0.03361928 0.8094849 -0.5861774
vn -0.03370715 0.8171287 -0.5754689
vn -0.02700094 0.5111867 -0.8590455
vn -0.0168276 0.1555203 -0.9876894
vn -0.008555399 -0.09923468 -0.9950272
vn -0.00563078 -0.1841388 -0.9828841
vn -0.004120536 -0.2290994 -0.9733943
vn 0.003960228 -0.4452713 -0.8953871
vn 1 0 0
vn 1 0 0
vn 1 0 0
vn 1 0 0
vn 1 0 0
vn 1 0 0
vn 1 0 0
vn 1 0 0
vn 1 0 0
vn 1 0 0
vn 1 0 0
vn 1 0 0
vn 1 0 0
vn 1 0 0
vn 1 0 0
vn 1 0 0
vn 1 0 0
vn 1 0 0
vn -0.9992259 -0.0369672 0.01345607
vn -0.9992259 -0.0369672 0.01345607
vn -0.9992259 -0.0369672 0.01345607
vn -0.9992259 -0.0369672 0.01345607
vn -0.9992257 -0.03697136 0.01345552
vn -0.9992257 -0.03697136 0.01345552
vn -0.9992259 -0.03696849 0.01345519
vn -0.9992259 -0.0369685 0.01345519
vn -0.9992259 -0.03696886 0.01345573
vn -0.9992259 -0.03696886 0.01345573
vn -0.9992259 -0.03696956 0.01345589
vn -0.9992259 -0.03696956 0.01345589
vn -0.9992259 -0.03696799 0.01345552
vn -0.9992259 -0.03696798 0.01345552
vn -0.9992259 -0.03696957 0.01345568
vn -0.9992259 -0.03696957 0.01345568
vn -0.999226 -0.03696519 0.01345525
vn -0.999226 -0.03696519 0.01345525

vt 0 -12.20609
vt 195.209 1
vt 0 1
vt 195.209 -12.20609
vt 0 -25.41219
vt 195.209 -25.41219
vt 0 -38.61828
vt 195.209 -38.61828
vt 0 -51.82437
vt 195.209 -51.82437
vt 0 -65.03046
vt 195.209 -65.03046
vt 0 -78.23656
vt 195.209 -78.23656
vt 0 -91.44265
vt 195.209 -91.44265
vt 0 -104.6487
vt 195.209 -104.6487
vt 390.4181 -12.20609
vt 390.4181 1
vt 390.4181 -25.41219
vt 390.4181 -38.61828
vt 390.4181 -51.82437
vt 390.4181 -65.03046
vt 390.4181 -78.23656
vt 390.4181 -91.44265
vt 390.4181 -104.6487
vt 0 1
vt 0 -12.20609
vt 0 -12.20609
vt 0 1
vt 0 -25.41219
vt 0 -25.41219
vt 0 -38.61828
vt 0 -38.61828
vt 0 -51.82437
vt 0 -51.82437
vt 0 -65.03046
vt 0 -65.03046
vt 0 -78.23656
vt 0 -78.23656
vt 0 -91.44265
vt 0 -91.44265
vt 0 -104.6487
vt 0 -104.6487
vt 390.4181 -12.20609
vt 390.4181 1
vt 390.4181 1
vt 390.4181 -12.20609
vt 390.4181 -25.41219
vt 390.4181 -25.41219
vt 390.4181 -38.61828
vt 390.4181 -38.61828
vt 390.4181 -51.82437
vt 390.4181 -51.82437
vt 390.4181 -65.03046
vt 390.4181 -65.03046
vt 390.4181 -78.23656
vt 390.4181 -78.23656
vt 390.4181 -91.44265
vt 390.4181 -91.44265
vt 390.4181 -104.6487
vt 390.4181 -104.6487
vt 0 -12.20609
vt 195.209 1
vt 195.209 -12.20609
vt 0 1
vt 0 -25.41219
vt 195.209 -25.41219
vt 0 -38.61828
vt 195.209 -38.61828
vt 0 -51.82437
vt 195.209 -51.82437
vt 0 -65.03046
vt 195.209 -65.03046
vt 0 -78.23656
vt 195.209 -78.23656
vt 0 -91.44265
vt 195.209 -91.44265
vt 0 -104.6487
vt 195.209 -104.6487
vt 390.4181 -25.41219
vt 390.4181 -38.61828
vt 390.4181 -51.82437
vt 390.4181 -65.03046
vt 390.4181 -78.23656
vt 390.4181 -91.44265
vt 390.4181 -104.6487
vt 390.4181 -12.20609
vt 390.4181 1
vt 0 1
vt 0 -12.20609
vt 0 1
vt 0 -12.20609
vt 0 -25.41219
vt 0 -25.41219
vt 0 -38.61828
vt 0 -38.61828
vt 0 -51.82437
vt 0 -51.82437
vt 0 -65.03046
vt 0 -65.03046
vt 0 -78.23656
vt 0 -78.23656
vt 0 -91.44265
vt 0 -91.44265
vt 0 -104.6487
vt 0 -104.6487
vt 390.4181 -12.20609
vt 390.4181 1
vt 390.4181 -12.20609
vt 390.4181 1
vt 390.4181 -25.41219
vt 390.4181 -25.41219
vt 390.4181 -38.61828
vt 390.4181 -38.61828
vt 390.4181 -51.82437
vt 390.4181 -51.82437
vt 390.4181 -65.03046
vt 390.4181 -65.03046
vt 390.4181 -78.23656
vt 390.4181 -78.23656
vt 390.4181 -91.44265
vt 390.4181 -91.44265
vt 390.4181 -104.6487
vt 390.4181 -104.6487

g ShopCourtain010.obj
usemtl ShopCourtain010
usemap ShopCourtain010
f 1/1/1 3/3/3 2/2/2
f 1/1/1 2/2/2 4/4/4
f 5/5/5 1/1/1 4/4/4
f 5/5/5 4/4/4 6/6/6
f 7/7/7 5/5/5 6/6/6
f 7/7/7 6/6/6 8/8/8
f 9/9/9 7/7/7 8/8/8
f 9/9/9 8/8/8 10/10/10
f 11/11/11 9/9/9 10/10/10
f 11/11/11 10/10/10 12/12/12
f 13/13/13 11/11/11 12/12/12
f 13/13/13 12/12/12 14/14/14
f 15/15/15 13/13/13 14/14/14
f 15/15/15 14/14/14 16/16/16
f 17/17/17 15/15/15 16/16/16
f 17/17/17 16/16/16 18/18/18
f 6/6/6 4/4/4 19/19/19
f 4/4/4 20/20/20 19/19/19
f 6/6/6 19/19/19 21/21/21
f 8/8/8 6/6/6 21/21/21
f 8/8/8 21/21/21 22/22/22
f 10/10/10 8/8/8 22/22/22
f 10/10/10 22/22/22 23/23/23
f 12/12/12 10/10/10 23/23/23
f 12/12/12 23/23/23 24/24/24
f 14/14/14 12/12/12 24/24/24
f 14/14/14 24/24/24 25/25/25
f 16/16/16 14/14/14 25/25/25
f 16/16/16 25/25/25 26/26/26
f 18/18/18 16/16/16 26/26/26
f 18/18/18 26/26/26 27/27/27
f 4/4/4 2/2/2 20/20/20
f 28/28/28 30/30/30 29/29/29
f 28/28/28 29/29/29 31/31/31
f 30/30/30 32/32/32 29/29/29
f 30/30/30 33/33/33 32/32/32
f 33/33/33 34/34/34 32/32/32
f 33/33/33 35/35/35 34/34/34
f 35/35/35 36/36/36 34/34/34
f 35/35/35 37/37/37 36/36/36
f 37/37/37 38/38/38 36/36/36
f 37/37/37 39/39/39 38/38/38
f 39/39/39 40/40/40 38/38/38
f 39/39/39 41/41/41 40/40/40
f 41/41/41 42/42/42 40/40/40
f 41/41/41 43/43/43 42/42/42
f 43/43/43 44/44/44 42/42/42
f 43/43/43 45/45/45 44/44/44
f 46/46/46 48/48/48 47/47/47
f 46/46/46 47/47/47 49/49/49
f 50/50/50 46/46/46 49/49/49
f 50/50/50 49/49/49 51/51/51
f 52/52/52 50/50/50 51/51/51
f 52/52/52 51/51/51 53/53/53
f 54/54/54 52/52/52 53/53/53
f 54/54/54 53/53/53 55/55/55
f 56/56/56 54/54/54 55/55/55
f 56/56/56 55/55/55 57/57/57
f 58/58/58 56/56/56 57/57/57
f 58/58/58 57/57/57 59/59/59
f 60/60/60 58/58/58 59/59/59
f 60/60/60 59/59/59 61/61/61
f 62/62/62 60/60/60 61/61/61
f 62/62/62 61/61/61 63/63/63
f 64/64/64 66/66/66 65/65/65
f 64/64/64 65/65/65 67/67/67
f 68/68/68 66/66/66 64/64/64
f 68/68/68 69/69/69 66/66/66
f 70/70/70 69/69/69 68/68/68
f 70/70/70 71/71/71 69/69/69
f 72/72/72 71/71/71 70/70/70
f 72/72/72 73/73/73 71/71/71
f 74/74/74 73/73/73 72/72/72
f 74/74/74 75/75/75 73/73/73
f 76/76/76 75/75/75 74/74/74
f 76/76/76 77/77/77 75/75/75
f 78/78/78 77/77/77 76/76/76
f 78/78/78 79/79/79 77/77/77
f 80/80/80 79/79/79 78/78/78
f 80/80/80 81/81/81 79/79/79
f 66/66/66 69/69/69 82/82/82
f 69/69/69 71/71/71 83/83/83
f 69/69/69 83/83/83 82/82/82
f 71/71/71 73/73/73 84/84/84
f 71/71/71 84/84/84 83/83/83
f 73/73/73 75/75/75 85/85/85
f 73/73/73 85/85/85 84/84/84
f 75/75/75 77/77/77 86/86/86
f 75/75/75 86/86/86 85/85/85
f 77/77/77 79/79/79 87/87/87
f 77/77/77 87/87/87 86/86/86
f 79/79/79 81/81/81 88/88/88
f 79/79/79 88/88/88 87/87/87
f 66/66/66 82/82/82 89/89/89
f 65/65/65 66/66/66 89/89/89
f 65/65/65 89/89/89 90/90/90
f 91/91/91 93/93/93 92/92/92
f 91/91/91 92/92/92 94/94/94
f 94/94/94 92/92/92 95/95/95
f 94/94/94 95/95/95 96/96/96
f 96/96/96 95/95/95 97/97/97
f 96/96/96 97/97/97 98/98/98
f 98/98/98 97/97/97 99/99/99
f 98/98/98 99/99/99 100/100/100
f 100/100/100 99/99/99 101/101/101
f 100/100/100 101/101/101 102/102/102
f 102/102/102 101/101/101 103/103/103
f 102/102/102 103/103/103 104/104/104
f 104/104/104 103/103/103 105/105/105
f 104/104/104 105/105/105 106/106/106
f 106/106/106 105/105/105 107/107/107
f 106/106/106 107/107/107 108/108/108
f 109/109/109 111/111/111 110/110/110
f 109/109/109 110/110/110 112/112/112
f 113/113/113 111/111/111 109/109/109
f 113/113/113 114/114/114 111/111/111
f 115/115/115 114/114/114 113/113/113
f 115/115/115 116/116/116 114/114/114
f 117/117/117 116/116/116 115/115/115
f 117/117/117 118/118/118 116/116/116
f 119/119/119 118/118/118 117/117/117
f 119/119/119 120/120/120 118/118/118
f 121/121/121 120/120/120 119/119/119
f 121/121/121 122/122/122 120/120/120
f 123/123/123 122/122/122 121/121/121
f 123/123/123 124/124/124 122/122/122
f 125/125/125 124/124/124 123/123/123
f 125/125/125 126/126/126 124/124/124
