#Slices002.obj

v 8.170397 0 0
v -4.085199 7.075771 1.927968
v -4.085199 7.075771 0
v 8.170397 0 1.927968
v -4.085197 -7.075771 0
v -4.085197 -7.075771 1.927968
v -4.085199 7.075771 0
v -4.085199 7.075771 1.927968
v 8.170397 0 1.927968
v -4.085197 -7.075771 1.927968
v -4.085199 7.075771 1.927968
v 11.55811 -1.107336 -2.033103E-06
v 11.55812 -15.25888 1.927961
v 11.55812 -15.25888 -7.134131E-06
v 11.55811 -1.107337 1.927966
v 11.55812 -15.25888 -7.134131E-06
v 23.81371 -8.183104 1.927954
v 23.81371 -8.183103 -1.372095E-05
v 11.55812 -15.25888 1.927961
v 23.81371 -8.183103 -1.372095E-05
v 11.55811 -1.107337 1.927966
v 11.55811 -1.107336 -2.033103E-06
v 23.81371 -8.183104 1.927954
v 23.81371 -8.183104 1.927954
v 11.55812 -15.25888 1.927961
v 11.55811 -1.107337 1.927966
v 5.138733 -2.268409 -2.076609E-06
v -0.8419662 -15.09406 1.927963
v -0.8419671 -15.09406 -5.303174E-06
v 5.138733 -2.26841 1.927966
v 13.25572 -13.86067 -1.55084E-05
v 13.25573 -13.86067 1.927952
v -0.8419671 -15.09406 -5.303174E-06
v -0.8419662 -15.09406 1.927963
v 5.138733 -2.26841 1.927966
v 13.25573 -13.86067 1.927952
v -0.8419662 -15.09406 1.927963
v 5.946596 1.202926 -2.605889E-06
v 20.04429 2.436318 1.92795
v 20.04428 2.436318 -1.791214E-05
v 5.946597 1.202926 1.927965
v 20.04428 2.436318 -1.791214E-05
v 11.92729 14.02858 1.927957
v 11.92729 14.02858 -1.106717E-05
v 20.04429 2.436318 1.92795
v 11.92729 14.02858 -1.106717E-05
v 5.946597 1.202926 1.927965
v 5.946596 1.202926 -2.605889E-06
v 11.92729 14.02858 1.927957
v 11.92729 14.02858 1.927957
v 20.04429 2.436318 1.92795
v 5.946597 1.202926 1.927965
v -203.6135 83.25639 0.0001330376
v -208.4536 96.55449 1.928096
v -208.4536 96.55449 0.0001277924
v -203.6135 83.25639 1.928101
v -217.55 85.71378 0.0001336336
v -217.55 85.71378 1.928102
v -208.4536 96.55449 0.0001277924
v -208.4536 96.55449 1.928096
v -203.6135 83.25639 1.928101
v -217.55 85.71378 1.928102
v -208.4536 96.55449 1.928096
v -210.4842 80.67984 0.0001379381
v -219.5807 69.83913 1.928106
v -219.5807 69.83913 0.0001387707
v -210.4842 80.67984 1.928106
v -219.5807 69.83913 0.0001387707
v -205.6441 67.38174 1.928099
v -205.6441 67.38174 0.0001315262
v -219.5807 69.83913 1.928106
v -205.6441 67.38174 0.0001315262
v -210.4842 80.67984 1.928106
v -210.4842 80.67984 0.0001379381
v -205.6441 67.38174 1.928099
v -205.6441 67.38174 1.928099
v -219.5807 69.83913 1.928106
v -210.4842 80.67984 1.928106
v -81.01749 36.61592 5.328655E-05
v -94.31559 31.77582 1.928022
v -94.31559 31.77582 5.459785E-05
v -81.01748 36.61592 1.928021
v -83.47487 22.67937 4.696846E-05
v -83.47487 22.67937 1.928015
v -94.31559 31.77582 5.459785E-05
v -94.31559 31.77582 1.928022
v -81.01748 36.61592 1.928021
v -83.47487 22.67937 1.928015
v -94.31559 31.77582 1.928022
v -77.51098 31.31112 5.137266E-05
v -77.51098 17.15958 1.928014
v -77.51098 17.15958 4.627163E-05
v -77.51098 31.31112 1.928019
v -77.51098 17.15958 4.627163E-05
v -65.25539 24.23535 1.928007
v -65.25539 24.23536 3.968481E-05
v -77.51098 17.15958 1.928014
v -65.25539 24.23536 3.968481E-05
v -77.51098 31.31112 1.928019
v -77.51098 31.31112 5.137266E-05
v -65.25539 24.23535 1.928007
v -65.25539 24.23535 1.928007
v -77.51098 17.15958 1.928014
v -77.51098 31.31112 1.928019
v -750.6436 612.1889 0.0004742433
v -756.6243 625.0145 1.928438
v -756.6243 625.0145 0.0004697549
v -750.6436 612.1889 1.928442
v -764.7413 613.4223 0.0004750692
v -764.7413 613.4223 1.928443
v -756.6243 625.0145 0.0004697549
v -756.6243 625.0145 1.928438
v -750.6436 612.1889 1.928442
v -764.7413 613.4223 1.928443
v -756.6243 625.0145 1.928438
v -748.5037 609.3387 0.0004731322
v -756.6207 597.7465 1.928441
v -756.6207 597.7465 0.0004733454
v -748.5037 609.3387 1.928441
v -756.6207 597.7465 0.0004733454
v -742.523 596.5131 1.928434
v -742.523 596.5131 0.0004659327
v -756.6207 597.7465 1.928441
v -742.523 596.5131 0.0004659327
v -748.5037 609.3387 1.928441
v -748.5037 609.3387 0.0004731322
v -742.523 596.5131 1.928434
v -742.523 596.5131 1.928434
v -756.6207 597.7465 1.928441
v -748.5037 609.3387 1.928441
v -226.0113 68.41855 0.0001487732
v -216.9149 79.25924 1.928102
v -216.9149 79.25924 0.0001344681
v -226.0113 68.41855 1.928117
v -230.8515 81.71662 0.0001428127
v -230.8515 81.71662 1.928111
v -216.9149 79.25924 0.0001344681
v -216.9149 79.25924 1.928102
v -226.0113 68.41855 1.928117
v -230.8515 81.71662 1.928111
v -216.9149 79.25924 1.928102

vn 1 0 0
vn -0.5 0.8660254 0
vn -0.5 0.8660254 0
vn 1 0 0
vn -0.5 -0.8660254 0
vn -0.5 -0.8660254 0
vn -0.5 0.8660254 0
vn -0.5 0.8660254 0
vn 0 0 1
vn 0 0 1
vn 0 0 1
vn -0.5000002 0.8660253 0
vn -0.4999999 -0.8660255 0
vn -0.4999997 -0.8660256 0
vn -0.5000003 0.8660253 0
vn -0.4999997 -0.8660256 0
vn 1 0 0
vn 1 0 0
vn -0.4999999 -0.8660255 0
vn 1 0 0
vn -0.5000003 0.8660253 0
vn -0.5000002 0.8660253 0
vn 1 0 0
vn 0 0 1
vn 0 0 1
vn 0 0 1
vn -0.08715556 0.9961947 0
vn -0.8191522 -0.5735763 0
vn -0.8191518 -0.5735769 0
vn -0.0871561 0.9961947 0
vn 0.9063078 -0.4226182 0
vn 0.9063078 -0.4226182 0
vn -0.8191518 -0.5735769 0
vn -0.8191522 -0.5735763 0
vn 0 0 1
vn 0 0 1
vn 0 0 1
vn -0.8191518 -0.5735767 0
vn 0.906308 -0.4226178 0
vn 0.9063079 -0.422618 0
vn -0.8191519 -0.5735766 0
vn 0.9063079 -0.422618 0
vn -0.08715604 0.9961947 0
vn -0.08715617 0.9961947 0
vn 0.906308 -0.4226178 0
vn -0.08715617 0.9961947 0
vn -0.8191519 -0.5735766 0
vn -0.8191518 -0.5735767 0
vn -0.08715604 0.9961947 0
vn 0 0 1
vn 0 0 1
vn 0 0 1
vn 0.7660443 -0.6427878 0
vn 0.1736486 0.9848077 0
vn 0.1736486 0.9848077 0
vn 0.7660441 -0.6427881 0
vn -0.9396926 -0.34202 0
vn -0.9396926 -0.3420203 0
vn 0.1736486 0.9848077 0
vn 0.1736486 0.9848077 0
vn 0 0 1
vn 0 0 1
vn 0 0 1
vn 0.1736481 0.9848077 0
vn -0.9396926 -0.3420202 0
vn -0.9396924 -0.3420208 0
vn 0.1736475 0.9848078 0
vn -0.9396924 -0.3420208 0
vn 0.7660447 -0.6427874 0
vn 0.7660448 -0.6427873 0
vn -0.9396926 -0.3420202 0
vn 0.7660448 -0.6427873 0
vn 0.1736475 0.9848078 0
vn 0.1736481 0.9848077 0
vn 0.7660447 -0.6427874 0
vn 0 0 1
vn 0 0 1
vn 0 0 1
vn 0.6427866 0.7660453 0
vn -0.9848077 0.1736481 0
vn -0.9848077 0.1736486 0
vn 0.6427889 0.7660434 0
vn 0.3420202 -0.9396926 0
vn 0.3420202 -0.9396926 0
vn -0.9848077 0.1736486 0
vn -0.9848077 0.1736481 0
vn 0 0 1
vn 0 0 1
vn 0 0 1
vn -0.4999997 0.8660255 0
vn -0.5000002 -0.8660253 0
vn -0.4999995 -0.8660257 0
vn -0.5000002 0.8660253 0
vn -0.4999995 -0.8660257 0
vn 1 0 0
vn 1 0 0
vn -0.5000002 -0.8660253 0
vn 1 0 0
vn -0.5000002 0.8660253 0
vn -0.4999997 0.8660255 0
vn 1 0 0
vn 0 0 1
vn 0 0 1
vn 0 0 1
vn 0.8191525 -0.5735758 0
vn 0.087156 0.9961947 0
vn 0.0871561 0.9961947 0
vn 0.8191522 -0.5735762 0
vn -0.9063085 -0.4226167 0
vn -0.9063084 -0.422617 0
vn 0.0871561 0.9961947 0
vn 0.087156 0.9961947 0
vn 0 0 1
vn 0 0 1
vn 0 0 1
vn 0.08715632 0.9961947 0
vn -0.9063085 -0.4226167 0
vn -0.9063082 -0.4226171 0
vn 0.08715572 0.9961947 0
vn -0.9063082 -0.4226171 0
vn 0.8191523 -0.573576 0
vn 0.8191523 -0.573576 0
vn -0.9063085 -0.4226167 0
vn 0.8191523 -0.573576 0
vn 0.08715572 0.9961947 0
vn 0.08715632 0.9961947 0
vn 0.8191523 -0.573576 0
vn 0 0 1
vn 0 0 1
vn 0 0 1
vn -0.1736474 -0.984808 0
vn 0.9396926 0.3420201 0
vn 0.9396926 0.3420205 0
vn -0.173648 -0.9848078 0
vn -0.7660446 0.6427874 0
vn -0.7660453 0.6427866 0
vn 0.9396926 0.3420205 0
vn 0.9396926 0.3420201 0
vn 0 0 1
vn 0 0 1
vn 0 0 1

vt 38.50209 1
vt 55.61413 -0.9279678
vt 55.61413 1
vt 38.50209 -0.9279678
vt 21.39005 1
vt 21.39005 -0.9279678
vt 4.278011 1
vt 4.278011 -0.9279678
vt 89.8382 -0.9279678
vt 72.72617 -0.9279678
vt 55.61413 -0.9279678
vt 0.0004996061 0.9995005
vt 0.9995003 0.0004995465
vt 0.9995003 0.9995005
vt 0.0004996061 0.0004995465
vt 0.0004996061 0.9995005
vt 0.9995005 0.0004995465
vt 0.9995005 0.9995005
vt 0.0004996061 0.0004995465
vt 0.0004995763 0.9995005
vt 0.9995004 0.0004995465
vt 0.9995004 0.9995005
vt 0.0004995763 0.0004995465
vt 0.0004995763 0.9995005
vt 0.0004997551 0.0004996061
vt 0.9995004 0.5000002
vt 38.50209 1
vt 55.61413 -0.9279678
vt 55.61413 1
vt 38.50209 -0.9279678
vt 21.39005 1
vt 21.39005 -0.9279678
vt 4.278011 1
vt 4.278011 -0.9279678
vt 89.8382 -0.9279678
vt 72.72617 -0.9279678
vt 55.61413 -0.9279678
vt 0.0004996061 0.9995005
vt 0.9995003 0.0004995465
vt 0.9995003 0.9995005
vt 0.0004996061 0.0004995465
vt 0.0004996061 0.9995005
vt 0.9995005 0.0004995465
vt 0.9995005 0.9995005
vt 0.0004996061 0.0004995465
vt 0.0004995763 0.9995005
vt 0.9995004 0.0004995465
vt 0.9995004 0.9995005
vt 0.0004995763 0.0004995465
vt 0.0004995763 0.9995005
vt 0.0004997551 0.0004996061
vt 0.9995004 0.5000002
vt 38.50209 1
vt 55.61413 -0.9279678
vt 55.61413 1
vt 38.50209 -0.9279678
vt 21.39005 1
vt 21.39005 -0.9279678
vt 4.278011 1
vt 4.278011 -0.9279678
vt 89.8382 -0.9279678
vt 72.72617 -0.9279678
vt 55.61413 -0.9279678
vt 0.0004996061 0.9995005
vt 0.9995003 0.0004995465
vt 0.9995003 0.9995005
vt 0.0004996061 0.0004995465
vt 0.0004996061 0.9995005
vt 0.9995005 0.0004995465
vt 0.9995005 0.9995005
vt 0.0004996061 0.0004995465
vt 0.0004995763 0.9995005
vt 0.9995004 0.0004995465
vt 0.9995004 0.9995005
vt 0.0004995763 0.0004995465
vt 0.0004995763 0.9995005
vt 0.0004997551 0.0004996061
vt 0.9995004 0.5000002
vt 38.50209 1
vt 55.61413 -0.9279678
vt 55.61413 1
vt 38.50209 -0.9279678
vt 21.39005 1
vt 21.39005 -0.9279678
vt 4.278011 1
vt 4.278011 -0.9279678
vt 89.8382 -0.9279678
vt 72.72617 -0.9279678
vt 55.61413 -0.9279678
vt 0.0004996061 0.9995005
vt 0.9995003 0.0004995465
vt 0.9995003 0.9995005
vt 0.0004996061 0.0004995465
vt 0.0004996061 0.9995005
vt 0.9995005 0.0004995465
vt 0.9995005 0.9995005
vt 0.0004996061 0.0004995465
vt 0.0004995763 0.9995005
vt 0.9995004 0.0004995465
vt 0.9995004 0.9995005
vt 0.0004995763 0.0004995465
vt 0.0004995763 0.9995005
vt 0.0004997551 0.0004996061
vt 0.9995004 0.5000002
vt 38.50209 1
vt 55.61413 -0.9279678
vt 55.61413 1
vt 38.50209 -0.9279678
vt 21.39005 1
vt 21.39005 -0.9279678
vt 4.278011 1
vt 4.278011 -0.9279678
vt 89.8382 -0.9279678
vt 72.72617 -0.9279678
vt 55.61413 -0.9279678
vt 0.0004996061 0.9995005
vt 0.9995003 0.0004995465
vt 0.9995003 0.9995005
vt 0.0004996061 0.0004995465
vt 0.0004996061 0.9995005
vt 0.9995005 0.0004995465
vt 0.9995005 0.9995005
vt 0.0004996061 0.0004995465
vt 0.0004995763 0.9995005
vt 0.9995004 0.0004995465
vt 0.9995004 0.9995005
vt 0.0004995763 0.0004995465
vt 0.0004995763 0.9995005
vt 0.0004997551 0.0004996061
vt 0.9995004 0.5000002
vt 38.50209 1
vt 55.61413 -0.9279678
vt 55.61413 1
vt 38.50209 -0.9279678
vt 21.39005 1
vt 21.39005 -0.9279678
vt 4.278011 1
vt 4.278011 -0.9279678
vt 89.8382 -0.9279678
vt 72.72617 -0.9279678
vt 55.61413 -0.9279678

g Slices002.obj
usemtl Slices002
usemap Slices002
f 1/1/1 3/3/3 2/2/2
f 1/1/1 2/2/2 4/4/4
f 5/5/5 1/1/1 4/4/4
f 5/5/5 4/4/4 6/6/6
f 7/7/7 5/5/5 6/6/6
f 7/7/7 6/6/6 8/8/8
f 9/9/9 11/11/11 10/10/10
f 12/12/12 14/14/14 13/13/13
f 12/12/12 13/13/13 15/15/15
f 16/16/16 18/18/18 17/17/17
f 16/16/16 17/17/17 19/19/19
f 20/20/20 22/22/22 21/21/21
f 20/20/20 21/21/21 23/23/23
f 24/24/24 26/26/26 25/25/25
f 27/27/27 29/29/29 28/28/28
f 27/27/27 28/28/28 30/30/30
f 31/31/31 27/27/27 30/30/30
f 31/31/31 30/30/30 32/32/32
f 33/33/33 31/31/31 32/32/32
f 33/33/33 32/32/32 34/34/34
f 35/35/35 37/37/37 36/36/36
f 38/38/38 40/40/40 39/39/39
f 38/38/38 39/39/39 41/41/41
f 42/42/42 44/44/44 43/43/43
f 42/42/42 43/43/43 45/45/45
f 46/46/46 48/48/48 47/47/47
f 46/46/46 47/47/47 49/49/49
f 50/50/50 52/52/52 51/51/51
f 53/53/53 55/55/55 54/54/54
f 53/53/53 54/54/54 56/56/56
f 57/57/57 53/53/53 56/56/56
f 57/57/57 56/56/56 58/58/58
f 59/59/59 57/57/57 58/58/58
f 59/59/59 58/58/58 60/60/60
f 61/61/61 63/63/63 62/62/62
f 64/64/64 66/66/66 65/65/65
f 64/64/64 65/65/65 67/67/67
f 68/68/68 70/70/70 69/69/69
f 68/68/68 69/69/69 71/71/71
f 72/72/72 74/74/74 73/73/73
f 72/72/72 73/73/73 75/75/75
f 76/76/76 78/78/78 77/77/77
f 79/79/79 81/81/81 80/80/80
f 79/79/79 80/80/80 82/82/82
f 83/83/83 79/79/79 82/82/82
f 83/83/83 82/82/82 84/84/84
f 85/85/85 83/83/83 84/84/84
f 85/85/85 84/84/84 86/86/86
f 87/87/87 89/89/89 88/88/88
f 90/90/90 92/92/92 91/91/91
f 90/90/90 91/91/91 93/93/93
f 94/94/94 96/96/96 95/95/95
f 94/94/94 95/95/95 97/97/97
f 98/98/98 100/100/100 99/99/99
f 98/98/98 99/99/99 101/101/101
f 102/102/102 104/104/104 103/103/103
f 105/105/105 107/107/107 106/106/106
f 105/105/105 106/106/106 108/108/108
f 109/109/109 105/105/105 108/108/108
f 109/109/109 108/108/108 110/110/110
f 111/111/111 109/109/109 110/110/110
f 111/111/111 110/110/110 112/112/112
f 113/113/113 115/115/115 114/114/114
f 116/116/116 118/118/118 117/117/117
f 116/116/116 117/117/117 119/119/119
f 120/120/120 122/122/122 121/121/121
f 120/120/120 121/121/121 123/123/123
f 124/124/124 126/126/126 125/125/125
f 124/124/124 125/125/125 127/127/127
f 128/128/128 130/130/130 129/129/129
f 131/131/131 133/133/133 132/132/132
f 131/131/131 132/132/132 134/134/134
f 135/135/135 131/131/131 134/134/134
f 135/135/135 134/134/134 136/136/136
f 137/137/137 135/135/135 136/136/136
f 137/137/137 136/136/136 138/138/138
f 139/139/139 141/141/141 140/140/140
