#Spoiled Pizza Crust.obj

v -2.445393 -5.310225 0
v -1.241807 -2.950875 0
v -2.970554 -3.186135 0
v -0.7166456 -4.918125 0
v -1.47484 -0.9836252 0
v -3.203587 -1.062045 0
v -1.47484 0.9836247 0
v -3.203587 1.062045 0
v -1.241807 2.950875 0
v -2.970554 3.186135 0
v -0.6687521 4.918125 0
v -2.397499 5.310224 0
v -2.445393 -5.310225 1.224576
v -1.241807 -2.950875 1.224576
v -0.7166456 -4.918126 1.224576
v -2.970554 -3.186135 1.224576
v -1.47484 -0.9836252 1.224576
v -2.970554 -3.186135 1.224576
v -3.203587 -1.062045 1.224576
v -1.47484 0.9836247 1.224576
v -3.203587 -1.062045 1.224576
v -3.203587 1.062045 1.224576
v -1.241807 2.950875 1.224576
v -3.203587 1.062045 1.224576
v -2.970554 3.186135 1.224576
v -0.6687521 4.918125 1.224576
v -2.397499 5.310224 1.224576
v -2.445393 -5.310225 0
v -0.7166456 -4.918125 0.7084329
v -0.7166456 -4.918125 0
v -2.445393 -5.310225 0.7084329
v -0.6687521 4.918125 0
v -2.397499 5.310224 0.7084329
v -2.397499 5.310224 0
v -0.6687521 4.918125 0.7084329
v -0.6687521 4.918125 0.7084329
v -2.397499 5.310224 1.224576
v -2.397499 5.310224 0
v -2.970554 3.186135 0.7084329
v -2.970554 3.186135 0
v -2.397499 5.310224 0.7084329
v -3.203587 1.062045 0.7084329
v -3.203587 1.062045 0
v -3.203587 -1.062045 0.7084329
v -3.203587 -1.062045 0
v -2.970554 -3.186135 0.7084329
v -2.970554 -3.186135 0
v -2.445393 -5.310225 0.7084329
v -2.445393 -5.310225 0
v -2.970554 3.186135 1.224576
v -2.970554 3.186135 0.7084329
v -2.445393 -5.310225 0.7084329
v -0.7166456 -4.918126 1.224576
v -0.7166456 -4.918125 0.7084329
v -2.445393 -5.310225 1.224576
v -0.7166456 -4.918125 0.7084329
v -1.241807 -2.950875 1.224576
v -1.241807 -2.950875 0.7084329
v -0.7166456 -4.918126 1.224576
v -1.241807 -2.950875 0.7084329
v -1.47484 -0.9836252 1.224576
v -1.47484 -0.9836252 0.7084329
v -1.241807 -2.950875 1.224576
v -1.47484 -0.9836252 0.7084329
v -1.47484 0.9836247 1.224576
v -1.47484 0.9836247 0.7084329
v -1.47484 -0.9836252 1.224576
v -1.47484 0.9836247 0.7084329
v -1.241807 2.950875 1.224576
v -1.241807 2.950875 0.7084329
v -1.47484 0.9836247 1.224576
v -1.241807 2.950875 0.7084329
v -0.6687521 4.918125 1.224576
v -0.6687521 4.918125 0.7084329
v -1.241807 2.950875 1.224576
v -0.6687521 4.918125 0.7084329
v -0.6687521 4.918125 1.224576
v -2.397499 5.310224 1.224576
v -2.397499 5.310224 0.7084329
v -2.397499 5.310224 1.224576
v -2.970554 3.186135 1.224576
v -2.970554 3.186135 0.7084329
v -3.203587 1.062045 1.224576
v -3.203587 1.062045 0.7084329
v -2.970554 3.186135 0.7084329
v -2.970554 3.186135 1.224576
v -3.203587 1.062045 1.224576
v -3.203587 1.062045 0.7084329
v -3.203587 -1.062045 1.224576
v -3.203587 -1.062045 0.7084329
v -3.203587 1.062045 0.7084329
v -3.203587 1.062045 1.224576
v -3.203587 -1.062045 1.224576
v -3.203587 -1.062045 0.7084329
v -2.970554 -3.186135 1.224576
v -2.970554 -3.186135 0.7084329
v -3.203587 -1.062045 0.7084329
v -3.203587 -1.062045 1.224576
v -2.970554 -3.186135 1.224576
v -2.970554 -3.186135 0.7084329
v -2.445393 -5.310225 1.224576
v -2.445393 -5.310225 0.7084329
v -2.970554 -3.186135 0.7084329
v -2.970554 -3.186135 1.224576
v -2.445393 -5.310225 1.224576
v 0.4869397 -2.57168 0
v 1.012101 -4.286133 0
v 2.593121 -2.025973 0
v 4.846012 -3.376622 0
v 0.2539074 -0.8572267 0
v 1.537647 -0.6753244 0
v 0.2539074 0.8572263 0
v 2.593121 0.6753241 0
v 0.4869397 2.57168 0
v 3.166 2.025973 0
v 1.059995 4.286133 0
v 2.788742 3.376622 0
v -0.7166456 -4.918125 0.7084329
v 0.4869397 -2.57168 0.7084329
v 1.012101 -4.286133 0.7084329
v -1.241807 -2.950875 0.7084329
v 2.593121 -2.025973 0.7084329
v 4.846012 -3.376622 0.7084329
v 0.2539074 -0.8572267 0.7084329
v -1.47484 -0.9836252 0.7084329
v 1.537647 -0.6753244 0.7084329
v 0.2539074 0.8572263 0.7084329
v -1.47484 0.9836247 0.7084329
v 2.593121 0.6753241 0.7084329
v 0.4869397 2.57168 0.7084329
v -1.241807 2.950875 0.7084329
v 3.166 2.025973 0.7084329
v 1.059995 4.286133 0.7084329
v -0.6687521 4.918125 0.7084329
v 2.788742 3.376622 0.7084329
v 1.012101 -4.286133 0.7084329
v 1.012101 -4.286133 0
v 4.846012 -3.376622 0.7084329
v 4.846012 -3.376622 0
v 4.846012 -3.376622 0
v 2.593121 -2.025973 0.7084329
v 2.593121 -2.025973 0
v 4.846012 -3.376622 0.7084329
v 1.537647 -0.6753244 0.7084329
v 1.537647 -0.6753244 0
v 2.593121 0.6753241 0.7084329
v 2.593121 0.6753241 0
v 3.166 2.025973 0.7084329
v 3.166 2.025973 0
v 2.788742 3.376622 0.7084329
v 2.788742 3.376622 0
v 2.788742 3.376622 0
v 1.059995 4.286133 0.7084329
v 1.059995 4.286133 0
v 2.788742 3.376622 0.7084329
v 1.968229 3.029434 0.760839
v 2.324247 2.430162 0.760839
v 1.968229 1.83089 0.760839
v 1.168264 3.177443 0.760839
v 1.168264 1.682882 0.760839
v 0.526741 2.762733 0.760839
v 0.526741 2.097591 0.760839
v 1.912423 -2.287022 0.760839
v 2.172363 -2.724568 0.760839
v 1.912423 -3.162115 0.760839
v 1.328344 -2.178957 0.760839
v 1.328344 -3.27018 0.760839
v 0.8599492 -2.481748 0.760839
v 0.8599492 -2.967389 0.760839
v 0.01416302 -1.387342 0.760839
v 0.2015724 -1.702802 0.760839
v 0.0141629 -2.018262 0.760839
v -0.4069426 -1.30943 0.760839
v -0.4069426 -2.096173 0.760839
v -0.744643 -1.527735 0.760839
v -0.744643 -1.877869 0.760839
v 0.706168 0.4821153 0.760839
v 1.031341 -0.06523561 0.760839
v 0.7061679 -0.6125867 0.760839
v -0.02448845 0.6172999 0.760839
v -0.02448857 -0.7477713 0.760839
v -0.6104294 0.2385211 0.760839
v -0.6104294 -0.3689926 0.760839

vn 0 0 -1
vn 0 0 -1
vn 0 0 -1
vn 0 0 -1
vn 0 0 -1
vn 0 0 -1
vn 0 0 -1
vn 0 0 -1
vn 0 0 -1
vn 0 0 -1
vn 0 0 -1
vn 0 0 -1
vn 0 0 1
vn 0 0 1
vn 0 0 1
vn 0 0 1
vn 0 0 1
vn 0 0 1
vn 0 0 1
vn 0 0 1
vn 0 0 1
vn 0 0 1
vn 0 0 1
vn 0 0 1
vn 0 0 1
vn 0 0 1
vn 0 0 1
vn 0.2211932 -0.97523 0
vn 0.2828473 -0.9591649 0
vn 0.2828473 -0.9591649 0
vn 0.2211932 -0.97523 0
vn 0.2828473 0.9591649 0
vn 0.2211932 0.97523 0
vn 0.2211932 0.97523 0
vn 0.2828473 0.9591649 0
vn 0.2211932 0.97523 0
vn 0.2211932 0.97523 0
vn -0.9654804 0.2604757 0
vn -0.982679 0.1853161 0
vn -0.982679 0.1853161 0
vn -0.9654804 0.2604757 0
vn -0.9985078 0.05460892 0
vn -0.9985078 0.05460892 0
vn -0.9985078 -0.05460892 0
vn -0.9985078 -0.05460892 0
vn -0.9845823 -0.1749216 0
vn -0.9845823 -0.1749216 0
vn -0.9707695 -0.2400139 0
vn -0.9707695 -0.2400139 0
vn -0.9654804 0.2604757 0
vn -0.9654804 0.2604757 0
vn 0.221193 -0.97523 0
vn 0.2211931 -0.97523 0
vn 0.2211931 -0.97523 0
vn 0.221193 -0.97523 0
vn 0.9661663 0.2579202 0
vn 0.9661663 0.2579202 0
vn 0.9661663 0.2579202 0
vn 0.9661663 0.2579202 0
vn 0.9930571 0.1176335 0
vn 0.9930571 0.1176335 0
vn 0.9930571 0.1176335 0
vn 0.9930571 0.1176335 0
vn 1 0 0
vn 1 0 0
vn 1 0 0
vn 1 0 0
vn 0.9930571 -0.1176335 0
vn 0.9930571 -0.1176335 0
vn 0.9930571 -0.1176335 0
vn 0.9930571 -0.1176335 0
vn 0.9600952 -0.2796734 0
vn 0.9600952 -0.2796734 0
vn 0.9600952 -0.2796734 0
vn 0.9600952 -0.2796734 0
vn 0.2211932 0.97523 0
vn 0.2211932 0.97523 0
vn 0.2211932 0.97523 0
vn -0.9654804 0.2604757 0
vn -0.9654804 0.2604757 0
vn -0.9654804 0.2604757 0
vn -0.9940357 0.1090549 0
vn -0.9940357 0.1090549 0
vn -0.9940357 0.1090549 0
vn -0.9940357 0.1090549 0
vn -0.9940357 0.1090549 0
vn -0.9940357 0.1090549 0
vn -1 0 0
vn -1 0 0
vn -1 0 0
vn -1 0 0
vn -1 0 0
vn -1 0 0
vn -0.9940357 -0.1090549 0
vn -0.9940357 -0.1090549 0
vn -0.9940357 -0.1090549 0
vn -0.9940357 -0.1090549 0
vn -0.9940357 -0.1090549 0
vn -0.9940357 -0.1090549 0
vn -0.9707695 -0.2400139 0
vn -0.9707695 -0.2400139 0
vn -0.9707695 -0.2400139 0
vn -0.9707695 -0.2400139 0
vn -0.9707695 -0.2400139 0
vn -0.9707695 -0.2400139 0
vn 0 0 -1
vn 0 0 -1
vn 0 0 -1
vn 0 0 -1
vn 0 0 -1
vn 0 0 -1
vn 0 0 -1
vn 0 0 -1
vn 0 0 -1
vn 0 0 -1
vn 0 0 -1
vn 0 0 -1
vn 0 0 1
vn 0 0 1
vn 0 0 1
vn 0 0 1
vn 0 0 1
vn 0 0 1
vn 0 0 1
vn 0 0 1
vn 0 0 1
vn 0 0 1
vn 0 0 1
vn 0 0 1
vn 0 0 1
vn 0 0 1
vn 0 0 1
vn 0 0 1
vn 0 0 1
vn 0 0 1
vn 0.2875842 -0.9577554 0
vn 0.2875842 -0.9577554 0
vn 0.2308219 -0.972996 0
vn 0.2308219 -0.972996 0
vn 0.5141917 0.8576753 0
vn 0.6622106 0.7493178 0
vn 0.6622106 0.7493178 0
vn 0.5141917 0.8576753 0
vn 1 0 0
vn 1 0 0
vn 0.8616717 -0.5074661 0
vn 0.8616717 -0.5074661 0
vn 0.9979278 -0.06434412 0
vn 0.9979278 -0.06434412 0
vn 0.9631348 0.2690192 0
vn 0.9631348 0.2690192 0
vn 0.4656038 0.8849933 0
vn 0.4053858 0.9141457 0
vn 0.4053858 0.9141457 0
vn 0.4656038 0.8849933 0
vn 0 0 1
vn 0 0 1
vn 0 0 1
vn 0 0 1
vn 0 0 1
vn 0 0 1
vn 0 0 1
vn 0 0 1
vn 0 0 1
vn 0 0 1
vn 0 0 1
vn 0 0 1
vn 0 0 1
vn 0 0 1
vn 0 0 1
vn 0 0 1
vn 0 0 1
vn 0 0 1
vn 0 0 1
vn 0 0 1
vn 0 0 1
vn 0 0 1
vn 0 0 1
vn 0 0 1
vn 0 0 1
vn 0 0 1
vn 0 0 1
vn 0 0 1

vt 1 1
vt -0.728747 -1.12409
vt 1 -1.12409
vt -0.728747 1
vt -0.728747 -3.248179
vt 1 -3.248179
vt -0.728747 -5.372269
vt 1 -5.372269
vt -0.728747 -7.496359
vt 1 -7.496359
vt -0.728747 -9.620449
vt 1 -9.620449
vt 0 1
vt 1.728747 -1.12409
vt 1.728747 1
vt 0 -1.12409
vt 1.728747 -3.248179
vt 0 -1.12409
vt 0 -3.248179
vt 1.728747 -5.372269
vt 0 -3.248179
vt 0 -5.372269
vt 1.728747 -7.496359
vt 0 -5.372269
vt 0 -7.496359
vt 1.728747 -9.620449
vt 0 -9.620449
vt 0 1
vt 1.728747 0.2915671
vt 1.728747 1
vt 0 0.2915671
vt 3.457494 1
vt 5.186241 0.2915671
vt 5.186241 1
vt 3.457494 0.2915671
vt 3.457494 0.2915671
vt 0 -9.620449
vt 0 1
vt 2.12409 0.2915671
vt 2.12409 1
vt 0 0.2915671
vt 4.248179 0.2915671
vt 4.248179 1
vt 6.372269 0.2915671
vt 6.372269 1
vt 8.496359 0.2915671
vt 8.496359 1
vt 10.62045 0.2915671
vt 10.62045 1
vt 0 -7.496359
vt 2.12409 0.2915671
vt 0 0.2915671
vt 1.728747 1
vt 1.728747 0.2915671
vt 0 1
vt 1.728747 1
vt 1.728747 -1.12409
vt 1.728747 -1.12409
vt 1.728747 1
vt 1.728747 -1.12409
vt 1.728747 -3.248179
vt 1.728747 -3.248179
vt 1.728747 -1.12409
vt 1.728747 -3.248179
vt 1.728747 -5.372269
vt 1.728747 -5.372269
vt 1.728747 -3.248179
vt 1.728747 -5.372269
vt 1.728747 -7.496359
vt 1.728747 -7.496359
vt 1.728747 -5.372269
vt 1.728747 -7.496359
vt 1.728747 -9.620449
vt 1.728747 -9.620449
vt 1.728747 -7.496359
vt 3.457494 0.2915671
vt 1.728747 -9.620449
vt 0 -9.620449
vt 0 0.2915671
vt 0 -9.620449
vt 0 -7.496359
vt 2.12409 0.2915671
vt 0 -5.372269
vt 4.248179 0.2915671
vt 2.12409 0.2915671
vt 0 -7.496359
vt 0 -5.372269
vt 4.248179 0.2915671
vt 0 -3.248179
vt 6.372269 0.2915671
vt 4.248179 0.2915671
vt 0 -5.372269
vt 0 -3.248179
vt 6.372269 0.2915671
vt 0 -1.12409
vt 8.496359 0.2915671
vt 6.372269 0.2915671
vt 0 -3.248179
vt 0 -1.12409
vt 8.496359 0.2915671
vt 0 1
vt 10.62045 0.2915671
vt 8.496359 0.2915671
vt 0 -1.12409
vt 0 1
vt -2.457494 -1.12409
vt -2.457494 1
vt -4.186241 -1.12409
vt -4.186241 1
vt -2.457494 -3.248179
vt -4.186241 -3.248179
vt -2.457494 -5.372269
vt -4.186241 -5.372269
vt -2.457494 -7.496359
vt -4.186241 -7.496359
vt -2.457494 -9.620449
vt -4.186241 -9.620449
vt 1.728747 1
vt 3.457494 -1.12409
vt 3.457494 1
vt 1.728747 -1.12409
vt 5.186241 -1.12409
vt 5.186241 1
vt 3.457494 -3.248179
vt 1.728747 -3.248179
vt 5.186241 -3.248179
vt 3.457494 -5.372269
vt 1.728747 -5.372269
vt 5.186241 -5.372269
vt 3.457494 -7.496359
vt 1.728747 -7.496359
vt 5.186241 -7.496359
vt 3.457494 -9.620449
vt 1.728747 -9.620449
vt 5.186241 -9.620449
vt 3.457494 0.2915671
vt 3.457494 1
vt 5.186241 0.2915671
vt 5.186241 1
vt 0 1
vt 2.12409 0.2915671
vt 2.12409 1
vt 0 0.2915671
vt 4.248179 0.2915671
vt 4.248179 1
vt 6.372269 0.2915671
vt 6.372269 1
vt 8.496359 0.2915671
vt 8.496359 1
vt 10.62045 0.2915671
vt 10.62045 1
vt 0 1
vt 1.728747 0.2915671
vt 1.728747 1
vt 0 0.2915671
vt 3.87309 0.9475942
vt 7.591255 0.9475942
vt 6.97156 0.9475942
vt 4.492784 0.9475942
vt 6.351867 0.9475942
vt 5.112478 0.9475942
vt 5.732172 0.9475942
vt 3.87309 0.9475942
vt 7.591255 0.9475942
vt 6.97156 0.9475942
vt 4.492784 0.9475942
vt 6.351867 0.9475942
vt 5.112478 0.9475942
vt 5.732172 0.9475942
vt 3.87309 0.9475942
vt 7.591255 0.9475942
vt 6.97156 0.9475942
vt 4.492784 0.9475942
vt 6.351867 0.9475942
vt 5.112478 0.9475942
vt 5.732172 0.9475942
vt 3.87309 0.9475942
vt 7.591255 0.9475942
vt 6.97156 0.9475942
vt 4.492784 0.9475942
vt 6.351867 0.9475942
vt 5.112478 0.9475942
vt 5.732172 0.9475942

g Spoiled Pizza Crust.obj
usemtl Spoiled Pizza Crust
usemap Spoiled Pizza Crust
f 1/1/1 3/3/3 2/2/2
f 1/1/1 2/2/2 4/4/4
f 3/3/3 5/5/5 2/2/2
f 3/3/3 6/6/6 5/5/5
f 6/6/6 7/7/7 5/5/5
f 6/6/6 8/8/8 7/7/7
f 8/8/8 9/9/9 7/7/7
f 8/8/8 10/10/10 9/9/9
f 10/10/10 11/11/11 9/9/9
f 10/10/10 12/12/12 11/11/11
f 13/13/13 15/15/15 14/14/14
f 13/13/13 14/14/14 16/16/16
f 16/16/16 14/14/14 17/17/17
f 18/18/18 17/17/17 19/19/19
f 19/19/19 17/17/17 20/20/20
f 21/21/21 20/20/20 22/22/22
f 22/22/22 20/20/20 23/23/23
f 24/24/24 23/23/23 25/25/25
f 25/25/25 23/23/23 26/26/26
f 25/25/25 26/26/26 27/27/27
f 28/28/28 30/30/30 29/29/29
f 28/28/28 29/29/29 31/31/31
f 32/32/32 34/34/34 33/33/33
f 32/32/32 33/33/33 35/35/35
f 36/36/36 33/33/33 37/37/37
f 38/38/38 40/40/40 39/39/39
f 38/38/38 39/39/39 41/41/41
f 40/40/40 42/42/42 39/39/39
f 40/40/40 43/43/43 42/42/42
f 43/43/43 44/44/44 42/42/42
f 43/43/43 45/45/45 44/44/44
f 45/45/45 46/46/46 44/44/44
f 45/45/45 47/47/47 46/46/46
f 47/47/47 48/48/48 46/46/46
f 47/47/47 49/49/49 48/48/48
f 41/41/41 51/51/51 50/50/50
f 52/52/52 54/54/54 53/53/53
f 52/52/52 53/53/53 55/55/55
f 56/56/56 58/58/58 57/57/57
f 56/56/56 57/57/57 59/59/59
f 60/60/60 62/62/62 61/61/61
f 60/60/60 61/61/61 63/63/63
f 64/64/64 66/66/66 65/65/65
f 64/64/64 65/65/65 67/67/67
f 68/68/68 70/70/70 69/69/69
f 68/68/68 69/69/69 71/71/71
f 72/72/72 74/74/74 73/73/73
f 72/72/72 73/73/73 75/75/75
f 76/76/76 78/78/78 77/77/77
f 79/79/79 81/81/81 80/80/80
f 82/82/82 84/84/84 83/83/83
f 85/85/85 87/87/87 86/86/86
f 88/88/88 90/90/90 89/89/89
f 91/91/91 93/93/93 92/92/92
f 94/94/94 96/96/96 95/95/95
f 97/97/97 99/99/99 98/98/98
f 100/100/100 102/102/102 101/101/101
f 103/103/103 105/105/105 104/104/104
f 4/4/4 2/2/2 106/106/106
f 4/4/4 106/106/106 107/107/107
f 107/107/107 106/106/106 108/108/108
f 107/107/107 108/108/108 109/109/109
f 2/2/2 110/110/110 106/106/106
f 2/2/2 5/5/5 110/110/110
f 106/106/106 110/110/110 111/111/111
f 106/106/106 111/111/111 108/108/108
f 5/5/5 112/112/112 110/110/110
f 5/5/5 7/7/7 112/112/112
f 110/110/110 112/112/112 113/113/113
f 110/110/110 113/113/113 111/111/111
f 7/7/7 114/114/114 112/112/112
f 7/7/7 9/9/9 114/114/114
f 112/112/112 114/114/114 115/115/115
f 112/112/112 115/115/115 113/113/113
f 9/9/9 116/116/116 114/114/114
f 9/9/9 11/11/11 116/116/116
f 114/114/114 116/116/116 117/117/117
f 114/114/114 117/117/117 115/115/115
f 118/118/118 120/120/120 119/119/119
f 118/118/118 119/119/119 121/121/121
f 120/120/120 122/122/122 119/119/119
f 120/120/120 123/123/123 122/122/122
f 121/121/121 119/119/119 124/124/124
f 121/121/121 124/124/124 125/125/125
f 119/119/119 122/122/122 126/126/126
f 119/119/119 126/126/126 124/124/124
f 125/125/125 124/124/124 127/127/127
f 125/125/125 127/127/127 128/128/128
f 124/124/124 126/126/126 129/129/129
f 124/124/124 129/129/129 127/127/127
f 128/128/128 127/127/127 130/130/130
f 128/128/128 130/130/130 131/131/131
f 127/127/127 129/129/129 132/132/132
f 127/127/127 132/132/132 130/130/130
f 131/131/131 130/130/130 133/133/133
f 131/131/131 133/133/133 134/134/134
f 130/130/130 132/132/132 135/135/135
f 130/130/130 135/135/135 133/133/133
f 30/30/30 137/137/137 136/136/136
f 30/30/30 136/136/136 29/29/29
f 137/137/137 138/138/138 136/136/136
f 137/137/137 139/139/139 138/138/138
f 140/140/140 142/142/142 141/141/141
f 140/140/140 141/141/141 143/143/143
f 142/142/142 144/144/144 141/141/141
f 142/142/142 145/145/145 144/144/144
f 145/145/145 146/146/146 144/144/144
f 145/145/145 147/147/147 146/146/146
f 147/147/147 148/148/148 146/146/146
f 147/147/147 149/149/149 148/148/148
f 149/149/149 150/150/150 148/148/148
f 149/149/149 151/151/151 150/150/150
f 152/152/152 154/154/154 153/153/153
f 152/152/152 153/153/153 155/155/155
f 154/154/154 35/35/35 153/153/153
f 154/154/154 32/32/32 35/35/35
f 156/156/156 158/158/158 157/157/157
f 158/158/158 156/156/156 159/159/159
f 158/158/158 159/159/159 160/160/160
f 160/160/160 159/159/159 161/161/161
f 160/160/160 161/161/161 162/162/162
f 163/163/163 165/165/165 164/164/164
f 165/165/165 163/163/163 166/166/166
f 165/165/165 166/166/166 167/167/167
f 167/167/167 166/166/166 168/168/168
f 167/167/167 168/168/168 169/169/169
f 170/170/170 172/172/172 171/171/171
f 172/172/172 170/170/170 173/173/173
f 172/172/172 173/173/173 174/174/174
f 174/174/174 173/173/173 175/175/175
f 174/174/174 175/175/175 176/176/176
f 177/177/177 179/179/179 178/178/178
f 179/179/179 177/177/177 180/180/180
f 179/179/179 180/180/180 181/181/181
f 181/181/181 180/180/180 182/182/182
f 181/181/181 182/182/182 183/183/183
