#Standing thingie.obj

v -931.8523 -546.3281 -27.8382
v -6.103516E-05 -546.3276 27.83813
v -6.103516E-05 -546.3276 -27.8382
v -931.8523 -546.3281 27.83813
v 931.8525 -546.3271 27.83813
v 931.8525 -546.3271 -27.8382
v 931.8525 -546.3271 -27.8382
v 1056.471 -421.7086 27.83813
v 1056.471 -421.7086 -27.8382
v 931.8525 -546.3271 27.83813
v 1056.471 -421.7086 -27.8382
v 1056.471 465.9337 27.83813
v 1056.471 465.9337 -27.8382
v 1056.471 -421.7086 27.83813
v 1056.471 465.9337 -27.8382
v 931.8524 590.5521 27.83813
v 931.8524 590.5521 -27.8382
v 1056.471 465.9337 27.83813
v 931.8524 590.5521 -27.8382
v 0 590.5516 27.83813
v 0 590.5516 -27.8382
v 931.8524 590.5521 27.83813
v -931.8524 590.5511 27.83813
v -931.8524 590.5511 -27.8382
v -931.8524 590.5511 -27.8382
v -1056.471 465.9327 27.83813
v -1056.471 465.9327 -27.8382
v -931.8524 590.5511 27.83813
v -1056.471 465.9327 -27.8382
v -1056.471 -421.7097 27.83813
v -1056.471 -421.7097 -27.8382
v -1056.471 465.9327 27.83813
v -1056.471 -421.7097 -27.8382
v -931.8523 -546.3281 27.83813
v -931.8523 -546.3281 -27.8382
v -1056.471 -421.7097 27.83813
v -931.8523 -546.3281 27.83813
v -9.155273E-05 -496.6772 27.83813
v -6.103516E-05 -546.3276 27.83813
v -911.2864 -496.6776 27.83813
v 923.4719 -511.5254 27.83813
v 931.8525 -546.3271 27.83813
v 1025.909 -415.9915 27.83813
v 1056.471 -421.7086 27.83813
v 1013.723 445.3679 27.83813
v 1056.471 465.9337 27.83813
v 911.2864 540.9016 27.83813
v 931.8524 590.5521 27.83813
v 3.051758E-05 540.9012 27.83813
v 0 590.5516 27.83813
v -911.2865 540.9007 27.83813
v -931.8524 590.5511 27.83813
v -1006.82 445.3669 27.83813
v -1056.471 465.9327 27.83813
v -1006.82 -401.1438 27.83813
v -1056.471 -421.7097 27.83813

vn 0 -1 0
vn 0 -1 0
vn 0 -1 0
vn 0 -1 0
vn 0 -1 0
vn 0 -1 0
vn 0.7071075 -0.7071059 0
vn 0.7071075 -0.7071059 0
vn 0.7071075 -0.7071059 0
vn 0.7071075 -0.7071059 0
vn 1 0 0
vn 1 0 0
vn 1 0 0
vn 1 0 0
vn 0.707107 0.7071065 0
vn 0.707107 0.7071065 0
vn 0.707107 0.7071065 0
vn 0.707107 0.7071065 0
vn 0 1 0
vn 0 1 0
vn 0 1 0
vn 0 1 0
vn 0 1 0
vn 0 1 0
vn -0.7071067 0.7071068 0
vn -0.7071067 0.7071068 0
vn -0.7071067 0.7071068 0
vn -0.7071067 0.7071068 0
vn -1 0 0
vn -1 0 0
vn -1 0 0
vn -1 0 0
vn -0.7071065 -0.7071069 0
vn -0.7071065 -0.7071069 0
vn -0.7071065 -0.7071069 0
vn -0.7071065 -0.7071069 0
vn 0 0 1
vn 0 0 1
vn 0 0 1
vn 0 0 1
vn 0 0 1
vn 0 0 1
vn 0 0 1
vn 0 0 1
vn 0 0 1
vn 0 0 1
vn 0 0 1
vn 0 0 1
vn 0 0 1
vn 0 0 1
vn 0 0 1
vn 0 0 1
vn 0 0 1
vn 0 0 1
vn 0 0 1
vn 0 0 1

vt 0.05941921 0.9995005
vt 0.4999999 0.9995003
vt 0.4999999 0.9995003
vt 0.05941921 0.9995005
vt 0.9405807 0.9995
vt 0.9405807 0.9995
vt 0.9405807 0.9995
vt 0.9995003 0.8940953
vt 0.9995003 0.8940953
vt 0.9405807 0.9995
vt 0.9995003 0.8940953
vt 0.9995005 0.1059043
vt 0.9995005 0.1059043
vt 0.9995003 0.8940953
vt 0.9995005 0.1059043
vt 0.9405808 0.0004995465
vt 0.9405808 0.0004995465
vt 0.9995005 0.1059043
vt 0.9405808 0.0004995465
vt 0.5000001 0.0004997849
vt 0.5000001 0.0004997849
vt 0.9405808 0.0004995465
vt 0.05941933 0.0004999638
vt 0.05941933 0.0004999638
vt 0.05941933 0.0004999638
vt 0.0004996657 0.1059047
vt 0.0004996657 0.1059047
vt 0.05941933 0.0004999638
vt 0.0004996657 0.1059047
vt 0.0004995465 0.8940957
vt 0.0004995465 0.8940957
vt 0.0004996657 0.1059047
vt 0.0004995465 0.8940957
vt 0.05941921 0.9995005
vt 0.05941921 0.9995005
vt 0.0004995465 0.8940957
vt 0.05941921 0.9995005
vt 0.4999999 0.9995003
vt 0.4999999 0.9995003
vt 0.05941921 0.9995005
vt 0.9405807 0.9995
vt 0.9405807 0.9995
vt 0.9995003 0.8940953
vt 0.9995003 0.8940953
vt 0.9995005 0.1059043
vt 0.9995005 0.1059043
vt 0.9405808 0.0004995465
vt 0.9405808 0.0004995465
vt 0.5000001 0.0004997849
vt 0.5000001 0.0004997849
vt 0.05941933 0.0004999638
vt 0.05941933 0.0004999638
vt 0.0004996657 0.1059047
vt 0.0004996657 0.1059047
vt 0.0004995465 0.8940957
vt 0.0004995465 0.8940957

g Standing thingie.obj
usemtl Standing thingie
usemap Standing thingie
f 1/1/1 3/3/3 2/2/2
f 1/1/1 2/2/2 4/4/4
f 3/3/3 5/5/5 2/2/2
f 3/3/3 6/6/6 5/5/5
f 7/7/7 9/9/9 8/8/8
f 7/7/7 8/8/8 10/10/10
f 11/11/11 13/13/13 12/12/12
f 11/11/11 12/12/12 14/14/14
f 15/15/15 17/17/17 16/16/16
f 15/15/15 16/16/16 18/18/18
f 19/19/19 21/21/21 20/20/20
f 19/19/19 20/20/20 22/22/22
f 21/21/21 23/23/23 20/20/20
f 21/21/21 24/24/24 23/23/23
f 25/25/25 27/27/27 26/26/26
f 25/25/25 26/26/26 28/28/28
f 29/29/29 31/31/31 30/30/30
f 29/29/29 30/30/30 32/32/32
f 33/33/33 35/35/35 34/34/34
f 33/33/33 34/34/34 36/36/36
f 37/37/37 39/39/39 38/38/38
f 37/37/37 38/38/38 40/40/40
f 39/39/39 41/41/41 38/38/38
f 39/39/39 42/42/42 41/41/41
f 42/42/42 43/43/43 41/41/41
f 42/42/42 44/44/44 43/43/43
f 44/44/44 45/45/45 43/43/43
f 44/44/44 46/46/46 45/45/45
f 46/46/46 47/47/47 45/45/45
f 46/46/46 48/48/48 47/47/47
f 48/48/48 49/49/49 47/47/47
f 48/48/48 50/50/50 49/49/49
f 50/50/50 51/51/51 49/49/49
f 50/50/50 52/52/52 51/51/51
f 52/52/52 53/53/53 51/51/51
f 52/52/52 54/54/54 53/53/53
f 54/54/54 55/55/55 53/53/53
f 54/54/54 56/56/56 55/55/55
f 56/56/56 40/40/40 55/55/55
f 56/56/56 37/37/37 40/40/40
