#Station Wall.obj

v 8.791152 64.94247 0
v -8.791152 -64.94247 0
v 8.791152 -64.94247 0
v -8.791152 64.94247 0
v -8.791152 64.94247 795.2756
v 8.791152 64.94247 795.2756
v -8.791152 -64.94247 795.2756
v 8.791152 -64.94247 795.2756
v -8.791152 -64.94247 795.2756
v 8.791152 -64.94247 795.2756
v -8.791152 -64.94247 0
v 8.791152 -64.94247 0
v 8.791152 -64.94247 795.2756
v 8.791152 64.94247 795.2756
v 8.791152 -64.94247 0
v 8.791152 64.94247 0
v 8.791152 64.94247 795.2756
v -8.791152 64.94247 795.2756
v 8.791152 64.94247 0
v -8.791152 64.94247 0
v -8.791152 64.94247 795.2756
v -8.791152 -64.94247 795.2756
v -8.791152 64.94247 0
v -8.791152 -64.94247 0
v 8.791273 64.94244 -2531.039
v -8.791029 -64.94249 -2531.039
v 8.791273 -64.94249 -2531.039
v -8.791029 64.94244 -2531.039
v -8.791029 64.94244 -562.5348
v 8.791273 64.94244 -562.5348
v -8.791029 -64.94249 -562.5348
v 8.791273 -64.94249 -562.5348
v -8.791029 -64.94249 -562.5348
v 8.791273 -64.94249 -562.5348
v -8.791029 -64.94249 -2531.039
v 8.791273 -64.94249 -2531.039
v 8.791273 -64.94249 -562.5348
v 8.791273 64.94244 -562.5348
v 8.791273 -64.94249 -2531.039
v 8.791273 64.94244 -2531.039
v 8.791273 64.94244 -562.5348
v -8.791029 64.94244 -562.5348
v 8.791273 64.94244 -2531.039
v -8.791029 64.94244 -2531.039
v -8.791029 64.94244 -562.5348
v -8.791029 -64.94249 -562.5348
v -8.791029 64.94244 -2531.039
v -8.791029 -64.94249 -2531.039
v 15.15728 123.7188 -2531.039
v -15.15703 60.04969 -2531.039
v 15.15728 60.04969 -2531.039
v -15.15703 123.7188 -2531.039
v -15.15703 123.7188 3296.525
v 15.15728 123.7188 3296.525
v -15.15703 60.04969 3296.525
v 15.15728 60.04969 3296.525
v -15.15703 60.04969 3296.525
v 15.15728 60.04969 3296.525
v -15.15703 60.04969 -2531.039
v 15.15728 60.04969 -2531.039
v 15.15728 60.04969 3296.525
v 15.15728 123.7188 3296.525
v 15.15728 60.04969 -2531.039
v 15.15728 123.7188 -2531.039
v 15.15728 123.7188 3296.525
v -15.15703 123.7188 3296.525
v 15.15728 123.7188 -2531.039
v -15.15703 123.7188 -2531.039
v -15.15703 123.7188 3296.525
v -15.15703 60.04969 3296.525
v -15.15703 123.7188 -2531.039
v -15.15703 60.04969 -2531.039
v 8.791151 64.94247 1337.532
v -8.791151 -64.94246 1337.532
v 8.791151 -64.94246 1337.532
v -8.791151 64.94247 1337.532
v -8.791151 64.94247 3306.036
v 8.791151 64.94247 3306.036
v -8.791151 -64.94246 3306.036
v 8.791151 -64.94246 3306.036
v -8.791151 -64.94246 3306.036
v 8.791151 -64.94246 3306.036
v -8.791151 -64.94246 1337.532
v 8.791151 -64.94246 1337.532
v 8.791151 -64.94246 3306.036
v 8.791151 64.94247 3306.036
v 8.791151 -64.94246 1337.532
v 8.791151 64.94247 1337.532
v 8.791151 64.94247 3306.036
v -8.791151 64.94247 3306.036
v 8.791151 64.94247 1337.532
v -8.791151 64.94247 1337.532
v -8.791151 64.94247 3306.036
v -8.791151 -64.94246 3306.036
v -8.791151 64.94247 1337.532
v -8.791151 -64.94246 1337.532

vn 0 0 -1
vn 0 0 -1
vn 0 0 -1
vn 0 0 -1
vn 0 0 1
vn 0 0 1
vn 0 0 1
vn 0 0 1
vn 0 -1 0
vn 0 -1 0
vn 0 -1 0
vn 0 -1 0
vn 1 0 0
vn 1 0 0
vn 1 0 0
vn 1 0 0
vn 0 1 0
vn 0 1 0
vn 0 1 0
vn 0 1 0
vn -1 0 0
vn -1 0 0
vn -1 0 0
vn -1 0 0
vn 0 0 -1
vn 0 0 -1
vn 0 0 -1
vn 0 0 -1
vn 0 0 1
vn 0 0 1
vn 0 0 1
vn 0 0 1
vn 0 -1 0
vn 0 -1 0
vn 0 -1 0
vn 0 -1 0
vn 1 0 0
vn 1 0 0
vn 1 0 0
vn 1 0 0
vn 0 1 0
vn 0 1 0
vn 0 1 0
vn 0 1 0
vn -1 0 0
vn -1 0 0
vn -1 0 0
vn -1 0 0
vn 0 0 -1
vn 0 0 -1
vn 0 0 -1
vn 0 0 -1
vn 0 0 1
vn 0 0 1
vn 0 0 1
vn 0 0 1
vn 0 -1 0
vn 0 -1 0
vn 0 -1 0
vn 0 -1 0
vn 1 0 0
vn 1 0 0
vn 1 0 0
vn 1 0 0
vn 0 1 0
vn 0 1 0
vn 0 1 0
vn 0 1 0
vn -1 0 0
vn -1 0 0
vn -1 0 0
vn -1 0 0
vn 0 0 -1
vn 0 0 -1
vn 0 0 -1
vn 0 0 -1
vn 0 0 1
vn 0 0 1
vn 0 0 1
vn 0 0 1
vn 0 -1 0
vn 0 -1 0
vn 0 -1 0
vn 0 -1 0
vn 1 0 0
vn 1 0 0
vn 1 0 0
vn 1 0 0
vn 0 1 0
vn 0 1 0
vn 0 1 0
vn 0 1 0
vn -1 0 0
vn -1 0 0
vn -1 0 0
vn -1 0 0

vt -16.5823 -128.8849
vt 1 1
vt -16.5823 1
vt 1 -128.8849
vt 0 -128.8849
vt 17.5823 -128.8849
vt 0 1
vt 17.5823 1
vt 0 -794.2756
vt 17.5823 -794.2756
vt 0 1
vt 17.5823 1
vt 0 -794.2756
vt 129.8849 -794.2756
vt 0 1
vt 129.8849 1
vt 0 -794.2756
vt 17.5823 -794.2756
vt 0 1
vt 17.5823 1
vt 0 -794.2756
vt 129.8849 -794.2756
vt 0 1
vt 129.8849 1
vt -16.5823 -128.8849
vt 1 1
vt -16.5823 1
vt 1 -128.8849
vt 0 -128.8849
vt 17.5823 -128.8849
vt 0 1
vt 17.5823 1
vt 0 -1967.504
vt 17.5823 -1967.504
vt 0 1
vt 17.5823 1
vt 0 -1967.504
vt 129.8849 -1967.504
vt 0 1
vt 129.8849 1
vt 0 -1967.504
vt 17.5823 -1967.504
vt 0 1
vt 17.5823 1
vt 0 -1967.504
vt 129.8849 -1967.504
vt 0 1
vt 129.8849 1
vt -29.31432 -62.66909
vt 1 1
vt -29.31432 1
vt 1 -62.66909
vt 0 -62.66909
vt 30.31432 -62.66909
vt 0 1
vt 30.31432 1
vt 0 -5826.564
vt 30.31432 -5826.564
vt 0 1
vt 30.31432 1
vt 0 -5826.564
vt 63.66909 -5826.564
vt 0 1
vt 63.66909 1
vt 0 -5826.564
vt 30.31432 -5826.564
vt 0 1
vt 30.31432 1
vt 0 -5826.564
vt 63.66909 -5826.564
vt 0 1
vt 63.66909 1
vt -16.5823 -128.8849
vt 1 1
vt -16.5823 1
vt 1 -128.8849
vt 0 -128.8849
vt 17.5823 -128.8849
vt 0 1
vt 17.5823 1
vt 0 -1967.504
vt 17.5823 -1967.504
vt 0 1
vt 17.5823 1
vt 0 -1967.504
vt 129.8849 -1967.504
vt 0 1
vt 129.8849 1
vt 0 -1967.504
vt 17.5823 -1967.504
vt 0 1
vt 17.5823 1
vt 0 -1967.504
vt 129.8849 -1967.504
vt 0 1
vt 129.8849 1

g Station Wall.obj
usemtl Station Wall
usemap Station Wall
f 1/1/1 3/3/3 2/2/2
f 2/2/2 4/4/4 1/1/1
f 5/5/5 7/7/7 6/6/6
f 6/6/6 7/7/7 8/8/8
f 9/9/9 11/11/11 10/10/10
f 10/10/10 11/11/11 12/12/12
f 13/13/13 15/15/15 14/14/14
f 14/14/14 15/15/15 16/16/16
f 17/17/17 19/19/19 18/18/18
f 18/18/18 19/19/19 20/20/20
f 21/21/21 23/23/23 22/22/22
f 22/22/22 23/23/23 24/24/24
f 25/25/25 27/27/27 26/26/26
f 26/26/26 28/28/28 25/25/25
f 29/29/29 31/31/31 30/30/30
f 30/30/30 31/31/31 32/32/32
f 33/33/33 35/35/35 34/34/34
f 34/34/34 35/35/35 36/36/36
f 37/37/37 39/39/39 38/38/38
f 38/38/38 39/39/39 40/40/40
f 41/41/41 43/43/43 42/42/42
f 42/42/42 43/43/43 44/44/44
f 45/45/45 47/47/47 46/46/46
f 46/46/46 47/47/47 48/48/48
f 49/49/49 51/51/51 50/50/50
f 50/50/50 52/52/52 49/49/49
f 53/53/53 55/55/55 54/54/54
f 54/54/54 55/55/55 56/56/56
f 57/57/57 59/59/59 58/58/58
f 58/58/58 59/59/59 60/60/60
f 61/61/61 63/63/63 62/62/62
f 62/62/62 63/63/63 64/64/64
f 65/65/65 67/67/67 66/66/66
f 66/66/66 67/67/67 68/68/68
f 69/69/69 71/71/71 70/70/70
f 70/70/70 71/71/71 72/72/72
f 73/73/73 75/75/75 74/74/74
f 74/74/74 76/76/76 73/73/73
f 77/77/77 79/79/79 78/78/78
f 78/78/78 79/79/79 80/80/80
f 81/81/81 83/83/83 82/82/82
f 82/82/82 83/83/83 84/84/84
f 85/85/85 87/87/87 86/86/86
f 86/86/86 87/87/87 88/88/88
f 89/89/89 91/91/91 90/90/90
f 90/90/90 91/91/91 92/92/92
f 93/93/93 95/95/95 94/94/94
f 94/94/94 95/95/95 96/96/96
