#Station Bench Frame.obj

v 46.88454 -1.968504 -10.12097
v 46.88454 1.968504 -10.12097
v 42.94753 -1.968504 -10.12097
v 42.94753 1.968504 -10.12097
v 42.94753 -1.968504 9.564068
v 46.88454 -1.968504 9.564068
v 42.94753 -1.968504 -10.12097
v 46.88454 -1.968504 -10.12097
v 46.88454 -1.968504 9.564068
v 46.88454 1.968504 9.564068
v 46.88454 -1.968504 -10.12097
v 46.88454 1.968504 -10.12097
v 46.88454 1.968504 9.564068
v 42.94753 1.968504 9.564068
v 46.88454 1.968504 -10.12097
v 42.94753 1.968504 -10.12097
v 42.94753 1.968504 9.564068
v 42.94753 -1.968504 9.564068
v 42.94753 1.968504 -10.12097
v 42.94753 -1.968504 -10.12097
v -47.11087 -1.968504 9.564068
v -43.17386 -1.968504 9.564068
v -47.11087 -1.968504 -10.12097
v -43.17386 -1.968504 -10.12097
v -43.17386 -1.968504 9.564068
v -43.17386 1.968504 9.564068
v -43.17386 -1.968504 -10.12097
v -43.17386 1.968504 -10.12097
v -43.17386 1.968504 9.564068
v -47.11087 1.968504 9.564068
v -43.17386 1.968504 -10.12097
v -47.11087 1.968504 -10.12097
v -47.11087 1.968504 9.564068
v -47.11087 -1.968504 9.564068
v -47.11087 1.968504 -10.12097
v -47.11087 -1.968504 -10.12097
v -49.11024 0.8070866 8.506836
v -49.11024 -0.8070866 8.506836
v 49.11024 0.8070866 8.506836
v 49.11024 -0.8070866 8.506836
v 49.11024 0.8070866 10.12101
v -49.11024 -0.8070866 10.12101
v -49.11024 0.8070866 10.12101
v 49.11024 -0.8070866 10.12101
v 49.11024 -0.8070866 10.12101
v -49.11024 -0.8070866 8.506836
v -49.11024 -0.8070866 10.12101
v 49.11024 -0.8070866 8.506836
v -49.11024 0.8070866 10.12101
v 49.11024 0.8070866 8.506836
v 49.11024 0.8070866 10.12101
v -49.11024 0.8070866 8.506836

vn 0 0 -1
vn 0 0 -1
vn 0 0 -1
vn 0 0 -1
vn 0 -1 0
vn 0 -1 0
vn 0 -1 0
vn 0 -1 0
vn 1 0 0
vn 1 0 0
vn 1 0 0
vn 1 0 0
vn 0 1 0
vn 0 1 0
vn 0 1 0
vn 0 1 0
vn -1 0 0
vn -1 0 0
vn -1 0 0
vn -1 0 0
vn 0 -1 0
vn 0 -1 0
vn 0 -1 0
vn 0 -1 0
vn 1 0 0
vn 1 0 0
vn 1 0 0
vn 1 0 0
vn 0 1 0
vn 0 1 0
vn 0 1 0
vn 0 1 0
vn -1 0 0
vn -1 0 0
vn -1 0 0
vn -1 0 0
vn 0 0 -1
vn 0 0 -1
vn 0 0 -1
vn 0 0 -1
vn 0 0 1
vn 0 0 1
vn 0 0 1
vn 0 0 1
vn 0 -1 0
vn 0 -1 0
vn 0 -1 0
vn 0 -1 0
vn 0 1 0
vn 0 1 0
vn 0 1 0
vn 0 1 0

vt -2.937008 1
vt -2.937008 -2.937008
vt 1 1
vt 1 -2.937008
vt 0 -18.68504
vt 3.937008 -18.68504
vt 0 1
vt 3.937008 1
vt 0 -18.68504
vt 3.937008 -18.68504
vt 0 1
vt 3.937008 1
vt 0 -18.68504
vt 3.937008 -18.68504
vt 0 1
vt 3.937008 1
vt 0 -18.68504
vt 3.937008 -18.68504
vt 0 1
vt 3.937008 1
vt 0 -18.68504
vt 3.937008 -18.68504
vt 0 1
vt 3.937008 1
vt 0 -18.68504
vt 3.937008 -18.68504
vt 0 1
vt 3.937008 1
vt 0 -18.68504
vt 3.937008 -18.68504
vt 0 1
vt 3.937008 1
vt 0 -18.68504
vt 3.937008 -18.68504
vt 0 1
vt 3.937008 1
vt 1 -0.6141732
vt 1 1
vt -97.22047 -0.6141732
vt -97.22047 1
vt 98.22047 -0.6141732
vt 0 1
vt 0 -0.6141732
vt 98.22047 1
vt 98.22047 -0.6141733
vt 0 1
vt 0 -0.6141733
vt 98.22047 1
vt 98.22047 -0.6141733
vt 0 1
vt 0 -0.6141733
vt 98.22047 1

g Station Bench Frame.obj
usemtl Station Bench Frame
usemap Station Bench Frame
f 1/1/1 3/3/3 2/2/2
f 3/3/3 4/4/4 2/2/2
f 5/5/5 7/7/7 6/6/6
f 6/6/6 7/7/7 8/8/8
f 9/9/9 11/11/11 10/10/10
f 10/10/10 11/11/11 12/12/12
f 13/13/13 15/15/15 14/14/14
f 14/14/14 15/15/15 16/16/16
f 17/17/17 19/19/19 18/18/18
f 18/18/18 19/19/19 20/20/20
f 21/21/21 23/23/23 22/22/22
f 22/22/22 23/23/23 24/24/24
f 25/25/25 27/27/27 26/26/26
f 26/26/26 27/27/27 28/28/28
f 29/29/29 31/31/31 30/30/30
f 30/30/30 31/31/31 32/32/32
f 33/33/33 35/35/35 34/34/34
f 34/34/34 35/35/35 36/36/36
f 37/37/37 39/39/39 38/38/38
f 40/40/40 38/38/38 39/39/39
f 41/41/41 43/43/43 42/42/42
f 41/41/41 42/42/42 44/44/44
f 45/45/45 47/47/47 46/46/46
f 45/45/45 46/46/46 48/48/48
f 49/49/49 51/51/51 50/50/50
f 49/49/49 50/50/50 52/52/52
