#Steps.obj

v 0 690.1968 0
v 0 73.94966 42.18223
v 0 49.29977 21.09112
v 0 49.29977 42.18223
v 0 98.59955 63.27335
v 0 73.94966 63.27335
v 0 123.2494 84.36446
v 0 98.59956 84.36446
v 0 147.8993 105.4556
v 0 123.2494 105.4556
v 0 172.5492 126.5467
v 0 147.8993 126.5467
v 0 197.1991 147.6378
v 0 172.5492 147.6378
v 0 221.849 168.7289
v 0 197.1991 168.7289
v 0 246.4989 189.82
v 0 221.849 189.82
v 0 271.1487 210.9111
v 0 246.4989 210.9111
v 0 295.7986 232.0023
v 0 271.1487 232.0023
v 0 320.4485 253.0934
v 0 295.7986 253.0934
v 0 345.0984 274.1845
v 0 320.4485 274.1845
v 0 369.7483 295.2756
v 0 394.3982 316.3667
v 0 369.7483 316.3667
v 0 345.0984 295.2756
v 0 419.0481 337.4579
v 0 394.3982 337.4579
v 0 443.698 358.549
v 0 419.0481 358.549
v 0 468.3478 379.64
v 0 443.6979 379.64
v 0 492.9977 400.7312
v 0 468.3478 400.7312
v 0 517.6476 421.8223
v 0 542.2975 442.9134
v 0 566.9474 464.0045
v 0 591.5974 485.0956
v 0 492.9977 421.8223
v 0 542.2975 464.0045
v 0 517.6476 442.9134
v 0 566.9474 485.0956
v 0 616.2472 506.1868
v 0 591.5973 506.1868
v 0 640.8971 527.2778
v 0 616.2472 527.2778
v 0 665.5469 548.369
v 0 640.897 548.369
v 0 690.1968 569.4601
v 0 665.5469 569.4601
v 0 24.64989 0
v 0 24.64989 21.09112
v 4484.252 566.9474 464.0045
v 4484.252 591.5974 485.0956
v 4484.252 690.1968 0
v 4484.252 542.2975 442.9134
v 4484.252 616.2472 506.1868
v 4484.252 591.5973 506.1868
v 4484.252 640.8971 527.2778
v 4484.252 665.5469 548.369
v 4484.252 690.1968 569.4601
v 4484.252 665.5469 569.4601
v 4484.252 640.897 548.369
v 4484.252 616.2472 527.2778
v 4484.252 566.9474 485.0956
v 4484.252 542.2975 464.0045
v 4484.252 517.6476 421.8223
v 4484.252 517.6476 442.9134
v 4484.252 492.9977 400.7312
v 4484.252 468.3478 379.64
v 4484.252 443.698 358.549
v 4484.252 492.9977 421.8223
v 4484.252 468.3478 400.7312
v 4484.252 443.6979 379.64
v 4484.252 419.0481 358.549
v 4484.252 419.0481 337.4579
v 4484.252 394.3982 316.3667
v 4484.252 394.3982 337.4579
v 4484.252 369.7483 295.2756
v 4484.252 369.7483 316.3667
v 4484.252 345.0984 274.1845
v 4484.252 345.0984 295.2756
v 4484.252 320.4485 253.0934
v 4484.252 320.4485 274.1845
v 4484.252 295.7986 232.0023
v 4484.252 295.7986 253.0934
v 4484.252 271.1487 210.9111
v 4484.252 246.4989 189.82
v 4484.252 246.4989 210.9111
v 4484.252 271.1487 232.0023
v 4484.252 221.849 168.7289
v 4484.252 221.849 189.82
v 4484.252 197.1991 168.7289
v 4484.252 197.1991 147.6378
v 4484.252 172.5492 126.5467
v 4484.252 147.8993 105.4556
v 4484.252 147.8993 126.5467
v 4484.252 172.5492 147.6378
v 4484.252 123.2494 84.36446
v 4484.252 123.2494 105.4556
v 4484.252 98.59955 63.27335
v 4484.252 98.59956 84.36446
v 4484.252 73.94966 42.18223
v 4484.252 73.94966 63.27335
v 4484.252 49.29977 21.09112
v 4484.252 24.64989 0
v 4484.252 24.64989 21.09112
v 4484.252 49.29977 42.18223
v 0 665.5469 569.4601
v 0 690.1968 569.4601
v 4484.252 665.5469 569.4601
v 4484.252 690.1968 569.4601
v 0 665.5469 548.369
v 0 665.5469 569.4601
v 4484.252 665.5469 548.369
v 4484.252 665.5469 569.4601
v 0 640.897 548.369
v 0 665.5469 548.369
v 4484.252 640.897 548.369
v 4484.252 665.5469 548.369
v 0 640.8971 527.2778
v 0 640.897 548.369
v 4484.252 640.8971 527.2778
v 4484.252 640.897 548.369
v 0 616.2472 527.2778
v 0 640.8971 527.2778
v 4484.252 616.2472 527.2778
v 4484.252 640.8971 527.2778
v 0 616.2472 506.1868
v 0 616.2472 527.2778
v 4484.252 616.2472 506.1868
v 4484.252 616.2472 527.2778
v 0 591.5973 506.1868
v 0 616.2472 506.1868
v 4484.252 591.5973 506.1868
v 4484.252 616.2472 506.1868
v 0 591.5974 485.0956
v 0 591.5973 506.1868
v 4484.252 591.5974 485.0956
v 4484.252 591.5973 506.1868
v 0 566.9474 485.0956
v 0 591.5974 485.0956
v 4484.252 566.9474 485.0956
v 4484.252 591.5974 485.0956
v 0 566.9474 464.0045
v 0 566.9474 485.0956
v 4484.252 566.9474 464.0045
v 4484.252 566.9474 485.0956
v 0 542.2975 464.0045
v 0 566.9474 464.0045
v 4484.252 542.2975 464.0045
v 4484.252 566.9474 464.0045
v 0 542.2975 442.9134
v 0 542.2975 464.0045
v 4484.252 542.2975 442.9134
v 4484.252 542.2975 464.0045
v 0 517.6476 442.9134
v 0 542.2975 442.9134
v 4484.252 517.6476 442.9134
v 4484.252 542.2975 442.9134
v 0 517.6476 421.8223
v 0 517.6476 442.9134
v 4484.252 517.6476 421.8223
v 4484.252 517.6476 442.9134
v 0 492.9977 421.8223
v 0 517.6476 421.8223
v 4484.252 492.9977 421.8223
v 4484.252 517.6476 421.8223
v 0 492.9977 400.7312
v 0 492.9977 421.8223
v 4484.252 492.9977 400.7312
v 4484.252 492.9977 421.8223
v 0 468.3478 400.7312
v 0 492.9977 400.7312
v 4484.252 468.3478 400.7312
v 4484.252 492.9977 400.7312
v 0 468.3478 379.64
v 0 468.3478 400.7312
v 4484.252 468.3478 379.64
v 4484.252 468.3478 400.7312
v 0 443.6979 379.64
v 0 468.3478 379.64
v 4484.252 443.6979 379.64
v 4484.252 468.3478 379.64
v 0 443.698 358.549
v 0 443.6979 379.64
v 4484.252 443.698 358.549
v 4484.252 443.6979 379.64
v 0 419.0481 358.549
v 0 443.698 358.549
v 4484.252 419.0481 358.549
v 4484.252 443.698 358.549
v 0 419.0481 337.4579
v 0 419.0481 358.549
v 4484.252 419.0481 337.4579
v 4484.252 419.0481 358.549
v 0 394.3982 337.4579
v 0 419.0481 337.4579
v 4484.252 394.3982 337.4579
v 4484.252 419.0481 337.4579
v 0 394.3982 316.3667
v 0 394.3982 337.4579
v 4484.252 394.3982 316.3667
v 4484.252 394.3982 337.4579
v 0 369.7483 316.3667
v 0 394.3982 316.3667
v 4484.252 369.7483 316.3667
v 4484.252 394.3982 316.3667
v 0 369.7483 295.2756
v 0 369.7483 316.3667
v 4484.252 369.7483 295.2756
v 4484.252 369.7483 316.3667
v 0 345.0984 295.2756
v 0 369.7483 295.2756
v 4484.252 345.0984 295.2756
v 4484.252 369.7483 295.2756
v 0 345.0984 274.1845
v 0 345.0984 295.2756
v 4484.252 345.0984 274.1845
v 4484.252 345.0984 295.2756
v 0 320.4485 274.1845
v 0 345.0984 274.1845
v 4484.252 320.4485 274.1845
v 4484.252 345.0984 274.1845
v 0 320.4485 253.0934
v 0 320.4485 274.1845
v 4484.252 320.4485 253.0934
v 4484.252 320.4485 274.1845
v 0 295.7986 253.0934
v 0 320.4485 253.0934
v 4484.252 295.7986 253.0934
v 4484.252 320.4485 253.0934
v 0 295.7986 232.0023
v 0 295.7986 253.0934
v 4484.252 295.7986 232.0023
v 4484.252 295.7986 253.0934
v 0 271.1487 232.0023
v 0 295.7986 232.0023
v 4484.252 271.1487 232.0023
v 4484.252 295.7986 232.0023
v 0 271.1487 210.9111
v 0 271.1487 232.0023
v 4484.252 271.1487 210.9111
v 4484.252 271.1487 232.0023
v 0 246.4989 210.9111
v 0 271.1487 210.9111
v 4484.252 246.4989 210.9111
v 4484.252 271.1487 210.9111
v 0 246.4989 189.82
v 0 246.4989 210.9111
v 4484.252 246.4989 189.82
v 4484.252 246.4989 210.9111
v 0 221.849 189.82
v 0 246.4989 189.82
v 4484.252 221.849 189.82
v 4484.252 246.4989 189.82
v 0 221.849 168.7289
v 0 221.849 189.82
v 4484.252 221.849 168.7289
v 4484.252 221.849 189.82
v 0 197.1991 168.7289
v 0 221.849 168.7289
v 4484.252 197.1991 168.7289
v 4484.252 221.849 168.7289
v 0 197.1991 147.6378
v 0 197.1991 168.7289
v 4484.252 197.1991 147.6378
v 4484.252 197.1991 168.7289
v 0 172.5492 147.6378
v 0 197.1991 147.6378
v 4484.252 172.5492 147.6378
v 4484.252 197.1991 147.6378
v 0 172.5492 126.5467
v 0 172.5492 147.6378
v 4484.252 172.5492 126.5467
v 4484.252 172.5492 147.6378
v 0 147.8993 126.5467
v 0 172.5492 126.5467
v 4484.252 147.8993 126.5467
v 4484.252 172.5492 126.5467
v 0 147.8993 105.4556
v 0 147.8993 126.5467
v 4484.252 147.8993 105.4556
v 4484.252 147.8993 126.5467
v 0 123.2494 105.4556
v 0 147.8993 105.4556
v 4484.252 123.2494 105.4556
v 4484.252 147.8993 105.4556
v 0 123.2494 84.36446
v 0 123.2494 105.4556
v 4484.252 123.2494 84.36446
v 4484.252 123.2494 105.4556
v 0 98.59956 84.36446
v 0 123.2494 84.36446
v 4484.252 98.59956 84.36446
v 4484.252 123.2494 84.36446
v 0 98.59955 63.27335
v 0 98.59956 84.36446
v 4484.252 98.59955 63.27335
v 4484.252 98.59956 84.36446
v 0 73.94966 63.27335
v 0 98.59955 63.27335
v 4484.252 73.94966 63.27335
v 4484.252 98.59955 63.27335
v 0 73.94966 42.18223
v 0 73.94966 63.27335
v 4484.252 73.94966 42.18223
v 4484.252 73.94966 63.27335
v 0 49.29977 42.18223
v 0 73.94966 42.18223
v 4484.252 49.29977 42.18223
v 4484.252 73.94966 42.18223
v 0 49.29977 21.09112
v 0 49.29977 42.18223
v 4484.252 49.29977 21.09112
v 4484.252 49.29977 42.18223
v 0 24.64989 21.09112
v 0 49.29977 21.09112
v 4484.252 24.64989 21.09112
v 4484.252 49.29977 21.09112
v 0 24.64989 0
v 0 24.64989 21.09112
v 4484.252 24.64989 0
v 4484.252 24.64989 21.09112
v 0 690.1968 0
v 0 24.64989 0
v 4484.252 690.1968 0
v 4484.252 24.64989 0
v 4484.252 690.1968 569.4601
v 0 690.1968 569.4601
v 0 690.1968 0
v 4484.252 690.1968 0

vn -1 0 0
vn -1 0 0
vn -1 0 0
vn -1 0 0
vn -1 0 0
vn -1 0 0
vn -1 0 0
vn -1 0 0
vn -1 0 0
vn -1 0 0
vn -1 0 0
vn -1 0 0
vn -1 0 0
vn -1 0 0
vn -1 0 0
vn -1 0 0
vn -1 0 0
vn -1 0 0
vn -1 0 0
vn -1 0 0
vn -1 0 0
vn -1 0 0
vn -1 0 0
vn -1 0 0
vn -1 0 0
vn -1 0 0
vn -1 0 0
vn -1 0 0
vn -1 0 0
vn -1 0 0
vn -1 0 0
vn -1 0 0
vn -1 0 0
vn -1 0 0
vn -1 0 0
vn -1 0 0
vn -1 0 0
vn -1 0 0
vn -1 0 0
vn -1 0 0
vn -1 0 0
vn -1 0 0
vn -1 0 0
vn -1 0 0
vn -1 0 0
vn -1 0 0
vn -1 0 0
vn -1 0 0
vn -1 0 0
vn -1 0 0
vn -1 0 0
vn -1 0 0
vn -1 0 0
vn -1 0 0
vn -1 0 0
vn -1 0 0
vn 1 0 0
vn 1 0 0
vn 1 0 0
vn 1 0 0
vn 1 0 0
vn 1 0 0
vn 1 0 0
vn 1 0 0
vn 1 0 0
vn 1 0 0
vn 1 0 0
vn 1 0 0
vn 1 0 0
vn 1 0 0
vn 1 0 0
vn 1 0 0
vn 1 0 0
vn 1 0 0
vn 1 0 0
vn 1 0 0
vn 1 0 0
vn 1 0 0
vn 1 0 0
vn 1 0 0
vn 1 0 0
vn 1 0 0
vn 1 0 0
vn 1 0 0
vn 1 0 0
vn 1 0 0
vn 1 0 0
vn 1 0 0
vn 1 0 0
vn 1 0 0
vn 1 0 0
vn 1 0 0
vn 1 0 0
vn 1 0 0
vn 1 0 0
vn 1 0 0
vn 1 0 0
vn 1 0 0
vn 1 0 0
vn 1 0 0
vn 1 0 0
vn 1 0 0
vn 1 0 0
vn 1 0 0
vn 1 0 0
vn 1 0 0
vn 1 0 0
vn 1 0 0
vn 1 0 0
vn 1 0 0
vn 1 0 0
vn 1 0 0
vn 0 0 1
vn 0 0 1
vn 0 0 1
vn 0 0 1
vn 0 -1 0
vn 0 -1 0
vn 0 -1 0
vn 0 -1 0
vn 0 0 1
vn 0 0 1
vn 0 0 1
vn 0 0 1
vn 0 -1 0
vn 0 -1 0
vn 0 -1 0
vn 0 -1 0
vn 0 0 1
vn 0 0 1
vn 0 0 1
vn 0 0 1
vn 0 -1 0
vn 0 -1 0
vn 0 -1 0
vn 0 -1 0
vn 0 0 1
vn 0 0 1
vn 0 0 1
vn 0 0 1
vn 0 -1 0
vn 0 -1 0
vn 0 -1 0
vn 0 -1 0
vn 0 0 1
vn 0 0 1
vn 0 0 1
vn 0 0 1
vn 0 -1 0
vn 0 -1 0
vn 0 -1 0
vn 0 -1 0
vn 0 0 1
vn 0 0 1
vn 0 0 1
vn 0 0 1
vn 0 -1 0
vn 0 -1 0
vn 0 -1 0
vn 0 -1 0
vn 0 0 1
vn 0 0 1
vn 0 0 1
vn 0 0 1
vn 0 -1 0
vn 0 -1 0
vn 0 -1 0
vn 0 -1 0
vn 0 0 1
vn 0 0 1
vn 0 0 1
vn 0 0 1
vn 0 -1 0
vn 0 -1 0
vn 0 -1 0
vn 0 -1 0
vn 0 0 1
vn 0 0 1
vn 0 0 1
vn 0 0 1
vn 0 -1 0
vn 0 -1 0
vn 0 -1 0
vn 0 -1 0
vn 0 0 1
vn 0 0 1
vn 0 0 1
vn 0 0 1
vn 0 -1 0
vn 0 -1 0
vn 0 -1 0
vn 0 -1 0
vn 0 0 1
vn 0 0 1
vn 0 0 1
vn 0 0 1
vn 0 -1 0
vn 0 -1 0
vn 0 -1 0
vn 0 -1 0
vn 0 0 1
vn 0 0 1
vn 0 0 1
vn 0 0 1
vn 0 -1 0
vn 0 -1 0
vn 0 -1 0
vn 0 -1 0
vn 0 0 1
vn 0 0 1
vn 0 0 1
vn 0 0 1
vn 0 -1 0
vn 0 -1 0
vn 0 -1 0
vn 0 -1 0
vn 0 0 1
vn 0 0 1
vn 0 0 1
vn 0 0 1
vn 0 -1 0
vn 0 -1 0
vn 0 -1 0
vn 0 -1 0
vn 0 0 1
vn 0 0 1
vn 0 0 1
vn 0 0 1
vn 0 -1 0
vn 0 -1 0
vn 0 -1 0
vn 0 -1 0
vn 0 0 1
vn 0 0 1
vn 0 0 1
vn 0 0 1
vn 0 -1 0
vn 0 -1 0
vn 0 -1 0
vn 0 -1 0
vn 0 0 1
vn 0 0 1
vn 0 0 1
vn 0 0 1
vn 0 -1 0
vn 0 -1 0
vn 0 -1 0
vn 0 -1 0
vn 0 0 1
vn 0 0 1
vn 0 0 1
vn 0 0 1
vn 0 -1 0
vn 0 -1 0
vn 0 -1 0
vn 0 -1 0
vn 0 0 1
vn 0 0 1
vn 0 0 1
vn 0 0 1
vn 0 -1 0
vn 0 -1 0
vn 0 -1 0
vn 0 -1 0
vn 0 0 1
vn 0 0 1
vn 0 0 1
vn 0 0 1
vn 0 -1 0
vn 0 -1 0
vn 0 -1 0
vn 0 -1 0
vn 0 0 1
vn 0 0 1
vn 0 0 1
vn 0 0 1
vn 0 -1 0
vn 0 -1 0
vn 0 -1 0
vn 0 -1 0
vn 0 0 1
vn 0 0 1
vn 0 0 1
vn 0 0 1
vn 0 -1 0
vn 0 -1 0
vn 0 -1 0
vn 0 -1 0
vn 0 0 1
vn 0 0 1
vn 0 0 1
vn 0 0 1
vn 0 -1 0
vn 0 -1 0
vn 0 -1 0
vn 0 -1 0
vn 0 0 1
vn 0 0 1
vn 0 0 1
vn 0 0 1
vn 0 -1 0
vn 0 -1 0
vn 0 -1 0
vn 0 -1 0
vn 0 0 1
vn 0 0 1
vn 0 0 1
vn 0 0 1
vn 0 -1 0
vn 0 -1 0
vn 0 -1 0
vn 0 -1 0
vn 0 0 1
vn 0 0 1
vn 0 0 1
vn 0 0 1
vn 0 -1 0
vn 0 -1 0
vn 0 -1 0
vn 0 -1 0
vn 0 0 1
vn 0 0 1
vn 0 0 1
vn 0 0 1
vn 0 -1 0
vn 0 -1 0
vn 0 -1 0
vn 0 -1 0
vn 0 0 -1
vn 0 0 -1
vn 0 0 -1
vn 0 0 -1
vn 0 1 0
vn 0 1 0
vn 0 1 0
vn 0 1 0

vt 0 1
vt 0 1
vt 0 1
vt 0 1
vt 0 1
vt 0 1
vt 0 1
vt 0 1
vt 0 1
vt 0 1
vt 0 1
vt 0 1
vt 0 1
vt 0 1
vt 0 1
vt 0 1
vt 0 1
vt 0 1
vt 0 1
vt 0 1
vt 0 1
vt 0 1
vt 0 1
vt 0 1
vt 0 1
vt 0 1
vt 0 1
vt 0 1
vt 0 1
vt 0 1
vt 0 1
vt 0 1
vt 0 1
vt 0 1
vt 0 1
vt 0 1
vt 0 1
vt 0 1
vt 0 1
vt 0 1
vt 0 1
vt 0 1
vt 0 1
vt 0 1
vt 0 1
vt 0 1
vt 0 1
vt 0 1
vt 0 1
vt 0 1
vt 0 1
vt 0 1
vt 0 1
vt 0 1
vt 0 1
vt 0 1
vt 0 1
vt 0 1
vt 0 1
vt 0 1
vt 0 1
vt 0 1
vt 0 1
vt 0 1
vt 0 1
vt 0 1
vt 0 1
vt 0 1
vt 0 1
vt 0 1
vt 0 1
vt 0 1
vt 0 1
vt 0 1
vt 0 1
vt 0 1
vt 0 1
vt 0 1
vt 0 1
vt 0 1
vt 0 1
vt 0 1
vt 0 1
vt 0 1
vt 0 1
vt 0 1
vt 0 1
vt 0 1
vt 0 1
vt 0 1
vt 0 1
vt 0 1
vt 0 1
vt 0 1
vt 0 1
vt 0 1
vt 0 1
vt 0 1
vt 0 1
vt 0 1
vt 0 1
vt 0 1
vt 0 1
vt 0 1
vt 0 1
vt 0 1
vt 0 1
vt 0 1
vt 0 1
vt 0 1
vt 0 1
vt 0 1
vt 0 1
vt 0 1
vt 0 1
vt 0 1
vt 0 1
vt 0 1
vt 0 1
vt 0 1
vt 0 1
vt 0 1
vt 0 1
vt 0 1
vt 0 1
vt 0 1
vt 0 1
vt 0 1
vt 0 1
vt 0 1
vt 0 1
vt 0 1
vt 0 1
vt 0 1
vt 0 1
vt 0 1
vt 0 1
vt 0 1
vt 0 1
vt 0 1
vt 0 1
vt 0 1
vt 0 1
vt 0 1
vt 0 1
vt 0 1
vt 0 1
vt 0 1
vt 0 1
vt 0 1
vt 0 1
vt 0 1
vt 0 1
vt 0 1
vt 0 1
vt 0 1
vt 0 1
vt 0 1
vt 0 1
vt 0 1
vt 0 1
vt 0 1
vt 0 1
vt 0 1
vt 0 1
vt 0 1
vt 0 1
vt 0 1
vt 0 1
vt 0 1
vt 0 1
vt 0 1
vt 0 1
vt 0 1
vt 0 1
vt 0 1
vt 0 1
vt 0 1
vt 0 1
vt 0 1
vt 0 1
vt 0 1
vt 0 1
vt 0 1
vt 0 1
vt 0 1
vt 0 1
vt 0 1
vt 0 1
vt 0 1
vt 0 1
vt 0 1
vt 0 1
vt 0 1
vt 0 1
vt 0 1
vt 0 1
vt 0 1
vt 0 1
vt 0 1
vt 0 1
vt 0 1
vt 0 1
vt 0 1
vt 0 1
vt 0 1
vt 0 1
vt 0 1
vt 0 1
vt 0 1
vt 0 1
vt 0 1
vt 0 1
vt 0 1
vt 0 1
vt 0 1
vt 0 1
vt 0 1
vt 0 1
vt 0 1
vt 0 1
vt 0 1
vt 0 1
vt 0 1
vt 0 1
vt 0 1
vt 0 1
vt 0 1
vt 0 1
vt 0 1
vt 0 1
vt 0 1
vt 0 1
vt 0 1
vt 0 1
vt 0 1
vt 0 1
vt 0 1
vt 0 1
vt 0 1
vt 0 1
vt 0 1
vt 0 1
vt 0 1
vt 0 1
vt 0 1
vt 0 1
vt 0 1
vt 0 1
vt 0 1
vt 0 1
vt 0 1
vt 0 1
vt 0 1
vt 0 1
vt 0 1
vt 0 1
vt 0 1
vt 0 1
vt 0 1
vt 0 1
vt 0 1
vt 0 1
vt 0 1
vt 0 1
vt 0 1
vt 0 1
vt 0 1
vt 0 1
vt 0 1
vt 0 1
vt 0 1
vt 0 1
vt 0 1
vt 0 1
vt 0 1
vt 0 1
vt 0 1
vt 0 1
vt 0 1
vt 0 1
vt 0 1
vt 0 1
vt 0 1
vt 0 1
vt 0 1
vt 0 1
vt 0 1
vt 0 1
vt 0 1
vt 0 1
vt 0 1
vt 0 1
vt 0 1
vt 0 1
vt 0 1
vt 0 1
vt 0 1
vt 0 1
vt 0 1
vt 0 1
vt 0 1
vt 0 1
vt 0 1
vt 0 1
vt 0 1
vt 0 1
vt 0 1
vt 0 1
vt 0 1
vt 0 1
vt 0 1
vt 0 1
vt 0 1
vt 0 1
vt 0 1
vt 0 1
vt 0 1
vt 0 1
vt 0 1
vt 0 1
vt 0 1
vt 0 1
vt 0 1
vt 0 1
vt 0 1
vt 0 1
vt 0 1
vt 0 1
vt 0 1
vt 0 1
vt 0 1
vt 0 1
vt 0 1
vt 0 1
vt 0 1

g Steps.obj
usemtl Steps
usemap Steps
f 1/1/1 3/3/3 2/2/2
f 4/4/4 2/2/2 3/3/3
f 1/1/1 2/2/2 5/5/5
f 6/6/6 5/5/5 2/2/2
f 1/1/1 5/5/5 7/7/7
f 8/8/8 7/7/7 5/5/5
f 1/1/1 7/7/7 9/9/9
f 10/10/10 9/9/9 7/7/7
f 1/1/1 9/9/9 11/11/11
f 9/9/9 12/12/12 11/11/11
f 1/1/1 11/11/11 13/13/13
f 14/14/14 13/13/13 11/11/11
f 1/1/1 13/13/13 15/15/15
f 16/16/16 15/15/15 13/13/13
f 1/1/1 15/15/15 17/17/17
f 18/18/18 17/17/17 15/15/15
f 17/17/17 20/20/20 19/19/19
f 17/17/17 19/19/19 1/1/1
f 21/21/21 1/1/1 19/19/19
f 19/19/19 22/22/22 21/21/21
f 23/23/23 1/1/1 21/21/21
f 24/24/24 23/23/23 21/21/21
f 25/25/25 1/1/1 23/23/23
f 26/26/26 25/25/25 23/23/23
f 27/27/27 1/1/1 25/25/25
f 28/28/28 1/1/1 27/27/27
f 29/29/29 28/28/28 27/27/27
f 25/25/25 30/30/30 27/27/27
f 31/31/31 1/1/1 28/28/28
f 28/28/28 32/32/32 31/31/31
f 33/33/33 1/1/1 31/31/31
f 34/34/34 33/33/33 31/31/31
f 35/35/35 1/1/1 33/33/33
f 36/36/36 35/35/35 33/33/33
f 37/37/37 1/1/1 35/35/35
f 35/35/35 38/38/38 37/37/37
f 39/39/39 1/1/1 37/37/37
f 40/40/40 1/1/1 39/39/39
f 41/41/41 1/1/1 40/40/40
f 42/42/42 1/1/1 41/41/41
f 37/37/37 43/43/43 39/39/39
f 44/44/44 41/41/41 40/40/40
f 39/39/39 45/45/45 40/40/40
f 46/46/46 42/42/42 41/41/41
f 47/47/47 1/1/1 42/42/42
f 42/42/42 48/48/48 47/47/47
f 49/49/49 1/1/1 47/47/47
f 50/50/50 49/49/49 47/47/47
f 51/51/51 1/1/1 49/49/49
f 49/49/49 52/52/52 51/51/51
f 53/53/53 1/1/1 51/51/51
f 53/53/53 51/51/51 54/54/54
f 3/3/3 1/1/1 55/55/55
f 55/55/55 56/56/56 3/3/3
f 57/57/57 59/59/59 58/58/58
f 59/59/59 57/57/57 60/60/60
f 59/59/59 61/61/61 58/58/58
f 61/61/61 62/62/62 58/58/58
f 61/61/61 59/59/59 63/63/63
f 59/59/59 64/64/64 63/63/63
f 64/64/64 59/59/59 65/65/65
f 66/66/66 64/64/64 65/65/65
f 67/67/67 63/63/63 64/64/64
f 63/63/63 68/68/68 61/61/61
f 69/69/69 57/57/57 58/58/58
f 70/70/70 60/60/60 57/57/57
f 71/71/71 59/59/59 60/60/60
f 60/60/60 72/72/72 71/71/71
f 73/73/73 59/59/59 71/71/71
f 59/59/59 73/73/73 74/74/74
f 59/59/59 74/74/74 75/75/75
f 71/71/71 76/76/76 73/73/73
f 73/73/73 77/77/77 74/74/74
f 78/78/78 75/75/75 74/74/74
f 79/79/79 80/80/80 75/75/75
f 80/80/80 59/59/59 75/75/75
f 59/59/59 80/80/80 81/81/81
f 82/82/82 81/81/81 80/80/80
f 83/83/83 59/59/59 81/81/81
f 81/81/81 84/84/84 83/83/83
f 59/59/59 83/83/83 85/85/85
f 83/83/83 86/86/86 85/85/85
f 59/59/59 85/85/85 87/87/87
f 88/88/88 87/87/87 85/85/85
f 89/89/89 59/59/59 87/87/87
f 90/90/90 89/89/89 87/87/87
f 91/91/91 59/59/59 89/89/89
f 59/59/59 91/91/91 92/92/92
f 93/93/93 92/92/92 91/91/91
f 89/89/89 94/94/94 91/91/91
f 95/95/95 59/59/59 92/92/92
f 92/92/92 96/96/96 95/95/95
f 97/97/97 98/98/98 95/95/95
f 98/98/98 59/59/59 95/95/95
f 99/99/99 59/59/59 98/98/98
f 59/59/59 99/99/99 100/100/100
f 101/101/101 100/100/100 99/99/99
f 102/102/102 99/99/99 98/98/98
f 59/59/59 100/100/100 103/103/103
f 104/104/104 103/103/103 100/100/100
f 105/105/105 59/59/59 103/103/103
f 103/103/103 106/106/106 105/105/105
f 107/107/107 59/59/59 105/105/105
f 105/105/105 108/108/108 107/107/107
f 109/109/109 59/59/59 107/107/107
f 59/59/59 109/109/109 110/110/110
f 109/109/109 111/111/111 110/110/110
f 107/107/107 112/112/112 109/109/109
f 113/113/113 115/115/115 114/114/114
f 116/116/116 114/114/114 115/115/115
f 117/117/117 119/119/119 118/118/118
f 120/120/120 118/118/118 119/119/119
f 121/121/121 123/123/123 122/122/122
f 124/124/124 122/122/122 123/123/123
f 125/125/125 127/127/127 126/126/126
f 128/128/128 126/126/126 127/127/127
f 129/129/129 131/131/131 130/130/130
f 132/132/132 130/130/130 131/131/131
f 133/133/133 135/135/135 134/134/134
f 136/136/136 134/134/134 135/135/135
f 137/137/137 139/139/139 138/138/138
f 140/140/140 138/138/138 139/139/139
f 141/141/141 143/143/143 142/142/142
f 144/144/144 142/142/142 143/143/143
f 145/145/145 147/147/147 146/146/146
f 148/148/148 146/146/146 147/147/147
f 149/149/149 151/151/151 150/150/150
f 152/152/152 150/150/150 151/151/151
f 153/153/153 155/155/155 154/154/154
f 156/156/156 154/154/154 155/155/155
f 157/157/157 159/159/159 158/158/158
f 160/160/160 158/158/158 159/159/159
f 161/161/161 163/163/163 162/162/162
f 164/164/164 162/162/162 163/163/163
f 165/165/165 167/167/167 166/166/166
f 168/168/168 166/166/166 167/167/167
f 169/169/169 171/171/171 170/170/170
f 172/172/172 170/170/170 171/171/171
f 173/173/173 175/175/175 174/174/174
f 176/176/176 174/174/174 175/175/175
f 177/177/177 179/179/179 178/178/178
f 180/180/180 178/178/178 179/179/179
f 181/181/181 183/183/183 182/182/182
f 184/184/184 182/182/182 183/183/183
f 185/185/185 187/187/187 186/186/186
f 188/188/188 186/186/186 187/187/187
f 189/189/189 191/191/191 190/190/190
f 192/192/192 190/190/190 191/191/191
f 193/193/193 195/195/195 194/194/194
f 196/196/196 194/194/194 195/195/195
f 197/197/197 199/199/199 198/198/198
f 200/200/200 198/198/198 199/199/199
f 201/201/201 203/203/203 202/202/202
f 204/204/204 202/202/202 203/203/203
f 205/205/205 207/207/207 206/206/206
f 208/208/208 206/206/206 207/207/207
f 209/209/209 211/211/211 210/210/210
f 212/212/212 210/210/210 211/211/211
f 213/213/213 215/215/215 214/214/214
f 216/216/216 214/214/214 215/215/215
f 217/217/217 219/219/219 218/218/218
f 220/220/220 218/218/218 219/219/219
f 221/221/221 223/223/223 222/222/222
f 224/224/224 222/222/222 223/223/223
f 225/225/225 227/227/227 226/226/226
f 228/228/228 226/226/226 227/227/227
f 229/229/229 231/231/231 230/230/230
f 232/232/232 230/230/230 231/231/231
f 233/233/233 235/235/235 234/234/234
f 236/236/236 234/234/234 235/235/235
f 237/237/237 239/239/239 238/238/238
f 240/240/240 238/238/238 239/239/239
f 241/241/241 243/243/243 242/242/242
f 244/244/244 242/242/242 243/243/243
f 245/245/245 247/247/247 246/246/246
f 248/248/248 246/246/246 247/247/247
f 249/249/249 251/251/251 250/250/250
f 252/252/252 250/250/250 251/251/251
f 253/253/253 255/255/255 254/254/254
f 256/256/256 254/254/254 255/255/255
f 257/257/257 259/259/259 258/258/258
f 260/260/260 258/258/258 259/259/259
f 261/261/261 263/263/263 262/262/262
f 264/264/264 262/262/262 263/263/263
f 265/265/265 267/267/267 266/266/266
f 268/268/268 266/266/266 267/267/267
f 269/269/269 271/271/271 270/270/270
f 272/272/272 270/270/270 271/271/271
f 273/273/273 275/275/275 274/274/274
f 276/276/276 274/274/274 275/275/275
f 277/277/277 279/279/279 278/278/278
f 280/280/280 278/278/278 279/279/279
f 281/281/281 283/283/283 282/282/282
f 284/284/284 282/282/282 283/283/283
f 285/285/285 287/287/287 286/286/286
f 288/288/288 286/286/286 287/287/287
f 289/289/289 291/291/291 290/290/290
f 292/292/292 290/290/290 291/291/291
f 293/293/293 295/295/295 294/294/294
f 296/296/296 294/294/294 295/295/295
f 297/297/297 299/299/299 298/298/298
f 300/300/300 298/298/298 299/299/299
f 301/301/301 303/303/303 302/302/302
f 304/304/304 302/302/302 303/303/303
f 305/305/305 307/307/307 306/306/306
f 308/308/308 306/306/306 307/307/307
f 309/309/309 311/311/311 310/310/310
f 312/312/312 310/310/310 311/311/311
f 313/313/313 315/315/315 314/314/314
f 316/316/316 314/314/314 315/315/315
f 317/317/317 319/319/319 318/318/318
f 320/320/320 318/318/318 319/319/319
f 321/321/321 323/323/323 322/322/322
f 324/324/324 322/322/322 323/323/323
f 325/325/325 327/327/327 326/326/326
f 328/328/328 326/326/326 327/327/327
f 329/329/329 331/331/331 330/330/330
f 332/332/332 330/330/330 331/331/331
f 333/333/333 335/335/335 334/334/334
f 335/335/335 333/333/333 336/336/336
