#Turd.obj

v 1.227711 -0.3697833 -3.767136
v 1.431999 -0.5983219 -3.527946
v 1.684513 -0.5983219 -3.232289
v 1.888801 -0.369783 -2.993099
v 1.14968 -6.381957E-08 -3.858499
v 1.966832 -8.820781E-09 -2.901736
v 1.227711 0.3697832 -3.767136
v 1.888801 0.3697832 -2.993099
v 1.431999 0.5983219 -3.527946
v 1.684513 0.5983219 -3.23229
v 1.966832 -8.820781E-09 -2.901736
v 0.9860814 0.4622291 -1.594652
v 1.888801 0.3697832 -2.993099
v 1.122473 0 -1.531775
v 0.6290035 0.7479024 -1.759267
v 1.684513 0.5983219 -3.23229
v 1.888801 -0.369783 -2.993099
v 0.9860815 -0.4622288 -1.594652
v 1.684513 -0.5983219 -3.232289
v 0.6290036 -0.7479023 -1.759267
v 1.431999 -0.5983219 -3.527946
v 0.1876309 -0.7479023 -1.962743
v 1.227711 -0.3697833 -3.767136
v -0.1694468 -0.4622292 -2.127358
v 1.14968 -6.381957E-08 -3.858499
v -0.3058384 -6.874849E-08 -2.190235
v 1.227711 0.3697832 -3.767136
v -0.1694469 0.462229 -2.127358
v 1.431999 0.5983219 -3.527946
v 0.187631 0.7479023 -1.962743
v 1.684513 0.5983219 -3.23229
v 0.6290035 0.7479024 -1.759267
v -0.2430082 0.7479023 0
v 0.2430082 0.7479024 0
v -0.6362038 0.462229 0
v -0.7863911 -6.874849E-08 0
v -0.6362037 -0.4622292 0
v -0.2430083 -0.7479023 0
v 0.2430083 -0.7479023 0
v 0.6362039 -0.4622288 0
v 0.7863911 0 0
v 0.6362038 0.4622291 0
v 0.2430082 0.7479024 0
v 0.9860813 0.4622291 1.594652
v 1.122473 0 1.531774
v 0.6290034 0.7479024 1.759267
v 0.1876309 -0.7479023 1.962743
v 0.6290035 -0.7479023 1.759267
v 0.9860815 -0.4622288 1.594651
v 1.888801 0.3697833 2.993099
v 1.966831 1.428124E-08 2.901736
v 1.684513 0.5983219 3.23229
v 1.684513 -0.5983219 3.23229
v 1.431999 -0.5983219 3.527945
v -0.1694469 -0.4622292 2.127358
v -0.3058385 -6.874849E-08 2.190235
v -0.169447 0.462229 2.127358
v 0.1876309 0.7479023 1.962743
v 0.6290034 0.7479024 1.759267
v 1.431999 0.5983219 3.527945
v 1.684513 0.5983219 3.23229
v 1.227711 0.3697832 3.767136
v 1.14968 -4.071752E-08 3.858498
v 1.227711 -0.3697833 3.767136
v 1.888801 -0.369783 2.993099
v 1.888801 -0.369783 2.993099
v 1.684513 -0.5983219 3.23229
v 1.431999 -0.5983219 3.527945
v 1.227711 -0.3697833 3.767136
v 1.14968 -4.071752E-08 3.858498
v 1.966831 1.428124E-08 2.901736
v 1.227711 0.3697832 3.767136
v 1.888801 0.3697833 2.993099
v 1.431999 0.5983219 3.527945
v 1.684513 0.5983219 3.23229
v 1.888801 -0.369783 -2.993099
v 2.566694 -2.758702E-08 -4.241405
v 1.684513 -0.5983219 -3.232289
v 1.431999 -0.5983219 -3.527946
v 1.227711 -0.3697833 -3.767136
v 1.14968 -6.381957E-08 -3.858499
v 1.227711 0.3697832 -3.767136
v 1.431999 0.5983219 -3.527946
v 1.684513 0.5983219 -3.23229
v 1.888801 0.3697832 -2.993099
v 1.966832 -8.820781E-09 -2.901736
v 1.888801 -0.369783 2.993099
v 2.460807 8.850844E-08 4.15097
v 1.966831 1.428124E-08 2.901736
v 1.888801 0.3697833 2.993099
v 1.684513 0.5983219 3.23229
v 1.431999 0.5983219 3.527945
v 1.227711 0.3697832 3.767136
v 1.14968 -4.071752E-08 3.858498
v 1.227711 -0.3697833 3.767136
v 1.431999 -0.5983219 3.527945
v 1.684513 -0.5983219 3.23229

vn 1.376667E-38 1 0
vn 1.376667E-38 1 0
vn 1.376667E-38 1 0
vn 1.376667E-38 1 0
vn 1.376667E-38 1 0
vn 1.376667E-38 1 0
vn 1.376667E-38 1 0
vn 1.376667E-38 1 0
vn 1.376667E-38 1 0
vn 1.376667E-38 1 0
vn 0.8504198 0 0.5261048
vn 0.741995 0.6041074 0.2906846
vn 0.6903819 0.5975375 0.4078256
vn 0.9273673 0 0.3741521
vn 0.2688865 0.9600588 0.07737681
vn 0.2698864 0.957994 0.09700009
vn 0.6903821 -0.5975372 0.4078258
vn 0.7419951 -0.6041073 0.2906847
vn 0.2698865 -0.9579939 0.0970002
vn 0.2688867 -0.9600588 0.07737688
vn -0.2347021 -0.9321246 -0.2757874
vn -0.292745 -0.9397754 -0.1764163
vn -0.6157693 -0.5573037 -0.5569925
vn -0.7301654 -0.5714365 -0.3745914
vn -0.7529214 0 -0.6581106
vn -0.89364 0 -0.4487844
vn -0.6157693 0.5573037 -0.5569926
vn -0.7301656 0.5714364 -0.3745915
vn -0.2347023 0.9321245 -0.2757875
vn -0.292745 0.9397753 -0.1764164
vn 0.2698864 0.957994 0.09700009
vn 0.2688865 0.9600588 0.07737681
vn -0.3463934 0.9380894 0
vn 0.2696516 0.962958 0
vn -0.8226897 0.5684906 0
vn -1 0 0
vn -0.8226897 -0.5684907 0
vn -0.3463933 -0.9380894 0
vn 0.2696518 -0.9629579 0
vn 0.7933692 -0.6087407 0
vn 1 0 0
vn 0.7933691 0.6087409 0
vn 0.2696516 0.962958 0
vn 0.741995 0.6041076 -0.2906846
vn 0.9273673 0 -0.374152
vn 0.2688865 0.9600588 -0.07737681
vn -0.292745 -0.9397754 0.1764164
vn 0.2688867 -0.9600588 -0.07737687
vn 0.7419952 -0.6041073 -0.2906845
vn 0.6903819 0.5975376 -0.4078255
vn 0.8504199 0 -0.5261045
vn 0.2698864 0.957994 -0.0970001
vn 0.2698865 -0.9579939 -0.0970002
vn -0.2347021 -0.9321246 0.2757874
vn -0.7301654 -0.5714365 0.3745915
vn -0.89364 0 0.4487844
vn -0.7301656 0.5714363 0.3745915
vn -0.292745 0.9397753 0.1764164
vn 0.2688865 0.9600588 -0.07737681
vn -0.2347023 0.9321245 0.2757875
vn 0.2698864 0.957994 -0.0970001
vn -0.6157693 0.5573036 0.5569928
vn -0.7529212 0 0.6581106
vn -0.6157693 -0.5573037 0.5569927
vn 0.6903821 -0.5975373 -0.4078255
vn 1.376667E-38 1 0
vn 1.376667E-38 1 0
vn 1.376667E-38 1 0
vn 1.376667E-38 1 0
vn 1.376667E-38 1 0
vn 1.376667E-38 1 0
vn 1.376667E-38 1 0
vn 1.376667E-38 1 0
vn 1.376667E-38 1 0
vn 1.376667E-38 1 0
vn 0.8006185 -0.5310608 0.2774609
vn 0.7604058 0 -0.6494483
vn 0.5072318 -0.8592749 -0.06605063
vn 0.144586 -0.8592749 -0.4906544
vn -0.1488005 -0.5310611 -0.8341658
vn -0.2608641 0 -0.9653756
vn -0.1488005 0.531061 -0.8341659
vn 0.1445861 0.8592747 -0.4906544
vn 0.5072318 0.8592749 -0.06605063
vn 0.8006183 0.5310611 0.2774608
vn 0.912682 0 0.4086705
vn 0.8203462 -0.5193436 -0.2394039
vn 0.7604057 0 0.6494485
vn 0.9299372 0 -0.3677185
vn 0.8203461 0.519344 -0.2394038
vn 0.5334324 0.8403167 0.0965287
vn 0.1787875 0.8403169 0.5117642
vn -0.1081266 0.5193443 0.847697
vn -0.2177179 0 0.9760118
vn -0.1081264 -0.5193443 0.847697
vn 0.1787875 -0.8403169 0.5117642
vn 0.5334324 -0.8403166 0.09652878

vt 0.1501874 -0.2101315
vt 0.5433828 -0.4958048
vt 1.029399 -0.4958048
vt 1.422595 -0.2101312
vt 0 0.2520975
vt 1.572782 0.2520976
vt 0.1501873 0.7143266
vt 1.422595 0.7143267
vt 0.5433828 0.9999999
vt 1.029399 1
vt 3.705781 1
vt 4.199885 -0.9201664
vt 4.199885 1
vt 3.705781 -0.9201664
vt 4.693989 -0.9201664
vt 4.693989 1
vt 3.211677 1
vt 3.211677 -0.9201664
vt 2.717573 1
vt 2.717573 -0.9201664
vt 2.223468 1
vt 2.223468 -0.9201664
vt 1.729365 1
vt 1.729365 -0.9201664
vt 1.23526 1
vt 1.23526 -0.9201664
vt 0.7411564 1
vt 0.7411564 -0.9201664
vt 0.2470521 1
vt 0.2470521 -0.9201664
vt -0.2470521 1
vt -0.2470521 -0.9201664
vt 0.2470521 -2.840333
vt -0.2470521 -2.840333
vt 0.7411564 -2.840333
vt 1.23526 -2.840333
vt 1.729365 -2.840333
vt 2.223468 -2.840333
vt 2.717573 -2.840333
vt 3.211677 -2.840333
vt 3.705781 -2.840333
vt 4.199885 -2.840333
vt 4.693989 -2.840333
vt 4.199885 -4.760499
vt 3.705781 -4.760499
vt 4.693989 -4.760499
vt 2.223468 -4.760499
vt 2.717573 -4.760499
vt 3.211677 -4.760499
vt 4.199885 -6.680665
vt 3.705781 -6.680665
vt 4.693989 -6.680665
vt 2.717573 -6.680665
vt 2.223468 -6.680665
vt 1.729365 -4.760499
vt 1.23526 -4.760499
vt 0.7411564 -4.760499
vt 0.2470521 -4.760499
vt -0.2470521 -4.760499
vt 0.2470521 -6.680665
vt -0.2470521 -6.680665
vt 0.7411564 -6.680665
vt 1.23526 -6.680665
vt 1.729365 -6.680665
vt 3.211677 -6.680665
vt 1.422595 0.7143265
vt 1.029399 1
vt 0.5433828 1
vt 0.1501874 0.7143269
vt 0 0.2520977
vt 1.572782 0.2520977
vt 0.1501873 -0.2101314
vt 1.422595 -0.2101314
vt 0.5433828 -0.4958047
vt 1.029399 -0.4958048
vt 1.422595 -0.2101312
vt 0.7863911 0.2520976
vt 1.029399 -0.4958048
vt 0.5433828 -0.4958048
vt 0.1501874 -0.2101315
vt 0 0.2520975
vt 0.1501873 0.7143266
vt 0.5433828 0.9999999
vt 1.029399 1
vt 1.422595 0.7143267
vt 1.572782 0.2520976
vt 1.422595 0.7143265
vt 0.7863907 0.2520976
vt 1.572782 0.2520977
vt 1.422595 -0.2101314
vt 1.029399 -0.4958048
vt 0.5433828 -0.4958047
vt 0.1501873 -0.2101314
vt 0 0.2520977
vt 0.1501874 0.7143269
vt 0.5433828 1
vt 1.029399 1

g Turd.obj
usemtl Turd
usemap Turd
f 1/1/1 3/3/3 2/2/2
f 3/3/3 1/1/1 4/4/4
f 4/4/4 1/1/1 5/5/5
f 4/4/4 5/5/5 6/6/6
f 6/6/6 5/5/5 7/7/7
f 6/6/6 7/7/7 8/8/8
f 8/8/8 7/7/7 9/9/9
f 8/8/8 9/9/9 10/10/10
f 11/11/11 13/13/13 12/12/12
f 11/11/11 12/12/12 14/14/14
f 13/13/13 15/15/15 12/12/12
f 13/13/13 16/16/16 15/15/15
f 17/17/17 11/11/11 14/14/14
f 17/17/17 14/14/14 18/18/18
f 19/19/19 17/17/17 18/18/18
f 19/19/19 18/18/18 20/20/20
f 21/21/21 19/19/19 20/20/20
f 21/21/21 20/20/20 22/22/22
f 23/23/23 21/21/21 22/22/22
f 23/23/23 22/22/22 24/24/24
f 25/25/25 23/23/23 24/24/24
f 25/25/25 24/24/24 26/26/26
f 27/27/27 25/25/25 26/26/26
f 27/27/27 26/26/26 28/28/28
f 29/29/29 27/27/27 28/28/28
f 29/29/29 28/28/28 30/30/30
f 31/31/31 29/29/29 30/30/30
f 31/31/31 30/30/30 32/32/32
f 32/32/32 30/30/30 33/33/33
f 32/32/32 33/33/33 34/34/34
f 30/30/30 28/28/28 35/35/35
f 30/30/30 35/35/35 33/33/33
f 28/28/28 26/26/26 36/36/36
f 28/28/28 36/36/36 35/35/35
f 26/26/26 24/24/24 37/37/37
f 26/26/26 37/37/37 36/36/36
f 24/24/24 22/22/22 38/38/38
f 24/24/24 38/38/38 37/37/37
f 22/22/22 39/39/39 38/38/38
f 22/22/22 20/20/20 39/39/39
f 20/20/20 40/40/40 39/39/39
f 20/20/20 18/18/18 40/40/40
f 18/18/18 41/41/41 40/40/40
f 18/18/18 14/14/14 41/41/41
f 14/14/14 42/42/42 41/41/41
f 14/14/14 12/12/12 42/42/42
f 12/12/12 43/43/43 42/42/42
f 12/12/12 15/15/15 43/43/43
f 41/41/41 42/42/42 44/44/44
f 41/41/41 44/44/44 45/45/45
f 40/40/40 41/41/41 45/45/45
f 42/42/42 43/43/43 46/46/46
f 42/42/42 46/46/46 44/44/44
f 37/37/37 38/38/38 47/47/47
f 38/38/38 39/39/39 48/48/48
f 38/38/38 48/48/48 47/47/47
f 39/39/39 40/40/40 49/49/49
f 40/40/40 45/45/45 49/49/49
f 39/39/39 49/49/49 48/48/48
f 45/45/45 44/44/44 50/50/50
f 45/45/45 50/50/50 51/51/51
f 49/49/49 45/45/45 51/51/51
f 44/44/44 46/46/46 52/52/52
f 44/44/44 52/52/52 50/50/50
f 47/47/47 48/48/48 53/53/53
f 47/47/47 53/53/53 54/54/54
f 55/55/55 47/47/47 54/54/54
f 37/37/37 47/47/47 55/55/55
f 36/36/36 37/37/37 55/55/55
f 36/36/36 55/55/55 56/56/56
f 35/35/35 36/36/36 56/56/56
f 35/35/35 56/56/56 57/57/57
f 33/33/33 35/35/35 57/57/57
f 33/33/33 57/57/57 58/58/58
f 34/34/34 33/33/33 58/58/58
f 34/34/34 58/58/58 59/59/59
f 59/59/59 58/58/58 60/60/60
f 59/59/59 60/60/60 61/61/61
f 58/58/58 57/57/57 62/62/62
f 58/58/58 62/62/62 60/60/60
f 57/57/57 56/56/56 63/63/63
f 57/57/57 63/63/63 62/62/62
f 56/56/56 55/55/55 64/64/64
f 56/56/56 64/64/64 63/63/63
f 55/55/55 54/54/54 64/64/64
f 48/48/48 49/49/49 65/65/65
f 48/48/48 65/65/65 53/53/53
f 49/49/49 51/51/51 65/65/65
f 66/66/66 68/68/68 67/67/67
f 68/68/68 66/66/66 69/69/69
f 69/69/69 66/66/66 70/70/70
f 70/70/70 66/66/66 71/71/71
f 70/70/70 71/71/71 72/72/72
f 72/72/72 71/71/71 73/73/73
f 72/72/72 73/73/73 74/74/74
f 74/74/74 73/73/73 75/75/75
f 76/76/76 78/78/78 77/77/77
f 78/78/78 79/79/79 77/77/77
f 79/79/79 80/80/80 77/77/77
f 80/80/80 81/81/81 77/77/77
f 81/81/81 82/82/82 77/77/77
f 82/82/82 83/83/83 77/77/77
f 83/83/83 84/84/84 77/77/77
f 84/84/84 85/85/85 77/77/77
f 85/85/85 86/86/86 77/77/77
f 86/86/86 76/76/76 77/77/77
f 87/87/87 89/89/89 88/88/88
f 89/89/89 90/90/90 88/88/88
f 90/90/90 91/91/91 88/88/88
f 91/91/91 92/92/92 88/88/88
f 92/92/92 93/93/93 88/88/88
f 93/93/93 94/94/94 88/88/88
f 94/94/94 95/95/95 88/88/88
f 95/95/95 96/96/96 88/88/88
f 96/96/96 97/97/97 88/88/88
f 97/97/97 87/87/87 88/88/88
